<svg xmlns="http://www.w3.org/2000/svg" viewBox="0 0 1556.91 148"><defs><style>.cls-1{fill:#e00;}</style></defs><title>Logo-Red_Hat-Dxc_Technology-A-Standard-RGB</title><g id="Lockup_A" data-name="Lockup A"><path d="M846.71,74.8a42.24,42.24,0,0,0-42.42-42.52H785.84v84.93h18.45A42.21,42.21,0,0,0,846.71,74.8m33.16,13.78-30,51.88h59.92Zm0-27.57L909.75,9.13H849.83Zm33,13.79a42.21,42.21,0,0,0,42.42,42.41h18.45V32.28H955.29A42.24,42.24,0,0,0,912.87,74.8M1539,104.14c-2.9,7.35-6.54,10.85-14.83,10.85a30.87,30.87,0,0,1-4.78-.33v-9.24a26.31,26.31,0,0,0,3.64.41c2.76,0,4.51-1.08,5.93-4.52l.87-2.16-15-35h12l8.69,21.5,8-21.44h11.32L1539,104.14m-47.18-13.68c-4.85,0-8.23-4-8.23-8.83s3.38-8.9,8.23-8.9c5,0,8.43,4.11,8.43,8.9s-3.38,8.83-8.43,8.83m19.48,9.23V64.17h-10.85v5.12c-2-3.71-6.54-6-11-6-10.18,0-16.92,7.89-16.92,18.34s7,17.72,17,17.72c4.52,0,8.84-2.22,10.72-5.39v6c0,5-2.63,7.75-7.88,7.75-4.66,0-7.22-2.15-7.69-5.32h-10.92c.61,7.75,6.74,13.28,18.34,13.28,12.87,0,19.14-5.8,19.14-16m-61.61-9.23c-5,0-8.23-4-8.23-8.83s3.24-8.9,8.23-8.9,8.29,4,8.29,8.9-3.3,8.83-8.29,8.83m0,9.5c12.13,0,19.34-8.43,19.34-18.33s-7.21-18.41-19.34-18.41-19.28,8.43-19.28,18.41,7.28,18.33,19.28,18.33m-35.6-.94h11V48.46h-11Zm-24.67-8.56c-5,0-8.22-4-8.22-8.83s3.23-8.9,8.22-8.9,8.29,4,8.29,8.9-3.3,8.83-8.29,8.83m0,9.5c12.14,0,19.35-8.43,19.35-18.33s-7.21-18.41-19.35-18.41-19.28,8.43-19.28,18.41,7.28,18.33,19.28,18.33M1330.1,99h11V80.82c0-4.92,2.29-8.09,6.74-8.09,4.72,0,6.2,2.9,6.2,7.07V99h11V79c0-9.85-4.32-15.71-13.15-15.71-5.19,0-9,2.29-10.92,5.93v-5H1330.1Zm-41.86,0h11V80.82c0-4.92,2.3-8.09,6.75-8.09,4.71,0,6.2,2.9,6.2,7.07V99h11V79c0-9.85-4.32-15.71-13.15-15.71-5.12,0-8.83,2.29-10.79,5.93V48.46h-11Zm-4.92-21.44c-1.35-8.09-7.35-14.36-17.87-14.36-11.8,0-18.94,8.43-18.94,18.41s7.14,18.33,18.94,18.33c10.52,0,16.52-6.27,17.87-14.36h-11.06a6.76,6.76,0,0,1-6.74,5.06c-4.85,0-8-4.11-8-9s3.11-9.11,8-9.11a6.69,6.69,0,0,1,6.67,5.06ZM1224.94,71c4.18,0,6.87,2.63,7.28,6.74h-14.77a7.06,7.06,0,0,1,7.49-6.74m17.19,17.39h-10.45c-1.15,2.09-3.17,3.58-6.61,3.58-5,0-7.48-3.17-7.68-7.55h25.34a30.15,30.15,0,0,0,.27-4.12c0-9.23-6.4-17.12-17.93-17.12-11.86,0-18.33,8.29-18.33,18.41s6.53,18.33,18.47,18.33c9.5,0,15.16-5,16.92-11.53m-63.84-24.26v8.62h5.46V87c0,9.57,4.58,12.61,12.87,12.61a40.19,40.19,0,0,0,6.88-.54V90.19a38.21,38.21,0,0,1-4.38.4c-2.83,0-4.38-.94-4.38-4.45V72.79h8V64.17h-8V53.85h-11V64.17Zm-14.9,28.44a7,7,0,1,0,7-7,7,7,0,0,0-7,7m-26.89,7.28c14,0,21.57-8.36,23-19H1148a11,11,0,0,1-11.25,8.83c-8.7,0-13.22-6.94-13.22-15s4.52-15,13.22-15A11,11,0,0,1,1148,68.61h11.53c-1.48-10.65-9.1-19-23-19-15.57,0-24.61,11.87-24.61,25.15s9,25.14,24.61,25.14M1098.68,99H1112l-15.71-24.41,15.57-24.13h-13.08l-9.64,16-9.77-16h-13.28l15.64,24.13L1066,99h13l9.9-16.18Zm-57.91-38.7c9,0,14.09,7,14.09,14.43s-5.12,14.43-14.09,14.43h-5.86V60.32ZM1023.52,99h17.79c16.18,0,25.21-11.87,25.21-24.27s-9.1-24.27-25.21-24.27h-17.79Z"/><path id="Divider" d="M699.84,146a2.25,2.25,0,0,1-2.25-2.25V4.25a2.25,2.25,0,0,1,4.5,0v139.5A2.25,2.25,0,0,1,699.84,146Z"/><path class="cls-1" d="M129,85c12.5,0,30.61-2.58,30.61-17.46a14,14,0,0,0-.31-3.42l-7.45-32.36c-1.72-7.12-3.23-10.35-15.74-16.6C126.38,10.19,105.26,2,99,2c-5.82,0-7.55,7.54-14.45,7.54-6.68,0-11.64-5.6-17.89-5.6-6,0-9.92,4.09-12.93,12.5,0,0-8.41,23.72-9.49,27.16A6.43,6.43,0,0,0,44,45.54C44,54.76,80.32,85,129,85m32.55-11.42c1.73,8.19,1.73,9.05,1.73,10.13,0,14-15.74,21.77-36.43,21.77C80,105.47,39.08,78.1,39.08,60a18.28,18.28,0,0,1,1.51-7.33C23.77,53.52,2,56.54,2,75.72,2,107.2,76.59,146,135.65,146c45.27,0,56.7-20.48,56.7-36.65,0-12.72-11-27.16-30.83-35.78"/><path d="M161.52,73.57c1.73,8.19,1.73,9.05,1.73,10.13,0,14-15.74,21.77-36.43,21.77C80,105.47,39.08,78.1,39.08,60a18.28,18.28,0,0,1,1.51-7.33l3.66-9.06A6.43,6.43,0,0,0,44,45.54C44,54.76,80.32,85,129,85c12.5,0,30.61-2.58,30.61-17.46a14,14,0,0,0-.31-3.42Z"/><path d="M581.24,94.3c0,11.89,7.15,17.67,20.19,17.67a52,52,0,0,0,11.88-1.68V96.51a24.78,24.78,0,0,1-7.67,1.16c-5.37,0-7.37-1.68-7.37-6.73V69.8h15.57V55.6H598.27v-18l-17,3.68V55.6H570V69.8h11.26Zm-53,.32c0-3.68,3.68-5.47,9.26-5.47a43,43,0,0,1,10.09,1.26v7.15A21.45,21.45,0,0,1,537,100.19c-5.47,0-8.73-2.1-8.73-5.57m5.2,17.56c6,0,10.83-1.26,15.36-4.31v3.37h16.82V75.58c0-13.56-9.15-21-24.4-21-8.51,0-16.93,2-26,6.1l6.1,12.52c6.52-2.74,12-4.42,16.82-4.42,7,0,10.63,2.73,10.63,8.31v2.73a49.53,49.53,0,0,0-12.62-1.58c-14.31,0-22.93,6-22.93,16.73,0,9.78,7.78,17.24,20.19,17.24m-92.44-.94h18.09V82.42h30.29v28.82h18.08V37.62H489.43V65.91H459.14V37.62H441.05ZM372.12,83.37c0-8,6.31-14.1,14.62-14.1a17.22,17.22,0,0,1,11.78,4.32V93a16.36,16.36,0,0,1-11.78,4.42c-8.21,0-14.62-6.1-14.62-14.09m26.61,27.87h16.82V33.94l-17,3.68V58.55a28.3,28.3,0,0,0-14.2-3.68c-16.2,0-28.92,12.51-28.92,28.5A28.25,28.25,0,0,0,383.79,112a25.13,25.13,0,0,0,14.94-4.83Zm-77.2-42.7c5.37,0,9.89,3.47,11.68,8.83H310c1.68-5.57,5.89-8.83,11.56-8.83M292.82,83.47c0,16.2,13.26,28.82,30.29,28.82,9.36,0,16.2-2.53,23.24-8.42l-11.25-10c-2.63,2.74-6.52,4.21-11.15,4.21a14.38,14.38,0,0,1-13.67-8.83h39.65V85.05c0-17.67-11.88-30.39-28.08-30.39a28.58,28.58,0,0,0-29,28.81M263.48,53.08c6,0,9.36,3.78,9.36,8.31s-3.36,8.31-9.36,8.31H245.6V53.08Zm-36,58.16H245.6V84.42h13.78l13.88,26.82h20.2l-16.2-29.45a22.27,22.27,0,0,0,13.88-20.72c0-13.25-10.41-23.45-26-23.45H227.52Z"/></g></svg>