<svg xmlns="http://www.w3.org/2000/svg" viewBox="0 0 773.07 455.51"><defs><style>.cls-1{fill:#e00;}</style></defs><title>Logo-Red_Hat-Dxc_Technology-B-Standard-RGB</title><g id="Lockup_A" data-name="Lockup A"><path id="Divider" d="M2,232a2.25,2.25,0,0,1,2.25-2.25H768.82a2.25,2.25,0,0,1,0,4.5H4.25A2.25,2.25,0,0,1,2,232Z"/><path class="cls-1" d="M207.59,85c12.5,0,30.61-2.59,30.61-17.47a14,14,0,0,0-.31-3.42l-7.45-32.36c-1.73-7.11-3.24-10.35-15.74-16.6C205,10.19,183.87,2,177.62,2c-5.82,0-7.54,7.55-14.44,7.55-6.68,0-11.64-5.61-17.89-5.61-6,0-9.92,4.1-12.94,12.51,0,0-8.4,23.71-9.48,27.15a6.15,6.15,0,0,0-.22,1.95c0,9.21,36.29,39.45,84.94,39.45m32.55-11.43c1.72,8.19,1.72,9.05,1.72,10.13,0,14-15.74,21.77-36.43,21.77-46.78,0-87.74-27.37-87.74-45.48a18.49,18.49,0,0,1,1.51-7.33c-16.81.86-38.59,3.88-38.59,23.07C80.61,107.2,155.2,146,214.27,146c45.27,0,56.69-20.48,56.69-36.64,0-12.72-11-27.17-30.82-35.79"/><path d="M240.14,73.57c1.72,8.19,1.72,9.05,1.72,10.13,0,14-15.74,21.77-36.43,21.77-46.78,0-87.74-27.37-87.74-45.48a18.49,18.49,0,0,1,1.51-7.33l3.67-9.06a6.15,6.15,0,0,0-.22,1.95c0,9.21,36.29,39.45,84.94,39.45,12.5,0,30.61-2.59,30.61-17.47a14,14,0,0,0-.31-3.42Z"/><path d="M659.85,94.31c0,11.88,7.16,17.66,20.2,17.66a52,52,0,0,0,11.88-1.68V96.51a24.5,24.5,0,0,1-7.68,1.16c-5.36,0-7.36-1.68-7.36-6.73V69.8h15.57V55.6H676.89v-18l-17,3.68V55.6H648.6V69.8h11.25Zm-52.94.31c0-3.68,3.68-5.47,9.25-5.47a42.52,42.52,0,0,1,10.1,1.27v7.15a21.58,21.58,0,0,1-10.62,2.63c-5.47,0-8.73-2.11-8.73-5.58m5.2,17.57c6,0,10.83-1.27,15.35-4.32v3.37h16.83V75.59c0-13.57-9.15-21-24.4-21-8.52,0-16.93,2-26,6.1L600,73.17c6.52-2.74,12-4.42,16.83-4.42,7,0,10.62,2.73,10.62,8.31v2.73a49.42,49.42,0,0,0-12.62-1.57c-14.3,0-22.92,6-22.92,16.72,0,9.78,7.78,17.25,20.19,17.25m-92.44-1h18.08V82.42H568v28.82h18.09V37.62H568V65.91H537.75V37.62H519.67ZM450.74,83.37c0-8,6.31-14.09,14.61-14.09a17.2,17.2,0,0,1,11.78,4.31V93a16.34,16.34,0,0,1-11.78,4.42c-8.2,0-14.61-6.1-14.61-14.09m26.6,27.87h16.83V33.94l-17,3.68V58.55a28.23,28.23,0,0,0-14.19-3.68c-16.2,0-28.93,12.51-28.93,28.5a28.26,28.26,0,0,0,28.4,28.6,25.1,25.1,0,0,0,14.93-4.83Zm-77.19-42.7c5.37,0,9.89,3.47,11.68,8.83H388.58c1.69-5.57,5.89-8.83,11.57-8.83M371.44,83.47c0,16.2,13.25,28.82,30.29,28.82,9.36,0,16.19-2.52,23.24-8.41l-11.25-10c-2.63,2.73-6.52,4.2-11.15,4.2a14.38,14.38,0,0,1-13.67-8.83h39.65V85.05c0-17.67-11.89-30.39-28.08-30.39a28.58,28.58,0,0,0-29,28.81M342.1,53.08c6,0,9.36,3.79,9.36,8.31s-3.37,8.31-9.36,8.31H324.22V53.08Zm-36,58.16h18.09V84.42H338l13.88,26.82h20.19L355.88,81.79a22.26,22.26,0,0,0,13.88-20.72c0-13.25-10.41-23.45-26-23.45H306.13Z"/><path d="M62.87,387.84a42.24,42.24,0,0,0-42.42-42.52H2v84.94H20.45a42.21,42.21,0,0,0,42.42-42.42M96,401.63,66,453.51h59.92Zm0-27.58,29.88-51.87H66Zm33,13.79a42.21,42.21,0,0,0,42.41,42.42H189.9V345.32H171.44A42.23,42.23,0,0,0,129,387.84m626.13,29.35c-2.9,7.35-6.54,10.85-14.83,10.85a29.52,29.52,0,0,1-4.78-.34v-9.23a26.18,26.18,0,0,0,3.64.4c2.76,0,4.51-1.08,5.93-4.51l.87-2.16-15-35h12l8.69,21.51,8-21.44h11.32l-15.91,39.91M708,403.5c-4.85,0-8.23-4-8.23-8.83s3.38-8.9,8.23-8.9c5,0,8.43,4.12,8.43,8.9S713,403.5,708,403.5m19.48,9.24V377.21H716.61v5.13c-2-3.71-6.54-6-11-6-10.18,0-16.92,7.88-16.92,18.33s7,17.73,17,17.73c4.52,0,8.84-2.22,10.72-5.39v6c0,5-2.63,7.75-7.88,7.75-4.66,0-7.22-2.16-7.69-5.32H690c.61,7.75,6.74,13.28,18.34,13.28,12.87,0,19.14-5.8,19.14-16m-61.61-9.24c-5,0-8.23-4-8.23-8.83s3.24-8.9,8.23-8.9,8.29,4.05,8.29,8.9-3.3,8.83-8.29,8.83m0,9.51c12.13,0,19.34-8.43,19.34-18.34s-7.21-18.4-19.34-18.4-19.28,8.43-19.28,18.4S653.85,413,665.85,413m-35.6-.95h11V361.51h-11Zm-24.67-8.56c-5,0-8.22-4-8.22-8.83s3.23-8.9,8.22-8.9,8.29,4.05,8.29,8.9-3.3,8.83-8.29,8.83m0,9.51c12.13,0,19.35-8.43,19.35-18.34s-7.22-18.4-19.35-18.4-19.28,8.43-19.28,18.4S593.58,413,605.58,413m-59.32-.95h11v-18.2c0-4.92,2.29-8.09,6.74-8.09,4.72,0,6.2,2.9,6.2,7.08v19.21h11V392c0-9.84-4.32-15.7-13.15-15.7-5.19,0-9,2.29-10.92,5.93v-5.06H546.26Zm-41.86,0h11v-18.2c0-4.92,2.3-8.09,6.75-8.09,4.71,0,6.2,2.9,6.2,7.08v19.21h11V392c0-9.84-4.32-15.7-13.15-15.7-5.12,0-8.83,2.29-10.79,5.93V361.51h-11Zm-4.92-21.43c-1.35-8.09-7.35-14.36-17.87-14.36-11.8,0-18.94,8.43-18.94,18.4S469.81,413,481.61,413c10.52,0,16.52-6.27,17.87-14.36H488.42a6.77,6.77,0,0,1-6.74,5.06c-4.86,0-8-4.12-8-9s3.1-9.1,8-9.1a6.68,6.68,0,0,1,6.67,5.06Zm-58.38-6.54c4.18,0,6.87,2.63,7.28,6.74H433.61a7.06,7.06,0,0,1,7.49-6.74m17.19,17.39H447.84c-1.15,2.09-3.17,3.57-6.61,3.57-5,0-7.48-3.16-7.68-7.55h25.34a30,30,0,0,0,.27-4.11c0-9.23-6.4-17.12-17.93-17.12-11.86,0-18.33,8.29-18.33,18.4S429.43,413,441.37,413c9.5,0,15.16-5.06,16.92-11.53m-63.84-24.27v8.63h5.46V400c0,9.57,4.58,12.6,12.87,12.6a40.19,40.19,0,0,0,6.88-.54v-8.83a36.26,36.26,0,0,1-4.38.41c-2.83,0-4.38-.95-4.38-4.45V385.84h8v-8.63h-8V366.9h-11v10.31Zm-14.9,28.45a7,7,0,1,0,7-7,7,7,0,0,0-7,7m-26.89,7.28c13.95,0,21.57-8.36,23-19H364.18a11,11,0,0,1-11.25,8.83c-8.7,0-13.22-6.94-13.22-15s4.52-15,13.22-15a11,11,0,0,1,11.25,8.83h11.53c-1.48-10.65-9.1-19-23-19-15.58,0-24.61,11.87-24.61,25.15s9,25.14,24.61,25.14m-37.82-.88h13.35l-15.71-24.4,15.57-24.13H315l-9.64,16-9.77-16H282.28l15.64,24.13-15.78,24.4h13l9.91-16.17Zm-57.91-38.69c9,0,14.09,7,14.09,14.43s-5.12,14.42-14.09,14.42h-5.86V373.37Zm-17.25,38.69h17.79c16.18,0,25.21-11.86,25.21-24.26s-9.1-24.27-25.21-24.27H239.68Z"/></g></svg>