<svg id="Layer_1" data-name="Layer 1" xmlns="http://www.w3.org/2000/svg" viewBox="0 0 390.5 621.39"><defs><style>.cls-1,.cls-2{fill:#fff;}.cls-2{fill-rule:evenodd;}</style></defs><title>Logo-Red_Hat-AWS-B-White-RGB</title><path class="cls-1" d="M386.25,339.06H4.25a2.25,2.25,0,0,1,0-4.5h382a2.25,2.25,0,0,1,0,4.5Z"/><path class="cls-1" d="M259.63,73.56c1.73,8.2,1.73,9.06,1.73,10.14,0,14-15.73,21.8-36.43,21.82-46.82,0-87.83-27.31-87.85-45.44a18.49,18.49,0,0,1,1.5-7.33C121.76,53.63,100,56.66,100,75.87c0,31.49,74.71,70.25,133.82,70.2,45.3,0,56.71-20.54,56.7-36.72,0-12.74-11-27.18-30.88-35.79M227.06,85c12.52,0,30.64-2.62,30.62-17.51a14,14,0,0,0-.31-3.42l-7.49-32.38c-1.73-7.12-3.24-10.35-15.76-16.6C224.41,10.17,203.26,2,197,2c-5.82,0-7.54,7.55-14.45,7.56C175.87,9.57,170.9,4,164.64,4c-6,0-9.92,4.11-12.93,12.52,0,0-8.39,23.74-9.47,27.19a6.43,6.43,0,0,0-.22,1.94c0,9.23,36.36,39.45,85,39.41"/><path class="cls-1" d="M2,250.06H20.1V223.23H33.88l13.89,26.83H68L51.77,220.6a22.28,22.28,0,0,0,13.88-20.73c0-13.25-10.41-23.46-26-23.46H2v73.65Zm36-58.18c6,0,9.37,3.78,9.37,8.31S44,208.5,38,208.5H20.1V191.88Zm29.36,30.4c0,16.21,13.25,28.83,30.3,28.83,9.36,0,16.2-2.52,23.25-8.41l-11.26-10c-2.63,2.74-6.52,4.21-11.15,4.21a14.39,14.39,0,0,1-13.68-8.84h39.67v-4.21c0-17.67-11.89-30.41-28.09-30.41a28.59,28.59,0,0,0-29,28.83m28.72-14.94c5.37,0,9.89,3.48,11.68,8.84H84.49c1.68-5.58,5.89-8.84,11.57-8.84m77.23,42.72h16.83V172.73l-17,3.68v20.94a28.31,28.31,0,0,0-14.21-3.68c-16.2,0-28.93,12.52-28.93,28.51a28.27,28.27,0,0,0,28.41,28.62A25.14,25.14,0,0,0,173.29,246v4.1Zm-26.62-27.88c0-8,6.31-14.1,14.62-14.1a17.29,17.29,0,0,1,11.79,4.31v19.47a16.36,16.36,0,0,1-11.79,4.42c-8.2,0-14.62-6.1-14.62-14.1m69,27.88h18.1V221.23H264v28.83h18.1V176.41H264v28.3h-30.3v-28.3h-18.1v73.65Zm92.49.95c6,0,10.83-1.26,15.36-4.32v3.37h16.83V214.39c0-13.57-9.15-21-24.41-21-8.52,0-16.94,2-26,6.1L296,212c6.52-2.73,12-4.42,16.83-4.42,7,0,10.63,2.74,10.63,8.32v2.73A49.55,49.55,0,0,0,310.85,217c-14.31,0-22.93,6-22.93,16.73,0,9.79,7.78,17.26,20.2,17.26m-5.2-17.57c0-3.69,3.68-5.47,9.26-5.47a42.67,42.67,0,0,1,10.1,1.26v7.15A21.51,21.51,0,0,1,311.65,239c-5.47,0-8.73-2.1-8.73-5.57m53-.32c0,11.89,7.16,17.68,20.21,17.68A52.21,52.21,0,0,0,388,249.11V235.33a24.86,24.86,0,0,1-7.69,1.16c-5.36,0-7.36-1.68-7.36-6.74V208.61H388.5V194.4H372.93v-18l-17.05,3.68V194.4H344.63v14.21h11.25v24.51Z"/><path class="cls-1" d="M305.91,525.05a72.61,72.61,0,0,1-16.62-1.91,48.23,48.23,0,0,1-12.46-4.39,7.5,7.5,0,0,1-3.3-3.06,7.42,7.42,0,0,1-.66-3.05V507.1c0-2.29.81-3.43,2.45-3.43a5.59,5.59,0,0,1,2,.38c.69.25,1.61.63,2.74,1.14a56.39,56.39,0,0,0,11.9,3.82,62.92,62.92,0,0,0,12.84,1.34q10.2,0,15.77-3.63a11.61,11.61,0,0,0,5.57-10.31,10.61,10.61,0,0,0-2.93-7.64q-2.93-3-10.86-5.73l-15.67-5q-11.9-3.82-17.28-11.08A26,26,0,0,1,274,451.16,24.39,24.39,0,0,1,276.93,439a29.18,29.18,0,0,1,7.74-9,34,34,0,0,1,11.23-5.64,47.6,47.6,0,0,1,13.6-1.91,58,58,0,0,1,7.27.48c2.46.32,4.79.74,7,1.24s4.25,1.09,6.14,1.72a27.4,27.4,0,0,1,4.53,1.91,10.28,10.28,0,0,1,3.21,2.67,6.2,6.2,0,0,1,.94,3.63v5.16c0,2.29-.82,3.43-2.45,3.43a11.35,11.35,0,0,1-4.16-1.33,49.69,49.69,0,0,0-20.77-4.2q-9.26,0-14.35,3t-5.1,9.74a10.42,10.42,0,0,0,3.21,7.73q3.21,3.15,11.9,6l15.29,5q11.72,3.82,16.72,10.5a24.87,24.87,0,0,1,5,15.28A27.87,27.87,0,0,1,341,507.2a28.83,28.83,0,0,1-7.84,9.64,35.07,35.07,0,0,1-12,6.11,53,53,0,0,1-15.3,2.1ZM167.3,522.19a6.64,6.64,0,0,1-4.15-1.05c-.89-.7-1.64-2.13-2.27-4.3l-25.3-84.4a19.2,19.2,0,0,1-1-4.39,2.35,2.35,0,0,1,2.64-2.67h10.58c2,0,3.43.35,4.25,1.05s1.54,2.13,2.17,4.29L172.4,502.9l16.81-72.18q.75-3.24,2.07-4.29a7.05,7.05,0,0,1,4.35-1.05h8.68a7.05,7.05,0,0,1,4.35,1.05q1.32,1.05,2.08,4.29l17,73.14,18.7-73.14q.94-3.24,2.17-4.29c.82-.7,2.23-1.05,4.25-1.05h10a2.35,2.35,0,0,1,2.64,2.67,8.67,8.67,0,0,1-.19,1.72,23.79,23.79,0,0,1-.75,2.67l-26.06,84.4c-.64,2.17-1.39,3.6-2.27,4.3a6.66,6.66,0,0,1-4.15,1.05h-9.26a6.61,6.61,0,0,1-4.34-1.15c-.88-.76-1.58-2.23-2.08-4.39l-16.81-70.27L183,516.65c-.51,2.16-1.2,3.63-2.08,4.39a6.63,6.63,0,0,1-4.35,1.15ZM80.62,510.35a34.32,34.32,0,0,0,11.14-2,23.54,23.54,0,0,0,10.2-7,17.24,17.24,0,0,0,3.68-7,37.28,37.28,0,0,0,1-9.45v-4.58a91.34,91.34,0,0,0-9.91-1.81,78.47,78.47,0,0,0-10.11-.67q-10.75,0-16,4.39t-5.29,12.6c0,5.09,1.33,8.95,4,11.55s6.42,3.92,11.33,3.92Zm43.81-16.61a31.14,31.14,0,0,0,1.23,9.73,51.45,51.45,0,0,0,3.49,7.83,5,5,0,0,1,.76,2.48c0,1.15-.69,2.23-2.08,3.25l-6.8,4.58a5.32,5.32,0,0,1-2.83,1A4.5,4.5,0,0,1,115,521a25,25,0,0,1-3.87-5.06c-1.07-1.84-2.17-4-3.31-6.4q-12.65,15.09-31.72,15.09-13.61,0-21.53-7.83t-7.93-21q0-13.93,9.82-22.44t26.44-8.5a80.26,80.26,0,0,1,11.42.86q6,.87,12.37,2.39v-8q0-12.4-5.1-17.47T84,437.6A49.69,49.69,0,0,0,72.41,439a84,84,0,0,0-11.62,3.72A30.15,30.15,0,0,1,57,444.19a7.74,7.74,0,0,1-1.7.28c-1.51,0-2.27-1.14-2.27-3.43v-5.35a7.15,7.15,0,0,1,.76-3.82,7.77,7.77,0,0,1,3-2.29,70.52,70.52,0,0,1,13.59-5,65.45,65.45,0,0,1,16.81-2.1q19.26,0,28.23,8.88t9,26.83v35.52Z"/><path class="cls-2" d="M326.32,578.78c-35.53,26.51-87,40.61-131.39,40.61-62.16,0-118.15-23.23-160.51-61.91-3.32-3-.36-7.18,3.64-4.83,45.71,26.89,102.23,43.09,160.6,43.09a316.53,316.53,0,0,0,122.5-25.35c6-2.58,11,4,5.16,8.39Z"/><path class="cls-2" d="M341.11,561.72c-4.55-5.89-30-2.79-41.49-1.4-3.47.42-4-2.65-.88-4.87C319.07,541,352.4,545.18,356.27,550s-1,38.66-20.08,54.78c-2.93,2.48-5.72,1.16-4.42-2.11,4.29-10.83,13.89-35.08,9.34-41Z"/><path class="cls-2" d="M326.32,578.78c-35.53,26.51-87,40.61-131.39,40.61-62.16,0-118.15-23.23-160.51-61.91-3.32-3-.36-7.18,3.64-4.83,45.71,26.89,102.23,43.09,160.6,43.09a316.53,316.53,0,0,0,122.5-25.35c6-2.58,11,4,5.16,8.39Z"/><path class="cls-2" d="M341.11,561.72c-4.55-5.89-30-2.79-41.49-1.4-3.47.42-4-2.65-.88-4.87C319.07,541,352.4,545.18,356.27,550s-1,38.66-20.08,54.78c-2.93,2.48-5.72,1.16-4.42-2.11,4.29-10.83,13.89-35.08,9.34-41Z"/></svg>