<svg xmlns="http://www.w3.org/2000/svg" viewBox="0 0 1353 148"><title>Logo-Red_Hat-Dell_EMC-A-Black-RGB-RGB</title><g id="Guides"><path d="M129,85c12.51,0,30.61-2.58,30.61-17.46a14,14,0,0,0-.31-3.42l-7.45-32.36c-1.72-7.12-3.23-10.35-15.73-16.6C126.39,10.19,105.26,2,99,2c-5.82,0-7.55,7.54-14.45,7.54-6.68,0-11.64-5.6-17.89-5.6-6,0-9.91,4.09-12.93,12.5,0,0-8.41,23.72-9.49,27.16A6.43,6.43,0,0,0,44,45.54C44,54.76,80.33,85,129,85m32.55-11.42c1.73,8.19,1.73,9.05,1.73,10.13,0,14-15.74,21.77-36.43,21.77C80,105.47,39.08,78.1,39.08,60a18.45,18.45,0,0,1,1.51-7.33C23.77,53.52,2,56.54,2,75.72,2,107.2,76.59,146,135.65,146c45.28,0,56.7-20.48,56.7-36.65,0-12.72-11-27.16-30.83-35.78"/><path d="M581.24,94.3c0,11.89,7.15,17.67,20.19,17.67a52.11,52.11,0,0,0,11.89-1.68V96.51a24.84,24.84,0,0,1-7.68,1.16c-5.37,0-7.36-1.68-7.36-6.73V69.8h15.56V55.6H598.28v-18l-17,3.68V55.6H570V69.8h11.25Zm-53,.32c0-3.68,3.69-5.47,9.26-5.47a43.12,43.12,0,0,1,10.1,1.26v7.15A21.51,21.51,0,0,1,537,100.19c-5.46,0-8.73-2.1-8.73-5.57m5.2,17.56c6,0,10.84-1.26,15.36-4.31v3.37h16.82V75.58c0-13.56-9.14-21-24.39-21-8.52,0-16.94,2-26,6.1l6.1,12.52c6.52-2.74,12-4.42,16.83-4.42,7,0,10.62,2.73,10.62,8.31v2.73a49.53,49.53,0,0,0-12.62-1.58c-14.31,0-22.93,6-22.93,16.73,0,9.78,7.78,17.24,20.19,17.24m-92.44-.94h18.09V82.42h30.29v28.82h18.09V37.62H489.43V65.91H459.14V37.62H441.05ZM372.12,83.37c0-8,6.31-14.1,14.62-14.1a17.22,17.22,0,0,1,11.78,4.32V93a16.36,16.36,0,0,1-11.78,4.42c-8.2,0-14.62-6.1-14.62-14.09m26.61,27.87h16.83V33.94l-17,3.68V58.55a28.3,28.3,0,0,0-14.2-3.68c-16.19,0-28.92,12.51-28.92,28.5A28.25,28.25,0,0,0,383.8,112a25.12,25.12,0,0,0,14.93-4.83Zm-77.19-42.7c5.36,0,9.88,3.47,11.67,8.83H310c1.68-5.57,5.89-8.83,11.57-8.83M292.83,83.47c0,16.2,13.25,28.82,30.28,28.82,9.36,0,16.2-2.53,23.25-8.42l-11.26-10c-2.63,2.74-6.52,4.21-11.14,4.21a14.39,14.39,0,0,1-13.68-8.83h39.65V85.05c0-17.67-11.88-30.39-28.08-30.39a28.57,28.57,0,0,0-29,28.81M263.49,53.08c6,0,9.36,3.78,9.36,8.31s-3.37,8.31-9.36,8.31H245.61V53.08Zm-36,58.16h18.09V84.42h13.77l13.89,26.82h20.19l-16.2-29.45a22.27,22.27,0,0,0,13.88-20.72c0-13.25-10.41-23.45-26-23.45H227.52Z"/><path d="M699.84,146a2.25,2.25,0,0,1-2.25-2.25V4.25a2.25,2.25,0,0,1,4.5,0v139.5A2.25,2.25,0,0,1,699.84,146Z"/><path d="M1317.32,118.91c17.47,0,31.19-8.74,33.68-27.45l-1.24-1.25h-5l-1.25,1.25c-2.49,13.72-11.23,21.21-26.2,21.21-18.71,0-32.43-13.72-32.43-38.67s13.72-38.67,32.43-38.67c15,0,23.71,7.48,26.2,20l1.25,1.25h5l1.24-1.25c-2.49-17.46-16.21-26.19-33.68-26.19-21.2,0-39.92,15-39.92,44.91s18.72,44.91,39.92,44.91m-54.89-2.5V31.59l-1.24-1.25h-8.73l-1.25,1.25-32.44,76.09h-1.24L1185.1,31.59l-1.25-1.25h-8.73l-1.25,1.25v84.82l1.25,1.25h5l1.24-1.25V44.06h1.25l31.19,72.35,1.25,1.25h6.23l1.25-1.25,31.18-72.35H1255v72.35l1.25,1.25h5Zm-104.77,0v-3.74l-1.26-1.25h-46.15l-1.25-1.25V77.74l1.25-1.25h43.66l1.25-1.25V71.5l-1.25-1.25h-43.66L1109,69V37.82l1.25-1.24h46.15l1.26-1.25V31.59l-1.26-1.25h-53.63l-1.25,1.25v84.82l1.25,1.25h53.63Z"/><path d="M1081.69,100.31v17.35h-56.34V30.34h19.84v70Zm-56.34-70h19.84m-224,87.32A43.67,43.67,0,0,0,863.5,85l49.4,38.59L962.27,85v32.65h56.34V100.31h-36.5v-70H962.27V63l-47.35,37-10.59-8.28L927,74l24.68-19.29-14.09-11-47.36,37-10.59-8.27,47.36-37-14.1-11L863.5,63a43.67,43.67,0,0,0-42.26-32.67h-35.4v87.32Zm-15.57-17.35V47.69h15.57c13.16,0,23.82,11.78,23.82,26.31s-10.66,26.31-23.82,26.31Z"/></g></svg>