<svg id="Layer_1" data-name="Layer 1" xmlns="http://www.w3.org/2000/svg" viewBox="0 0 509.65 148"><defs><style>.cls-1{fill:#e00;}.cls-2{fill:#f25022;}.cls-3{fill:#7fba00;}.cls-4{fill:#00a4ef;}.cls-5{fill:#ffb900;}.cls-6{fill:#ef5024;}.cls-7{fill:#80b942;}.cls-8{fill:#309ed8;}.cls-9{fill:#fcb614;}</style></defs><title>Logo-Red_Hat-Microsoft-C-Standard-RGB</title><path class="cls-1" d="M161.52,73.57c1.73,8.19,1.73,9.05,1.73,10.13,0,14-15.74,21.77-36.43,21.77C80,105.47,39.08,78.1,39.08,60a18.45,18.45,0,0,1,1.51-7.33C23.77,53.52,2,56.54,2,75.72,2,107.2,76.59,146,135.66,146c45.27,0,56.69-20.48,56.69-36.65,0-12.72-11-27.16-30.83-35.78M129,85c12.51,0,30.61-2.58,30.61-17.46a14,14,0,0,0-.31-3.42l-7.44-32.36c-1.73-7.12-3.24-10.35-15.74-16.6C126.39,10.19,105.26,2,99,2c-5.82,0-7.54,7.54-14.44,7.54-6.69,0-11.64-5.6-17.9-5.6-6,0-9.91,4.09-12.93,12.5,0,0-8.41,23.72-9.49,27.16A6.43,6.43,0,0,0,44,45.54C44,54.76,80.33,85,129,85"/><path d="M161.52,73.57c1.73,8.19,1.73,9.05,1.73,10.13,0,14-15.74,21.77-36.43,21.77C80,105.47,39.08,78.1,39.08,60a18.45,18.45,0,0,1,1.51-7.33l3.66-9.06A6.43,6.43,0,0,0,44,45.54C44,54.76,80.33,85,129,85c12.51,0,30.61-2.58,30.61-17.46a14,14,0,0,0-.31-3.42l2.25,9.46Z"/><path d="M278,146.07a2.25,2.25,0,0,1-2.25-2.25V4.18a2.25,2.25,0,0,1,4.5,0V143.82A2.25,2.25,0,0,1,278,146.07Z"/><rect class="cls-2" x="363.65" y="2" width="68.44" height="68.44"/><rect class="cls-3" x="439.21" y="2" width="68.44" height="68.44"/><rect class="cls-4" x="363.65" y="77.56" width="68.44" height="68.44"/><rect class="cls-5" x="439.21" y="77.56" width="68.44" height="68.44"/><rect class="cls-6" x="363.65" y="2" width="68.44" height="68.44"/><rect class="cls-7" x="439.21" y="2" width="68.44" height="68.44"/><rect class="cls-8" x="363.65" y="77.56" width="68.44" height="68.44"/><rect class="cls-9" x="439.21" y="77.56" width="68.44" height="68.44"/></svg>