<svg id="Layer_1" data-name="Layer 1" xmlns="http://www.w3.org/2000/svg" viewBox="0 0 615.84 477"><defs><style>.cls-1{fill:#fff;}</style></defs><title>Logo-Red_Hat-Microsoft-B-White-RGB</title><path class="cls-1" d="M611.5,234.39H4.34a2.25,2.25,0,0,1,0-4.5H611.5a2.25,2.25,0,0,1,0,4.5Z"/><path class="cls-1" d="M161.52,73.57c1.73,8.19,1.73,9.05,1.73,10.13,0,14-15.74,21.77-36.43,21.77C80,105.47,39.08,78.1,39.08,60a18.45,18.45,0,0,1,1.51-7.33C23.77,53.52,2,56.54,2,75.72,2,107.2,76.59,146,135.65,146c45.28,0,56.7-20.48,56.7-36.65,0-12.72-11-27.16-30.83-35.78M129,85c12.51,0,30.61-2.58,30.61-17.46a14,14,0,0,0-.31-3.42l-7.45-32.36c-1.72-7.12-3.23-10.35-15.73-16.6C126.38,10.19,105.26,2,99,2c-5.82,0-7.55,7.54-14.45,7.54-6.68,0-11.64-5.6-17.89-5.6-6,0-9.91,4.09-12.93,12.5,0,0-8.41,23.72-9.49,27.16A6.43,6.43,0,0,0,44,45.54C44,54.76,80.33,85,129,85"/><path class="cls-1" d="M227.52,111.24h18.09V84.42h13.77l13.89,26.82h20.19l-16.2-29.45a22.27,22.27,0,0,0,13.88-20.72c0-13.25-10.41-23.45-26-23.45H227.52v73.62Zm36-58.16c6,0,9.36,3.78,9.36,8.31s-3.36,8.31-9.36,8.31H245.61V53.08Zm29.35,30.39c0,16.2,13.25,28.82,30.28,28.82,9.36,0,16.2-2.53,23.25-8.42l-11.26-10c-2.63,2.74-6.52,4.21-11.14,4.21a14.39,14.39,0,0,1-13.68-8.83h39.65V85.05c0-17.67-11.88-30.39-28.08-30.39a28.57,28.57,0,0,0-29,28.81m28.71-14.93c5.36,0,9.88,3.47,11.67,8.83H310c1.68-5.57,5.89-8.83,11.57-8.83m77.19,42.7h16.83V33.94l-17,3.68V58.55a28.3,28.3,0,0,0-14.2-3.68c-16.2,0-28.92,12.51-28.92,28.5A28.25,28.25,0,0,0,383.79,112a25.13,25.13,0,0,0,14.94-4.83v4.1ZM372.12,83.37c0-8,6.31-14.1,14.62-14.1a17.22,17.22,0,0,1,11.78,4.32V93a16.36,16.36,0,0,1-11.78,4.42c-8.2,0-14.62-6.1-14.62-14.09m68.93,27.87h18.09V82.42h30.29v28.82h18.09V37.62H489.43V65.91H459.14V37.62H441.05v73.62Zm92.44.94c6,0,10.84-1.26,15.36-4.31v3.37h16.82V75.58c0-13.56-9.15-21-24.39-21-8.52,0-16.94,2-26,6.1l6.1,12.52c6.52-2.74,12-4.42,16.83-4.42,7,0,10.62,2.73,10.62,8.31v2.73a49.53,49.53,0,0,0-12.62-1.58c-14.31,0-22.93,6-22.93,16.73,0,9.78,7.78,17.24,20.19,17.24m-5.2-17.56c0-3.68,3.69-5.47,9.26-5.47a43.12,43.12,0,0,1,10.1,1.26v7.15A21.51,21.51,0,0,1,537,100.19c-5.47,0-8.73-2.1-8.73-5.57m53-.32c0,11.89,7.15,17.67,20.19,17.67a52.11,52.11,0,0,0,11.89-1.68V96.51a24.84,24.84,0,0,1-7.68,1.16c-5.37,0-7.36-1.68-7.36-6.73V69.8h15.56V55.6H598.28v-18l-17,3.68V55.6H570V69.8h11.26V94.3Z"/><path class="cls-1" d="M257.14,372.28v77H243.77V388.93h-.22l-23.91,60.39h-8.86l-24.5-60.39h-.16v60.39H173.76v-77h19.18l22.14,57.11h.32l23.37-57.11Zm11.19,5.85a7.1,7.1,0,0,1,2.34-5.4,7.88,7.88,0,0,1,5.56-2.17,7.74,7.74,0,0,1,5.69,2.23,7.22,7.22,0,0,1,2.26,5.34,7,7,0,0,1-2.31,5.32,7.94,7.94,0,0,1-5.64,2.15,7.85,7.85,0,0,1-5.62-2.17A7.07,7.07,0,0,1,268.33,378.13Zm14.35,16v55.23h-13V394.09Zm39.43,45.77a17.86,17.86,0,0,0,6.39-1.34A26.94,26.94,0,0,0,335,435v12.08a25.9,25.9,0,0,1-7.06,2.69,38.55,38.55,0,0,1-8.68.91q-12.19,0-19.83-7.71t-7.62-19.69q0-13.32,7.79-21.94t22.08-8.63a30.48,30.48,0,0,1,7.38.94,25,25,0,0,1,5.94,2.18v12.46a27.24,27.24,0,0,0-6.15-3.41,17.91,17.91,0,0,0-6.42-1.21,16.3,16.3,0,0,0-12.41,5q-4.73,5-4.73,13.48t4.54,13.06Q314.33,439.87,322.11,439.86ZM372,393.18a16.78,16.78,0,0,1,2.79.21,11.38,11.38,0,0,1,2.1.54v13.16a11.46,11.46,0,0,0-3-1.42,14.66,14.66,0,0,0-4.75-.67,10.1,10.1,0,0,0-8.09,4q-3.3,4-3.3,12.41v27.88h-13V394.09h13v8.7h.21a15.27,15.27,0,0,1,5.38-7.06A14.57,14.57,0,0,1,372,393.18Zm5.59,29.33q0-13.69,7.74-21.7t21.49-8q12.94,0,20.22,7.71t7.28,20.82q0,13.43-7.73,21.38t-21.06,8q-12.84,0-20.39-7.54T377.56,422.51Zm13.54-.43q0,8.66,3.92,13.22t11.23,4.56q7.1,0,10.8-4.56t3.7-13.54q0-8.92-3.84-13.46t-10.77-4.54q-7.14,0-11.09,4.76T391.1,422.08Zm62.53-13.48a5.56,5.56,0,0,0,1.78,4.38c1.18,1,3.79,2.39,7.84,4q7.78,3.12,10.93,7a14.53,14.53,0,0,1,3.15,9.43,15.19,15.19,0,0,1-6,12.52q-6,4.72-16.2,4.72a38.6,38.6,0,0,1-7.6-.83,33.66,33.66,0,0,1-7.07-2.12V434.92a31.85,31.85,0,0,0,7.63,3.92,22.26,22.26,0,0,0,7.41,1.45q4.41,0,6.51-1.23a4.42,4.42,0,0,0,2.09-4.14,5.75,5.75,0,0,0-2.17-4.54q-2.19-1.85-8.25-4.27-7.2-3-10.21-6.77a14.8,14.8,0,0,1-3-9.56,15.12,15.12,0,0,1,5.94-12.28q5.93-4.8,15.39-4.81a37.27,37.27,0,0,1,6.5.65,28.71,28.71,0,0,1,6,1.66v12.36a27.44,27.44,0,0,0-6-2.95,19.93,19.93,0,0,0-6.82-1.24,9.94,9.94,0,0,0-5.78,1.45A4.6,4.6,0,0,0,453.63,408.6Zm29.28,13.91q0-13.69,7.74-21.7t21.49-8q12.95,0,20.23,7.71t7.28,20.82q0,13.43-7.74,21.38t-21.06,8q-12.84,0-20.39-7.54T482.91,422.51Zm13.54-.43q0,8.66,3.92,13.22t11.23,4.56q7.1,0,10.8-4.56t3.71-13.54q0-8.92-3.84-13.46c-2.56-3-6.16-4.54-10.77-4.54q-7.15,0-11.1,4.76T496.45,422.08Zm86.33-17.35H563.42v44.59H550.25V404.73H541V394.09h9.24v-7.68a19.12,19.12,0,0,1,5.67-14.27q5.67-5.55,14.53-5.56a32.63,32.63,0,0,1,4.2.24,17.44,17.44,0,0,1,3.22.73v11.23a12.71,12.71,0,0,0-2.26-.91,11.62,11.62,0,0,0-3.7-.54,7.86,7.86,0,0,0-6.29,2.55q-2.21,2.55-2.2,7.55v6.66h19.36V381.68l13.06-4v16.39H609v10.64H595.84v25.84c0,3.4.61,5.8,1.85,7.2s3.18,2.09,5.83,2.09a8.57,8.57,0,0,0,2.71-.53A12.94,12.94,0,0,0,609,438v10.74a15.08,15.08,0,0,1-4.11,1.29,27.73,27.73,0,0,1-5.67.59q-8.22,0-12.33-4.37t-4.11-13.2Z"/><rect class="cls-1" x="6.84" y="346.6" width="61.02" height="61.02"/><rect class="cls-1" x="74.22" y="346.6" width="61.02" height="61.02"/><rect class="cls-1" x="6.84" y="413.98" width="61.02" height="61.02"/><rect class="cls-1" x="74.22" y="413.98" width="61.02" height="61.02"/><rect class="cls-1" x="6.84" y="346.6" width="61.02" height="61.02"/><rect class="cls-1" x="74.22" y="346.6" width="61.02" height="61.02"/><rect class="cls-1" x="6.84" y="413.98" width="61.02" height="61.02"/><rect class="cls-1" x="74.22" y="413.98" width="61.02" height="61.02"/></svg>