<svg xmlns="http://www.w3.org/2000/svg" viewBox="0 0 615.84 453.8"><defs><style>.cls-1{fill:#fff;}</style></defs><title>Logo-Red_Hat-IBM-B-White-RGB</title><g id="Lockup_A" data-name="Lockup A"><path id="Divider" class="cls-1" d="M2,232a2.25,2.25,0,0,1,2.25-2.25H611.59a2.25,2.25,0,0,1,0,4.5H4.25A2.25,2.25,0,0,1,2,232Z"/><g id="Red_Hat_Logo" data-name="Red Hat Logo"><path class="cls-1" d="M129,85c12.51,0,30.61-2.59,30.61-17.47a14,14,0,0,0-.31-3.42l-7.45-32.36c-1.72-7.11-3.23-10.35-15.73-16.6C126.39,10.19,105.26,2,99,2c-5.82,0-7.55,7.54-14.45,7.54-6.68,0-11.64-5.6-17.89-5.6-6,0-9.91,4.1-12.93,12.5,0,0-8.41,23.72-9.49,27.16A6.46,6.46,0,0,0,44,45.55C44,54.76,80.33,85,129,85m32.55-11.43c1.73,8.19,1.73,9.05,1.73,10.13,0,14-15.74,21.77-36.43,21.77C80,105.47,39.08,78.1,39.08,60a18.45,18.45,0,0,1,1.51-7.33C23.77,53.52,2,56.54,2,75.73,2,107.2,76.59,146,135.65,146c45.28,0,56.7-20.48,56.7-36.64,0-12.73-11-27.17-30.83-35.79"/><path class="cls-1" d="M581.24,94.31c0,11.88,7.15,17.66,20.19,17.66a52.11,52.11,0,0,0,11.89-1.68V96.51a24.55,24.55,0,0,1-7.68,1.16c-5.37,0-7.36-1.68-7.36-6.73V69.8h15.56V55.6H598.28v-18l-17,3.68V55.6H570V69.8h11.25Zm-53,.31c0-3.68,3.69-5.47,9.26-5.47a43.12,43.12,0,0,1,10.1,1.26v7.16A21.61,21.61,0,0,1,537,100.19c-5.47,0-8.73-2.1-8.73-5.57m5.2,17.56c6,0,10.84-1.26,15.36-4.31v3.37h16.82V75.59c0-13.57-9.15-21-24.39-21-8.52,0-16.94,2-26,6.1l6.1,12.52c6.52-2.74,12-4.42,16.83-4.42,7,0,10.62,2.73,10.62,8.31v2.73a49.53,49.53,0,0,0-12.62-1.58c-14.31,0-22.93,6-22.93,16.73,0,9.78,7.78,17.24,20.19,17.24m-92.44-.94h18.09V82.42h30.29v28.82h18.09V37.62H489.43V65.91H459.14V37.62H441.05ZM372.12,83.37c0-8,6.31-14.09,14.62-14.09a17.22,17.22,0,0,1,11.78,4.31V93a16.36,16.36,0,0,1-11.78,4.42c-8.2,0-14.62-6.1-14.62-14.09m26.61,27.87h16.83V33.94l-17,3.68V58.55a28.3,28.3,0,0,0-14.2-3.68c-16.2,0-28.92,12.51-28.92,28.5A28.25,28.25,0,0,0,383.79,112a25.13,25.13,0,0,0,14.94-4.83Zm-77.19-42.7c5.36,0,9.88,3.47,11.67,8.83H310c1.68-5.57,5.89-8.83,11.57-8.83M292.83,83.47c0,16.2,13.25,28.82,30.28,28.82,9.36,0,16.2-2.52,23.25-8.41l-11.26-10c-2.63,2.74-6.52,4.21-11.14,4.21a14.39,14.39,0,0,1-13.68-8.83h39.65V85.05c0-17.67-11.88-30.39-28.08-30.39a28.57,28.57,0,0,0-29,28.81M263.48,53.08c6,0,9.36,3.79,9.36,8.31s-3.36,8.31-9.36,8.31H245.61V53.08Zm-36,58.16h18.09V84.42h13.77l13.89,26.82h20.19l-16.2-29.45a22.27,22.27,0,0,0,13.88-20.72c0-13.25-10.41-23.45-26-23.45H227.52Z"/></g><polygon class="cls-1" points="460.4 336.79 409.76 336.79 412.88 328 460.4 328 460.4 336.79 460.4 336.79"/><path class="cls-1" d="M325.42,328h47l3.08,8.81s-50.09,0-50.09,0,0-8.81,0-8.81Z"/><path class="cls-1" d="M288.07,328a33.7,33.7,0,0,1,20.23,8.8s-85.22,0-85.22,0V328Z"/><polygon class="cls-1" points="215.41 336.78 156.2 336.78 156.2 328 215.41 328 215.41 336.78 215.41 336.78"/><path class="cls-1" d="M460.4,353.27H404s3.08-8.74,3.06-8.75H460.4v8.75Z"/><polygon class="cls-1" points="381.32 353.28 325.42 353.28 325.42 344.52 378.25 344.52 381.32 353.28 381.32 353.28"/><path class="cls-1" d="M314.93,344.52c1.12,2.9,2.46,5.36,2.46,8.75h-94.3v-8.75Z"/><polygon class="cls-1" points="215.41 353.27 156.2 353.27 156.2 344.52 215.41 344.52 215.41 353.27 215.41 353.27"/><polygon class="cls-1" points="398.19 369.8 401.29 361.02 443.65 361.03 443.65 369.78 398.19 369.8 398.19 369.8"/><polygon class="cls-1" points="384.05 361.02 387.12 369.8 342.08 369.8 342.08 361.02 384.05 361.02 384.05 361.02"/><path class="cls-1" d="M318.13,361a28.81,28.81,0,0,1-1.24,8.78H291.07V361Z"/><polygon class="cls-1" points="198.15 369.8 172.7 369.8 172.7 361.06 198.15 361.06 198.15 369.8 198.15 369.8"/><polygon class="cls-1" points="265.63 369.8 240.23 369.8 240.23 361.02 265.63 361.02 265.63 369.8 265.63 369.8"/><path class="cls-1" d="M367.11,379.29V386h-25v-8.74h47.69l3,8.15s2.85-8.17,2.87-8.15h48V386H418.75l0-6.66-2.3,6.66h-47l-2.29-6.65Z"/><path class="cls-1" d="M240.23,377.2h72.93a33,33,0,0,1-7.24,8.75H240.23V377.2Z"/><polygon class="cls-1" points="198.15 385.95 172.7 385.95 172.7 377.2 198.15 377.2 198.15 385.95 198.15 385.95"/><polygon class="cls-1" points="443.64 402.45 418.75 402.45 418.75 393.69 443.64 393.69 443.64 402.45 443.64 402.45"/><path class="cls-1" d="M367.11,393.69h-25v8.76h25s0-8.76,0-8.76Z"/><path class="cls-1" d="M413.71,393.69c-.1,0-2.9,8.76-3,8.76H375.21s-3.12-8.76-3.12-8.76Z"/><path class="cls-1" d="M240.22,393.69h65.56a42.7,42.7,0,0,1,7.83,8.76H240.23v-8.76Z"/><path class="cls-1" d="M198.15,402.45v-8.76h-25.4v8.76Z"/><polygon class="cls-1" points="443.64 418.92 418.75 418.92 418.75 410.18 443.64 410.18 443.64 418.92 443.64 418.92"/><polygon class="cls-1" points="367.11 418.92 342.08 418.92 342.08 410.18 367.11 410.18 367.11 418.92 367.11 418.92"/><path class="cls-1" d="M404.85,419c0-.05,3.09-8.8,3.12-8.8H377.83c-.06,0,3.08,8.75,3.08,8.75s23.94.08,23.94.05Z"/><path class="cls-1" d="M240.23,418.91s0-8.74,0-8.74H266s0,8.75,0,8.75Z"/><path class="cls-1" d="M317.22,410.17c1.25,2.65,1.37,5.78,1.62,8.8H291.53v-8.8Z"/><polygon class="cls-1" points="198.15 418.92 172.75 418.92 172.75 410.18 198.15 410.18 198.15 418.92 198.15 418.92"/><polygon class="cls-1" points="460.4 435.07 418.75 435.07 418.75 426.33 460.4 426.33 460.4 435.07 460.4 435.07"/><polygon class="cls-1" points="367.11 435.07 325.4 435.07 325.4 426.33 367.11 426.33 367.11 435.07 367.11 435.07"/><polygon class="cls-1" points="399.25 435.07 386.54 435.07 383.49 426.33 402.2 426.33 399.25 435.07 399.25 435.07"/><path class="cls-1" d="M156.2,426.32v8.75h59.16s0-8.74,0-8.74Z"/><path class="cls-1" d="M317.76,426.32c-.62,2.9-1.19,6.41-3.29,8.75H223.09v-8.75Z"/><polygon class="cls-1" points="393.51 451.58 392.32 451.58 389.35 442.82 396.55 442.82 393.51 451.58 393.51 451.58"/><polygon class="cls-1" points="460.4 451.6 418.75 451.6 418.75 442.82 460.4 442.82 460.4 451.6 460.4 451.6"/><path class="cls-1" d="M223.08,451.58v-8.76l85.72,0a32.41,32.41,0,0,1-22.1,8.76l-63.61,0"/><polygon class="cls-1" points="367.11 451.6 325.4 451.6 325.4 442.82 367.11 442.82 367.11 451.6 367.11 451.6"/><path class="cls-1" d="M215.36,442.86s0,8.72,0,8.72-59.14,0-59.16,0,0-8.78,0-8.78,59.13.06,59.15,0Z"/><path class="cls-1" d="M489.85,438.85c.49,0,.95,0,1.39-.05a3.47,3.47,0,0,0,1.17-.28,1.85,1.85,0,0,0,.82-.7,2.46,2.46,0,0,0,.3-1.32,2.09,2.09,0,0,0-.27-1.14,1.89,1.89,0,0,0-.7-.65,3,3,0,0,0-1-.31,8.44,8.44,0,0,0-1.11-.09h-2.88v4.54Zm1-6.3a5.8,5.8,0,0,1,3.74,1,3.77,3.77,0,0,1,1.21,3,3.44,3.44,0,0,1-1.08,2.8,4.78,4.78,0,0,1-2.65,1.05l4,6.28h-2.35l-3.84-6.1h-2.31v6.1h-2.23V432.55Zm-10,11.2a9.92,9.92,0,0,0,2.1,3.29,9.66,9.66,0,0,0,3.16,2.2,9.79,9.79,0,0,0,4,.79,9.58,9.58,0,0,0,3.9-.79,10,10,0,0,0,5.25-5.49,11.2,11.2,0,0,0,.75-4.14,10.89,10.89,0,0,0-.75-4.06,9.87,9.87,0,0,0-5.25-5.44,9.58,9.58,0,0,0-3.9-.8,9.85,9.85,0,0,0-7.12,3,10,10,0,0,0-2.1,3.27,10.9,10.9,0,0,0-.76,4.06,11.21,11.21,0,0,0,.76,4.14Zm-2-8.9a12.13,12.13,0,0,1,2.64-3.83,12.34,12.34,0,0,1,3.88-2.55,12.18,12.18,0,0,1,15.87,6.38,11.84,11.84,0,0,1,1,4.78,12.11,12.11,0,0,1-1,4.85,12.24,12.24,0,0,1-2.63,3.86,11.67,11.67,0,0,1-3.84,2.55,12.59,12.59,0,0,1-9.4,0,11.84,11.84,0,0,1-3.88-2.55,12.26,12.26,0,0,1-2.64-3.86,11.94,11.94,0,0,1-1-4.85,11.67,11.67,0,0,1,1-4.78Z"/></g></svg>