<svg id="Layer_1" data-name="Layer 1" xmlns="http://www.w3.org/2000/svg" viewBox="0 0 615.84 514"><defs><style>.cls-1{fill:#fff;}</style></defs><title>Logo-Red_Hat-Microsoft_Azure-B-White-RGb</title><path class="cls-1" d="M611.79,233.86H4.05a2.25,2.25,0,0,1,0-4.5H611.79a2.25,2.25,0,0,1,0,4.5Z"/><path class="cls-1" d="M161.52,73.57c1.73,8.19,1.73,9.05,1.73,10.13,0,14-15.74,21.77-36.43,21.77C80,105.47,39.08,78.1,39.08,60a18.45,18.45,0,0,1,1.51-7.33C23.77,53.52,2,56.54,2,75.72,2,107.2,76.59,146,135.65,146c45.28,0,56.7-20.48,56.7-36.65,0-12.72-11-27.16-30.83-35.78M129,85c12.51,0,30.61-2.58,30.61-17.46a14,14,0,0,0-.31-3.42l-7.45-32.36c-1.72-7.12-3.23-10.35-15.73-16.6C126.38,10.19,105.26,2,99,2c-5.82,0-7.55,7.54-14.45,7.54-6.68,0-11.64-5.6-17.89-5.6-6,0-9.91,4.09-12.93,12.5,0,0-8.41,23.72-9.49,27.16A6.43,6.43,0,0,0,44,45.54C44,54.76,80.33,85,129,85"/><path class="cls-1" d="M227.52,111.24h18.09V84.42h13.77l13.89,26.82h20.19l-16.2-29.45a22.27,22.27,0,0,0,13.88-20.72c0-13.25-10.41-23.45-26-23.45H227.52v73.62Zm36-58.16c6,0,9.36,3.78,9.36,8.31s-3.36,8.31-9.36,8.31H245.61V53.08Zm29.35,30.39c0,16.2,13.25,28.82,30.28,28.82,9.36,0,16.2-2.53,23.25-8.42l-11.26-10c-2.63,2.74-6.52,4.21-11.14,4.21a14.39,14.39,0,0,1-13.68-8.83h39.65V85.05c0-17.67-11.88-30.39-28.08-30.39a28.57,28.57,0,0,0-29,28.81m28.71-14.93c5.36,0,9.88,3.47,11.67,8.83H310c1.68-5.57,5.89-8.83,11.57-8.83m77.19,42.7h16.83V33.94l-17,3.68V58.55a28.3,28.3,0,0,0-14.2-3.68c-16.2,0-28.92,12.51-28.92,28.5A28.25,28.25,0,0,0,383.79,112a25.13,25.13,0,0,0,14.94-4.83v4.1ZM372.12,83.37c0-8,6.31-14.1,14.62-14.1a17.22,17.22,0,0,1,11.78,4.32V93a16.36,16.36,0,0,1-11.78,4.42c-8.2,0-14.62-6.1-14.62-14.09m68.93,27.87h18.09V82.42h30.29v28.82h18.09V37.62H489.43V65.91H459.14V37.62H441.05v73.62Zm92.44.94c6,0,10.84-1.26,15.36-4.31v3.37h16.82V75.58c0-13.56-9.15-21-24.39-21-8.52,0-16.94,2-26,6.1l6.1,12.52c6.52-2.74,12-4.42,16.83-4.42,7,0,10.62,2.73,10.62,8.31v2.73a49.53,49.53,0,0,0-12.62-1.58c-14.31,0-22.93,6-22.93,16.73,0,9.78,7.78,17.24,20.19,17.24m-5.2-17.56c0-3.68,3.69-5.47,9.26-5.47a43.12,43.12,0,0,1,10.1,1.26v7.15A21.51,21.51,0,0,1,537,100.19c-5.47,0-8.73-2.1-8.73-5.57m53-.32c0,11.89,7.15,17.67,20.19,17.67a52.11,52.11,0,0,0,11.89-1.68V96.51a24.84,24.84,0,0,1-7.68,1.16c-5.37,0-7.36-1.68-7.36-6.73V69.8h15.56V55.6H598.28v-18l-17,3.68V55.6H570V69.8h11.26V94.3Z"/><path class="cls-1" d="M255.07,442,281,510.8H267.82l-6.09-17.07H234.64l-5.85,17.07h-13L241.64,442ZM248,454.79l-10.17,29h20.62l-10.12-29Z"/><path class="cls-1" d="M286.78,461.51h39.37v4.65L300.3,501.59h26v9.21H285v-5.51l25.46-34.58H286.78Z"/><path class="cls-1" d="M375.67,461.51V510.8H364v-6.47h-.19a15.79,15.79,0,0,1-6.16,5.25,19.45,19.45,0,0,1-8.66,1.89q-8.58,0-13.07-4.87t-4.48-15.12v-30h11.75v28.58c0,4.15.82,7.28,2.47,9.37s4.13,3.14,7.46,3.14a9.88,9.88,0,0,0,7.91-3.48,13.47,13.47,0,0,0,3-9.08V461.51Z"/><path class="cls-1" d="M410.61,460.69a15.61,15.61,0,0,1,2.5.19,11.22,11.22,0,0,1,1.87.48v11.75a10.17,10.17,0,0,0-2.66-1.27,13.23,13.23,0,0,0-4.25-.6,9,9,0,0,0-7.22,3.6c-2,2.39-2.94,6.09-2.94,11.07V510.8H386.3V461.51h11.61v7.76h.19a13.59,13.59,0,0,1,4.79-6.3A13,13,0,0,1,410.61,460.69Z"/><path class="cls-1" d="M456.75,498.38v9.54a25.09,25.09,0,0,1-7.53,2.95,42.12,42.12,0,0,1-9.93,1.13q-11.27,0-17.53-6.66t-6.25-18.56q0-11.46,6.69-18.87a21.83,21.83,0,0,1,16.95-7.41q10.22,0,15.89,6.26T460.73,484v5.62H427q.76,7.43,4.77,10.37a17,17,0,0,0,10.33,3,24.77,24.77,0,0,0,8-1.28A25.41,25.41,0,0,0,456.75,498.38Zm-7.44-17.21c0-3.84-.88-6.77-2.66-8.78a9.47,9.47,0,0,0-7.5-3,10.83,10.83,0,0,0-7.48,3q-3.32,3-4.41,8.8Z"/><path class="cls-1" d="M294.25,347.5v68.76H282.31v-53.9h-.19l-21.34,53.9h-7.91L231,362.36h-.14v53.9h-11V347.5H237l19.75,51H257l20.86-51Zm10,5.23a6.31,6.31,0,0,1,2.08-4.82,7.39,7.39,0,0,1,10.05,0,6.49,6.49,0,0,1,2,4.78,6.23,6.23,0,0,1-2.06,4.74,7.12,7.12,0,0,1-5,1.92,7,7,0,0,1-5-1.94A6.27,6.27,0,0,1,304.24,352.73ZM317,367v49.29H305.43V367Zm35.2,40.85a16.21,16.21,0,0,0,5.7-1.19,24.08,24.08,0,0,0,5.76-3.17v10.79a23.78,23.78,0,0,1-6.31,2.4,34.57,34.57,0,0,1-7.74.81q-10.89,0-17.7-6.88T325.14,393q0-11.89,7-19.59t19.71-7.7a26.89,26.89,0,0,1,6.59.84,22.31,22.31,0,0,1,5.3,1.94v11.13a23.79,23.79,0,0,0-5.49-3.05,15.82,15.82,0,0,0-5.73-1.08A14.55,14.55,0,0,0,341.4,380q-4.22,4.47-4.22,12t4.05,11.65Q345.28,407.82,352.24,407.82Zm44.5-41.67a15.57,15.57,0,0,1,2.49.19,10.73,10.73,0,0,1,1.87.48v11.75a10,10,0,0,0-2.66-1.27,13.17,13.17,0,0,0-4.24-.6,9,9,0,0,0-7.22,3.6q-3,3.6-3,11.08v24.88H372.42V367H384v7.77h.19a13.58,13.58,0,0,1,4.8-6.31A13,13,0,0,1,396.74,366.15Zm5,26.18q0-12.22,6.9-19.37t19.18-7.14q11.56,0,18.06,6.88t6.5,18.58q0,12-6.91,19.09t-18.8,7.09q-11.46,0-18.19-6.74T401.73,392.33Zm12.08-.38q0,7.73,3.5,11.8t10,4.07q6.33,0,9.63-4.07t3.31-12.09q0-7.95-3.43-12t-9.61-4q-6.37,0-9.9,4.24T413.81,392Zm55.82-12a5,5,0,0,0,1.58,3.9q1.59,1.43,7,3.58,7,2.78,9.76,6.25a13,13,0,0,1,2.81,8.42,13.54,13.54,0,0,1-5.35,11.17q-5.35,4.23-14.46,4.22a35.19,35.19,0,0,1-6.78-.74,30.42,30.42,0,0,1-6.31-1.9V403.41a28.5,28.5,0,0,0,6.81,3.5,19.79,19.79,0,0,0,6.62,1.3,11.73,11.73,0,0,0,5.8-1.11,3.92,3.92,0,0,0,1.87-3.69,5.13,5.13,0,0,0-1.94-4.05,29.08,29.08,0,0,0-7.36-3.81q-6.44-2.69-9.11-6a13.2,13.2,0,0,1-2.69-8.54,13.5,13.5,0,0,1,5.3-11q5.29-4.29,13.74-4.29a32.66,32.66,0,0,1,5.8.58,25.88,25.88,0,0,1,5.37,1.48v11a24.87,24.87,0,0,0-5.37-2.64,18.07,18.07,0,0,0-6.09-1.1,8.79,8.79,0,0,0-5.15,1.3A4.08,4.08,0,0,0,469.63,379.92Zm26.13,12.41q0-12.22,6.91-19.37t19.18-7.14q11.55,0,18,6.88t6.5,18.58q0,12-6.9,19.09t-18.8,7.09q-11.46,0-18.2-6.74T495.76,392.33Zm12.09-.38q0,7.73,3.5,11.8t10,4.07q6.33,0,9.64-4.07t3.31-12.09q0-7.95-3.43-12t-9.62-4q-6.37,0-9.9,4.24T507.85,392Zm77-15.49H567.62v39.8H555.87v-39.8h-8.25V367h8.25v-6.86a17,17,0,0,1,5.06-12.73,17.72,17.72,0,0,1,13-5,29.68,29.68,0,0,1,3.74.21,15.34,15.34,0,0,1,2.88.65v10a12.75,12.75,0,0,0-2-.81,10.44,10.44,0,0,0-3.31-.48,7,7,0,0,0-5.61,2.27q-2,2.28-2,6.74v6H584.9V355.89l11.65-3.55V367H608.3v9.49H596.55v23.07q0,4.56,1.66,6.42t5.2,1.87a7.74,7.74,0,0,0,2.42-.48,11.31,11.31,0,0,0,2.47-1.15v9.59a13.46,13.46,0,0,1-3.67,1.15,24.45,24.45,0,0,1-5.06.53q-7.34,0-11-3.91t-3.67-11.77Z"/><rect class="cls-1" x="7.54" y="347.5" width="77.61" height="77.61"/><rect class="cls-1" x="93.23" y="347.5" width="77.61" height="77.61"/><rect class="cls-1" x="7.54" y="433.19" width="77.61" height="77.61"/><rect class="cls-1" x="93.23" y="433.19" width="77.61" height="77.61"/><rect class="cls-1" x="7.54" y="347.5" width="77.61" height="77.61"/><rect class="cls-1" x="93.23" y="347.5" width="77.61" height="77.61"/><rect class="cls-1" x="7.54" y="433.19" width="77.61" height="77.61"/><rect class="cls-1" x="93.23" y="433.19" width="77.61" height="77.61"/></svg>