<svg id="Layer_1" data-name="Layer 1" xmlns="http://www.w3.org/2000/svg" viewBox="0 0 1645.52 148"><defs><style>.cls-1{fill:#e00;}.cls-2{fill:#737374;}.cls-3{fill:#f25022;}.cls-4{fill:#7fba00;}.cls-5{fill:#00a4ef;}.cls-6{fill:#ffb900;}.cls-7{fill:#ef5024;}.cls-8{fill:#80b942;}.cls-9{fill:#309ed8;}.cls-10{fill:#fcb614;}</style></defs><title>Logo-Red_Hat-Microsoft_Azure-A-Standard-RGB</title><path d="M699.5,146.07a2.25,2.25,0,0,1-2.25-2.25V4.18a2.25,2.25,0,1,1,4.5,0V143.82A2.25,2.25,0,0,1,699.5,146.07Z"/><path class="cls-1" d="M161.52,73.57c1.73,8.19,1.73,9.05,1.73,10.13,0,14-15.74,21.77-36.43,21.77C80,105.47,39.08,78.1,39.08,60a18.28,18.28,0,0,1,1.51-7.33C23.77,53.52,2,56.54,2,75.72,2,107.2,76.59,146,135.65,146c45.27,0,56.7-20.48,56.7-36.65,0-12.72-11-27.16-30.83-35.78M129,85c12.51,0,30.61-2.58,30.61-17.46a14,14,0,0,0-.31-3.42l-7.45-32.36c-1.72-7.12-3.23-10.35-15.73-16.6C126.38,10.19,105.26,2,99,2c-5.82,0-7.55,7.54-14.45,7.54-6.68,0-11.64-5.6-17.89-5.6-6,0-9.91,4.09-12.93,12.5,0,0-8.41,23.72-9.49,27.16A6.43,6.43,0,0,0,44,45.54C44,54.76,80.32,85,129,85"/><path d="M161.52,73.57c1.73,8.19,1.73,9.05,1.73,10.13,0,14-15.74,21.77-36.43,21.77C80,105.47,39.08,78.1,39.08,60a18.28,18.28,0,0,1,1.51-7.33l3.66-9.06A6.43,6.43,0,0,0,44,45.54C44,54.76,80.32,85,129,85c12.51,0,30.61-2.58,30.61-17.46a14,14,0,0,0-.31-3.42l2.25,9.46Z"/><path d="M227.52,111.24H245.6V84.42h13.78l13.88,26.82h20.2l-16.2-29.45a22.27,22.27,0,0,0,13.88-20.72c0-13.25-10.41-23.45-26-23.45H227.52v73.62Zm36-58.16c6,0,9.36,3.78,9.36,8.31s-3.36,8.31-9.36,8.31H245.6V53.08Zm29.34,30.39c0,16.2,13.26,28.82,30.29,28.82,9.36,0,16.2-2.53,23.24-8.41l-11.25-10c-2.63,2.74-6.52,4.21-11.15,4.21a14.38,14.38,0,0,1-13.67-8.83h39.65V85.05c0-17.67-11.88-30.39-28.08-30.39a28.58,28.58,0,0,0-29,28.81m28.72-14.93c5.36,0,9.88,3.47,11.67,8.83H310c1.68-5.57,5.89-8.83,11.57-8.83m77.19,42.7h16.82V33.94l-17,3.68V58.55a28.3,28.3,0,0,0-14.2-3.68c-16.2,0-28.92,12.51-28.92,28.5A28.25,28.25,0,0,0,383.79,112a25.13,25.13,0,0,0,14.94-4.83v4.1ZM372.12,83.37c0-8,6.31-14.1,14.62-14.1a17.22,17.22,0,0,1,11.78,4.32V93a16.36,16.36,0,0,1-11.78,4.42c-8.2,0-14.62-6.1-14.62-14.09m68.93,27.87h18.09V82.42h30.29v28.82h18.09V37.62H489.43V65.91H459.14V37.62H441.05v73.62Zm92.44.94c6,0,10.83-1.26,15.36-4.31v3.37h16.82V75.58c0-13.56-9.15-21-24.4-21-8.51,0-16.93,2-26,6.1l6.1,12.52c6.52-2.74,12-4.42,16.82-4.42,7,0,10.63,2.73,10.63,8.31v2.73a49.53,49.53,0,0,0-12.62-1.58c-14.31,0-22.93,6-22.93,16.73,0,9.78,7.78,17.24,20.19,17.24m-5.2-17.56c0-3.68,3.68-5.47,9.26-5.47a43,43,0,0,1,10.09,1.26v7.15A21.45,21.45,0,0,1,537,100.19c-5.47,0-8.73-2.1-8.73-5.57m53-.32c0,11.89,7.15,17.67,20.19,17.67a52,52,0,0,0,11.88-1.68V96.51a24.73,24.73,0,0,1-7.67,1.16c-5.37,0-7.36-1.68-7.36-6.73V69.8h15.56V55.6H598.28v-18l-17,3.68V55.6H570V69.8h11.26V94.3Z"/><path class="cls-2" d="M1423.87,37.79l27.65,73.44h-14L1431,93h-28.94l-6.25,18.23h-13.93l27.66-73.44Zm-7.58,13.62-10.86,30.94h22l-10.81-30.94Z"/><path class="cls-2" d="M1457.74,58.58h42v5l-27.6,37.85h27.76v9.83h-44.15v-5.89L1483,68.42h-25.24Z"/><path class="cls-2" d="M1552.68,58.58v52.65h-12.5v-6.91h-.2a16.84,16.84,0,0,1-6.58,5.61,20.83,20.83,0,0,1-9.25,2q-9.17,0-14-5.2t-4.79-16.16v-32H1518V89.11q0,6.66,2.64,10c1.76,2.24,4.41,3.35,8,3.35a10.56,10.56,0,0,0,8.45-3.71,14.43,14.43,0,0,0,3.17-9.7V58.58Z"/><path class="cls-2" d="M1590,57.71a15.19,15.19,0,0,1,2.66.21,10.34,10.34,0,0,1,2,.51V71a10.91,10.91,0,0,0-2.84-1.36,14,14,0,0,0-4.54-.64,9.61,9.61,0,0,0-7.7,3.84q-3.15,3.84-3.15,11.83v26.58H1564V58.58h12.4v8.3h.2a14.57,14.57,0,0,1,5.12-6.74A13.91,13.91,0,0,1,1590,57.71Z"/><path class="cls-2" d="M1639.27,98v10.19a26.84,26.84,0,0,1-8,3.15,45.05,45.05,0,0,1-10.6,1.2q-12,0-18.72-7.12t-6.69-19.82q0-12.24,7.15-20.15a23.31,23.31,0,0,1,18.1-7.91q10.92,0,17,6.68t6.07,18.46v6h-36q.81,7.93,5.09,11.08t11,3.15a26.69,26.69,0,0,0,8.5-1.35A27.6,27.6,0,0,0,1639.27,98Zm-7.94-18.39q0-6.15-2.84-9.37a10.14,10.14,0,0,0-8-3.23,11.61,11.61,0,0,0-8,3.2q-3.52,3.21-4.71,9.4Z"/><path class="cls-2" d="M1023.77,37.79v73.44H1011V53.67h-.2L988,111.23h-8.45L956.21,53.67h-.15v57.56H944.28V37.79h18.28l21.1,54.44H984l22.28-54.44Zm10.66,5.58a6.73,6.73,0,0,1,2.23-5.14,7.89,7.89,0,0,1,10.73.05,6.9,6.9,0,0,1,2.15,5.09,6.66,6.66,0,0,1-2.2,5.07,7.59,7.59,0,0,1-5.38,2.05,7.46,7.46,0,0,1-5.35-2.07A6.7,6.7,0,0,1,1034.43,43.37Zm13.67,15.21v52.65h-12.39V58.58Zm37.6,43.64a17.2,17.2,0,0,0,6.09-1.28,25.89,25.89,0,0,0,6.15-3.38v11.52a24.78,24.78,0,0,1-6.74,2.56,36.76,36.76,0,0,1-8.27.87q-11.62,0-18.9-7.35t-7.27-18.77q0-12.69,7.43-20.92t21-8.22a28.7,28.7,0,0,1,7,.9,23.93,23.93,0,0,1,5.66,2.07V72.1a25.53,25.53,0,0,0-5.87-3.25A16.9,16.9,0,0,0,1086,67.7a15.56,15.56,0,0,0-11.83,4.76q-4.5,4.77-4.51,12.86t4.33,12.44Q1078.27,102.22,1085.7,102.22Zm47.52-44.51a15.39,15.39,0,0,1,2.67.21,10.23,10.23,0,0,1,2,.51V71a10.76,10.76,0,0,0-2.84-1.36,14,14,0,0,0-4.53-.64,9.63,9.63,0,0,0-7.71,3.84q-3.15,3.84-3.15,11.83v26.58h-12.39V58.58h12.39v8.3h.2a14.51,14.51,0,0,1,5.13-6.73A13.87,13.87,0,0,1,1133.22,57.71Zm5.33,28q0-13.07,7.38-20.69t20.48-7.64q12.35,0,19.29,7.35t6.94,19.85q0,12.81-7.38,20.38t-20.08,7.58q-12.24,0-19.43-7.19T1138.55,85.68Zm12.91-.41q0,8.24,3.74,12.6t10.7,4.35q6.76,0,10.3-4.35T1179.73,85q0-8.5-3.66-12.83T1165.8,67.8q-6.81,0-10.58,4.54T1151.46,85.27Zm59.61-12.86a5.34,5.34,0,0,0,1.69,4.18q1.7,1.5,7.48,3.81,7.42,3,10.42,6.68a13.87,13.87,0,0,1,3,9A14.49,14.49,0,0,1,1228,108q-5.71,4.5-15.44,4.5a37.07,37.07,0,0,1-7.25-.79,32.44,32.44,0,0,1-6.74-2V97.51a30.54,30.54,0,0,0,7.28,3.73,21.11,21.11,0,0,0,7.06,1.39q4.2,0,6.2-1.18a4.21,4.21,0,0,0,2-3.94,5.46,5.46,0,0,0-2.08-4.33q-2.07-1.77-7.86-4.07c-4.57-1.91-7.82-4.07-9.73-6.45a14.17,14.17,0,0,1-2.87-9.12,14.4,14.4,0,0,1,5.66-11.7q5.67-4.59,14.68-4.59a35.38,35.38,0,0,1,6.19.62,28,28,0,0,1,5.74,1.58V71.23a26.22,26.22,0,0,0-5.74-2.81,19,19,0,0,0-6.5-1.18,9.51,9.51,0,0,0-5.51,1.38A4.4,4.4,0,0,0,1211.07,72.41ZM1239,85.68q0-13.07,7.38-20.69t20.48-7.64q12.35,0,19.29,7.35t6.93,19.85q0,12.81-7.37,20.38t-20.08,7.58q-12.24,0-19.43-7.19T1239,85.68Zm12.91-.41q0,8.24,3.74,12.6t10.7,4.35q6.76,0,10.29-4.35T1280.16,85q0-8.5-3.66-12.83t-10.27-4.33q-6.81,0-10.58,4.54T1251.89,85.27Zm82.29-16.55h-18.46v42.51h-12.54V68.72h-8.81V58.58h8.81V51.26a18.25,18.25,0,0,1,5.4-13.6,19,19,0,0,1,13.85-5.3,31.52,31.52,0,0,1,4,.23,16.84,16.84,0,0,1,3.07.69V44a12.7,12.7,0,0,0-2.15-.87,11.21,11.21,0,0,0-3.53-.52,7.51,7.51,0,0,0-6,2.44q-2.1,2.43-2.1,7.19v6.35h18.46V46.75L1346.63,43V58.58h12.54V68.72h-12.54V93.36q0,4.86,1.76,6.86t5.56,2a8.34,8.34,0,0,0,2.59-.51,12.1,12.1,0,0,0,2.63-1.23v10.24a14.76,14.76,0,0,1-3.91,1.23,26.51,26.51,0,0,1-5.41.56q-7.83,0-11.75-4.17t-3.92-12.57Z"/><rect class="cls-3" x="785.16" y="13.31" width="58.17" height="58.17"/><rect class="cls-4" x="849.39" y="13.31" width="58.17" height="58.17"/><rect class="cls-5" x="785.16" y="77.54" width="58.17" height="58.17"/><rect class="cls-6" x="849.39" y="77.54" width="58.17" height="58.17"/><rect class="cls-7" x="785.16" y="13.31" width="58.17" height="58.17"/><rect class="cls-8" x="849.39" y="13.31" width="58.17" height="58.17"/><rect class="cls-9" x="785.16" y="77.54" width="58.17" height="58.17"/><rect class="cls-10" x="849.39" y="77.54" width="58.17" height="58.17"/></svg>