<svg id="Layer_1" data-name="Layer 1" xmlns="http://www.w3.org/2000/svg" viewBox="0 0 615.84 481.9"><defs><style>.cls-1{fill:#e00;}.cls-2{fill:#231f20;}.cls-3{fill:#fff;}</style></defs><title>Logo-Red_Hat-Lenovo-B-Standard-Black-RGB</title><path d="M611.35,233.9H4.35a2.25,2.25,0,1,1,0-4.5h607a2.25,2.25,0,0,1,0,4.5Z"/><path class="cls-1" d="M161.52,73.57c1.73,8.19,1.73,9.05,1.73,10.13,0,14-15.74,21.77-36.43,21.77C80,105.47,39.08,78.1,39.08,60a18.45,18.45,0,0,1,1.51-7.33C23.77,53.52,2,56.54,2,75.72,2,107.2,76.59,146,135.65,146c45.28,0,56.7-20.48,56.7-36.65,0-12.72-11-27.16-30.83-35.78M129,85c12.51,0,30.61-2.59,30.61-17.47a14,14,0,0,0-.31-3.42l-7.45-32.36c-1.72-7.11-3.23-10.35-15.73-16.6C126.38,10.19,105.26,2,99,2c-5.82,0-7.55,7.54-14.45,7.54-6.68,0-11.64-5.6-17.89-5.6-6,0-9.91,4.1-12.93,12.5,0,0-8.41,23.72-9.49,27.16A6.46,6.46,0,0,0,44,45.55C44,54.76,80.33,85,129,85"/><path d="M161.52,73.57c1.73,8.19,1.73,9.05,1.73,10.13,0,14-15.74,21.77-36.43,21.77C80,105.47,39.08,78.1,39.08,60a18.45,18.45,0,0,1,1.51-7.33l3.66-9.06A6.46,6.46,0,0,0,44,45.55C44,54.76,80.33,85,129,85c12.51,0,30.61-2.59,30.61-17.47a14,14,0,0,0-.31-3.42l2.25,9.46Z"/><path d="M227.52,111.24h18.09V84.42h13.77l13.89,26.82h20.19l-16.2-29.45a22.27,22.27,0,0,0,13.88-20.72c0-13.25-10.41-23.45-26-23.45H227.52v73.62Zm36-58.16c6,0,9.37,3.79,9.37,8.31s-3.37,8.31-9.37,8.31H245.61V53.08Zm29.35,30.39c0,16.2,13.25,28.82,30.28,28.82,9.36,0,16.2-2.53,23.25-8.41l-11.26-10c-2.63,2.74-6.52,4.21-11.14,4.21a14.39,14.39,0,0,1-13.68-8.83h39.65V85.05c0-17.67-11.88-30.39-28.08-30.39a28.57,28.57,0,0,0-29,28.81m28.71-14.93c5.36,0,9.88,3.47,11.67,8.83H310c1.68-5.57,5.89-8.83,11.57-8.83m77.19,42.7h16.83V33.94l-17,3.68V58.55a28.3,28.3,0,0,0-14.2-3.68c-16.2,0-28.92,12.51-28.92,28.5A28.26,28.26,0,0,0,383.8,112a25.12,25.12,0,0,0,14.93-4.83v4.1ZM372.12,83.37c0-8,6.31-14.09,14.62-14.09a17.22,17.22,0,0,1,11.78,4.31V93a16.36,16.36,0,0,1-11.78,4.42c-8.2,0-14.62-6.1-14.62-14.09m68.93,27.87h18.09V82.42h30.29v28.82h18.09V37.62H489.43V65.91H459.14V37.62H441.05v73.62Zm92.44.94c6,0,10.84-1.26,15.36-4.31v3.37h16.82V75.59c0-13.57-9.14-21-24.39-21-8.52,0-16.94,2-26,6.1l6.1,12.52c6.52-2.74,12-4.42,16.83-4.42,7,0,10.62,2.73,10.62,8.31v2.73a49.48,49.48,0,0,0-12.62-1.58c-14.31,0-22.93,6-22.93,16.73,0,9.78,7.78,17.24,20.19,17.24m-5.2-17.56c0-3.68,3.69-5.47,9.26-5.47a43.12,43.12,0,0,1,10.1,1.26v7.16A21.61,21.61,0,0,1,537,100.19c-5.46,0-8.73-2.1-8.73-5.57m53-.31c0,11.88,7.15,17.66,20.19,17.66a52.11,52.11,0,0,0,11.89-1.68V96.51a24.55,24.55,0,0,1-7.68,1.16c-5.37,0-7.36-1.68-7.36-6.73V69.8h15.56V55.6H598.28v-18l-17,3.68V55.6H570V69.8h11.26V94.31Z"/><rect class="cls-2" x="106.76" y="345.79" width="402.33" height="134.11"/><path class="cls-3" d="M282,391a21.44,21.44,0,0,0-16.83,8.27h0v-7.4H251v51.62H265.2V414.1c0-5.29,4.1-10.9,11.69-10.9,5.86,0,11.93,4.07,11.93,10.9v29.37H303v-32C303,399.6,294.5,391,282,391"/><polygon class="cls-3" points="403.73 391.86 390.92 427.02 378.1 391.86 361.91 391.86 383.15 443.45 398.68 443.45 419.92 391.86 403.73 391.86"/><path class="cls-3" d="M236,427.6c-6,4.41-9.38,5.47-14.82,5.47-4.89,0-8.72-1.52-11.43-4.19l36.24-15a28,28,0,0,0-6.19-14.41C235,393.91,227.94,391,219.36,391,203.78,391,192,402.48,192,417.67c0,15.58,11.77,26.68,28.89,26.68,9.6,0,19.4-4.55,24-9.86Zm-27.23-20.19a13.19,13.19,0,0,1,10.9-5.15,11.85,11.85,0,0,1,11,7.22l-24.76,10.28A16.63,16.63,0,0,1,208.72,407.41Z"/><polygon class="cls-3" points="190.68 430.46 158.46 430.46 158.46 376.42 144.1 376.42 144.1 443.47 190.68 443.47 190.68 430.46"/><path class="cls-3" d="M445.37,444.34c-15.5,0-27.65-11.55-27.65-26.68,0-15,12.23-26.67,27.84-26.67s27.64,11.54,27.64,26.67c0,15-12.22,26.68-27.83,26.68m0-41.21c-7.92,0-13.66,6-13.66,14.53,0,8.15,6.08,14.53,13.85,14.53s13.66-6.16,13.66-14.53c0-8.15-6.09-14.53-13.85-14.53"/><path class="cls-3" d="M336.25,444.34c-15.51,0-27.65-11.55-27.65-26.68,0-15,12.23-26.67,27.84-26.67s27.64,11.54,27.64,26.67c0,15-12.23,26.68-27.83,26.68m0-41.21c-7.92,0-13.67,6-13.67,14.53,0,8.15,6.09,14.53,13.86,14.53S350.1,426,350.1,417.66c0-8.15-6.09-14.53-13.85-14.53"/></svg>