<svg id="Layer_1" data-name="Layer 1" xmlns="http://www.w3.org/2000/svg" viewBox="0 0 1190.14 148"><defs><style>.cls-1{fill:#e00;}.cls-2{fill:#fff;}.cls-3{fill:#231f20;}</style></defs><title>Logo-Red_Hat-Lenovo-A-Reverse-Black-RGB</title><path class="cls-1" d="M161.52,73.57c1.73,8.19,1.73,9.05,1.73,10.13,0,14-15.74,21.77-36.43,21.77C80,105.47,39.08,78.1,39.08,60a18.45,18.45,0,0,1,1.51-7.33C23.77,53.52,2,56.54,2,75.72,2,107.2,76.59,146,135.65,146c45.28,0,56.7-20.48,56.7-36.65,0-12.72-11-27.16-30.83-35.78M129,85c12.51,0,30.61-2.58,30.61-17.46a14,14,0,0,0-.31-3.42l-7.45-32.36c-1.72-7.12-3.23-10.35-15.73-16.6C126.38,10.19,105.26,2,99,2c-5.82,0-7.55,7.54-14.45,7.54-6.68,0-11.64-5.6-17.89-5.6-6,0-9.91,4.09-12.93,12.5,0,0-8.41,23.72-9.49,27.16A6.43,6.43,0,0,0,44,45.54C44,54.76,80.33,85,129,85"/><path d="M161.52,73.57c1.73,8.19,1.73,9.05,1.73,10.13,0,14-15.74,21.77-36.43,21.77C80,105.47,39.08,78.1,39.08,60a18.45,18.45,0,0,1,1.51-7.33l3.66-9.06A6.43,6.43,0,0,0,44,45.54C44,54.76,80.33,85,129,85c12.51,0,30.61-2.58,30.61-17.46a14,14,0,0,0-.31-3.42l2.25,9.46Z"/><path class="cls-2" d="M227.52,111.24h18.09V84.42h13.77l13.89,26.82h20.19l-16.2-29.45a22.27,22.27,0,0,0,13.88-20.72c0-13.25-10.41-23.45-26-23.45H227.52v73.62Zm36-58.16c6,0,9.37,3.78,9.37,8.31s-3.37,8.31-9.37,8.31H245.61V53.08Zm29.35,30.39c0,16.2,13.25,28.82,30.28,28.82,9.36,0,16.2-2.53,23.25-8.41l-11.26-10c-2.63,2.74-6.52,4.21-11.14,4.21a14.39,14.39,0,0,1-13.68-8.83h39.65V85.05c0-17.67-11.88-30.39-28.08-30.39a28.57,28.57,0,0,0-29,28.81m28.71-14.93c5.36,0,9.88,3.47,11.67,8.83H310c1.68-5.57,5.89-8.83,11.57-8.83m77.19,42.7h16.83V33.94l-17,3.68V58.55a28.3,28.3,0,0,0-14.2-3.68c-16.2,0-28.92,12.51-28.92,28.5A28.26,28.26,0,0,0,383.8,112a25.12,25.12,0,0,0,14.93-4.83v4.1ZM372.12,83.37c0-8,6.31-14.1,14.62-14.1a17.22,17.22,0,0,1,11.78,4.32V93a16.36,16.36,0,0,1-11.78,4.42c-8.2,0-14.62-6.1-14.62-14.09m68.93,27.87h18.09V82.42h30.29v28.82h18.09V37.62H489.43V65.91H459.14V37.62H441.05v73.62Zm92.44.94c6,0,10.84-1.26,15.36-4.31v3.37h16.82V75.58c0-13.56-9.14-21-24.39-21-8.52,0-16.94,2-26,6.1l6.1,12.52c6.52-2.74,12-4.42,16.83-4.42,7,0,10.62,2.73,10.62,8.31v2.73a49.48,49.48,0,0,0-12.62-1.58c-14.31,0-22.93,6-22.93,16.73,0,9.78,7.78,17.24,20.19,17.24m-5.2-17.56c0-3.68,3.69-5.47,9.26-5.47a43.12,43.12,0,0,1,10.1,1.26v7.15A21.51,21.51,0,0,1,537,100.19c-5.46,0-8.73-2.1-8.73-5.57m53-.32c0,11.89,7.15,17.67,20.19,17.67a52.11,52.11,0,0,0,11.89-1.68V96.51a24.84,24.84,0,0,1-7.68,1.16c-5.37,0-7.36-1.68-7.36-6.73V69.8h15.56V55.6H598.28v-18l-17,3.68V55.6H570V69.8h11.26V94.3Z"/><rect class="cls-3" x="785.81" y="6.95" width="402.33" height="134.11"/><path class="cls-2" d="M961.08,52.14a21.47,21.47,0,0,0-16.83,8.27h0V53H930.08v51.61h14.17V75.26c0-5.29,4.1-10.91,11.69-10.91,5.86,0,11.93,4.08,11.93,10.91v29.36h14.18v-32c0-11.87-8.5-20.49-21-20.49"/><polygon class="cls-2" points="1082.78 53.01 1069.97 88.17 1057.15 53.01 1040.96 53.01 1062.2 104.61 1077.73 104.61 1098.97 53.01 1082.78 53.01"/><path class="cls-2" d="M915,88.76c-6,4.41-9.38,5.46-14.82,5.46-4.89,0-8.72-1.52-11.43-4.18L925,75A27.93,27.93,0,0,0,918.8,60.6C914,55.07,907,52.14,898.42,52.14c-15.59,0-27.34,11.5-27.34,26.68,0,15.58,11.78,26.68,28.9,26.68,9.59,0,19.39-4.54,24-9.85Zm-27.23-20.2a13.18,13.18,0,0,1,10.9-5.14,11.87,11.87,0,0,1,11,7.22L884.9,80.91A16.59,16.59,0,0,1,887.77,68.56Z"/><polygon class="cls-2" points="869.73 91.61 837.51 91.61 837.51 37.57 823.15 37.57 823.15 104.62 869.73 104.62 869.73 91.61"/><path class="cls-2" d="M1124.42,105.49c-15.5,0-27.65-11.54-27.65-26.67,0-15,12.23-26.68,27.84-26.68s27.64,11.55,27.64,26.68c0,15-12.22,26.67-27.83,26.67m0-41.2c-7.92,0-13.66,6-13.66,14.53,0,8.15,6.08,14.53,13.85,14.53,7.92,0,13.66-6.16,13.66-14.53,0-8.15-6.08-14.53-13.85-14.53"/><path class="cls-2" d="M1015.3,105.49c-15.5,0-27.65-11.54-27.65-26.67,0-15,12.23-26.68,27.84-26.68s27.64,11.55,27.64,26.68c0,15-12.23,26.67-27.83,26.67m0-41.2c-7.92,0-13.66,6-13.66,14.53,0,8.15,6.08,14.53,13.85,14.53s13.66-6.16,13.66-14.53c0-8.15-6.09-14.53-13.85-14.53"/><path class="cls-2" d="M699.51,146a2.25,2.25,0,0,1-2.25-2.25V4.25a2.25,2.25,0,0,1,4.5,0v139.5A2.25,2.25,0,0,1,699.51,146Z"/></svg>