<svg id="Elements" xmlns="http://www.w3.org/2000/svg" viewBox="0 0 1527.46 148"><defs><style>.cls-1{fill:#e00;}.cls-2{fill:#373d41;}</style></defs><title>Logo-Red_Hat-Alibaba_Cloud-English-A-Standard-RGB</title><g id="Red_Hat_Logo" data-name="Red Hat Logo"><g id="Hat_Icon" data-name="Hat Icon"><path class="cls-1" d="M161.52,73.57c1.73,8.19,1.73,9.05,1.73,10.13,0,14-15.74,21.77-36.43,21.77C80,105.47,39.08,78.1,39.08,60a18.45,18.45,0,0,1,1.51-7.33C23.77,53.52,2,56.54,2,75.72,2,107.2,76.59,146,135.65,146c45.28,0,56.7-20.48,56.7-36.65,0-12.72-11-27.16-30.83-35.78M129,85c12.51,0,30.61-2.58,30.61-17.46a14,14,0,0,0-.31-3.42l-7.45-32.36c-1.72-7.12-3.23-10.35-15.73-16.6C126.38,10.19,105.26,2,99,2c-5.82,0-7.55,7.54-14.45,7.54-6.68,0-11.64-5.6-17.89-5.6-6,0-9.91,4.09-12.93,12.5,0,0-8.41,23.72-9.49,27.16A6.43,6.43,0,0,0,44,45.54C44,54.76,80.33,85,129,85"/><path d="M161.52,73.57c1.73,8.19,1.73,9.05,1.73,10.13,0,14-15.74,21.77-36.43,21.77C80,105.47,39.08,78.1,39.08,60a18.45,18.45,0,0,1,1.51-7.33l3.66-9.06A6.43,6.43,0,0,0,44,45.54C44,54.76,80.33,85,129,85c12.51,0,30.61-2.58,30.61-17.46a14,14,0,0,0-.31-3.42l2.25,9.46Z"/></g><path id="Red_Hat_Wordmark" data-name="Red Hat Wordmark" d="M227.52,111.24h18.09V84.42h13.77l13.89,26.82h20.19l-16.2-29.45a22.27,22.27,0,0,0,13.88-20.72c0-13.25-10.41-23.45-26-23.45H227.52v73.62Zm36-58.16c6,0,9.37,3.78,9.37,8.31s-3.37,8.31-9.37,8.31H245.61V53.08Zm29.35,30.39c0,16.2,13.25,28.82,30.28,28.82,9.36,0,16.2-2.53,23.25-8.41l-11.26-10c-2.63,2.74-6.52,4.21-11.14,4.21a14.39,14.39,0,0,1-13.68-8.83h39.65V85.05c0-17.67-11.88-30.39-28.08-30.39a28.57,28.57,0,0,0-29,28.81m28.71-14.93c5.36,0,9.88,3.47,11.67,8.83H310c1.68-5.57,5.89-8.83,11.57-8.83m77.19,42.7h16.83V33.94l-17,3.68V58.55a28.3,28.3,0,0,0-14.2-3.68c-16.2,0-28.92,12.51-28.92,28.5A28.26,28.26,0,0,0,383.8,112a25.12,25.12,0,0,0,14.93-4.83v4.1ZM372.12,83.37c0-8,6.31-14.1,14.62-14.1a17.22,17.22,0,0,1,11.78,4.32V93a16.36,16.36,0,0,1-11.78,4.42c-8.2,0-14.62-6.1-14.62-14.09m68.93,27.87h18.09V82.42h30.29v28.82h18.09V37.62H489.43V65.91H459.14V37.62H441.05v73.62Zm92.44.94c6,0,10.84-1.26,15.36-4.31v3.37h16.82V75.58c0-13.56-9.14-21-24.39-21-8.52,0-16.94,2-26,6.1l6.1,12.52c6.52-2.74,12-4.42,16.83-4.42,7,0,10.62,2.73,10.62,8.31v2.73a49.48,49.48,0,0,0-12.62-1.58c-14.31,0-22.93,6-22.93,16.73,0,9.78,7.78,17.24,20.19,17.24m-5.2-17.56c0-3.68,3.69-5.47,9.26-5.47a43.12,43.12,0,0,1,10.1,1.26v7.15A21.51,21.51,0,0,1,537,100.19c-5.46,0-8.73-2.1-8.73-5.57m53-.32c0,11.89,7.15,17.67,20.19,17.67a52.11,52.11,0,0,0,11.89-1.68V96.51a24.84,24.84,0,0,1-7.68,1.16c-5.37,0-7.36-1.68-7.36-6.73V69.8h15.56V55.6H598.28v-18l-17,3.68V55.6H570V69.8h11.26V94.3Z"/></g><g id="Alibaba_English" data-name="Alibaba English"><path class="cls-2" d="M1412,56.92h-7.42a16.89,16.89,0,0,0-16.87,16.87V95.6a16.89,16.89,0,0,0,16.87,16.87H1412a16.88,16.88,0,0,0,16.86-16.87V73.79A16.88,16.88,0,0,0,1412,56.92Zm7.19,38.68a7.21,7.21,0,0,1-7.19,7.2h-7.42a7.21,7.21,0,0,1-7.2-7.2V73.79a7.2,7.2,0,0,1,7.2-7.19H1412a7.2,7.2,0,0,1,7.19,7.19Z"/><rect class="cls-2" x="1052.82" y="38.55" width="9.67" height="72.66"/><rect class="cls-2" x="1073.82" y="58.18" width="9.67" height="53.04"/><path class="cls-2" d="M1078.65,38.55a6.5,6.5,0,1,0,6.49,6.49A6.49,6.49,0,0,0,1078.65,38.55Z"/><path class="cls-2" d="M1018.14,38.55h-11.79c-4.45,7.88-15.09,29.53-26,72.67h10.07c1.7-6.6,3.38-12.63,5-18.19h35.31c1.65,5.54,3.33,11.59,5,18.19h10.07c-10.92-43.14-21.54-64.79-26-72.67ZM998.48,83.28a260,260,0,0,1,13.7-34.82h1.87c3.29,6.65,8.18,17.85,13.68,34.82Z"/><rect class="cls-2" x="1369.08" y="38.48" width="9.66" height="72.74"/><path class="cls-2" d="M1131.44,60.76c-5.3-4.18-14.17-4.92-27-2.33V38.55h-9.66v72.67h9.26a79.72,79.72,0,0,0,12.88,1.25c6.13,0,10.83-1.33,14.21-4,5.78-4.56,5.76-11.38,5.76-14.65V74.72C1136.93,71.61,1137,65.1,1131.44,60.76Zm-4.18,30.39v2.71c0,2.94-.14,5.5-2.08,7-1.78,1.4-7.87,3.2-20.7.59V68.3c14.62-3.28,19.52-1.09,21,0,1.69,1.33,1.81,3.56,1.81,6.36V91.15Z"/><path class="cls-2" d="M1319.75,69.55V56.65c0-.89.47-5.68,6.63-7.2,11.32-2.8,24.67-.7,31.37,2l2.39-9.44a65.68,65.68,0,0,0-21.93-3.56,60.16,60.16,0,0,0-14.15,1.58c-11.1,2.74-14,12.07-14,16.61V94.29c0,4.55,2.88,13.85,14,16.61a60.69,60.69,0,0,0,14.15,1.57,66.06,66.06,0,0,0,21.67-3.45l-2.39-9.44c-6.78,2.67-19.94,4.69-31.11,1.93-6.16-1.53-6.61-6.32-6.63-7.21V69.55Z"/><path class="cls-2" d="M1467.58,101.53c-12.41,2.53-17.19.75-19-.64-1.93-1.53-2.08-4.1-2.07-7V58.1h-9.68V93.83c0,3.27,0,10.08,5.76,14.65,3.38,2.66,8.08,4,14.2,4a63.39,63.39,0,0,0,11.63-1.25h8.8v-53h-9.68Z"/><path class="cls-2" d="M1525.46,38.54h-9.66V58.05c-11.77-2.14-20-1.26-25,2.71-5.51,4.35-5.5,10.85-5.49,14V93.83c0,3.27,0,10.08,5.76,14.65,3.38,2.66,8.07,4,14.2,4a63.59,63.59,0,0,0,11.65-1.25h8.57ZM1497,100.89c-1.93-1.53-2.08-4.1-2.07-7V74.71c0-2.79.12-5,1.8-6.36,1.38-1.08,5.92-3.12,19-.46v33.68C1503.53,104,1498.78,102.27,1497,100.89Z"/><path class="cls-2" d="M1179.82,60.38c-9.55-6.83-27.42-1.74-31.74-.36l2.36,9.4c5.63-1.92,18.8-4.72,23.75-1.17.9.64,1.93,1.76,1.93,4.7v6.86a50.8,50.8,0,0,0-16.51,0c-6.21,1-10.71,3.53-13.38,7.43a16,16,0,0,0-2.09,12.63c1.69,8,8.3,12.63,18.12,12.63a95.35,95.35,0,0,0,14.09-1.25h9.44V73C1185.79,66.1,1182.54,62.33,1179.82,60.38ZM1153.6,97.84a6.8,6.8,0,0,1,.62-5.17c1.39-2,4.56-3,7-3.35a41.08,41.08,0,0,1,14.93.32v11.8a83.91,83.91,0,0,1-13.86,1.36C1154.65,102.8,1153.89,99.2,1153.6,97.84Z"/><path class="cls-2" d="M1282.13,60.38c-9.56-6.83-27.43-1.74-31.75-.36l2.36,9.4c5.63-1.92,18.81-4.72,23.76-1.17.89.64,1.93,1.76,1.93,4.7v6.86a50.86,50.86,0,0,0-16.52,0c-6.21,1-10.71,3.53-13.37,7.43a16.07,16.07,0,0,0-2.1,12.63c1.7,8,8.31,12.63,18.12,12.63a95.48,95.48,0,0,0,14.1-1.25h9.44V73C1288.1,66.1,1284.84,62.33,1282.13,60.38Zm-26.22,37.46a6.8,6.8,0,0,1,.61-5.17c1.4-2,4.56-3,7-3.35a41.15,41.15,0,0,1,14.94.32v11.8a84.14,84.14,0,0,1-13.87,1.36C1257,102.8,1256.19,99.2,1255.91,97.84Z"/><path class="cls-2" d="M1233.75,60.76c-5.29-4.18-14.16-4.92-27-2.33V38.55h-9.66v72.67h9.25a79.83,79.83,0,0,0,12.89,1.25c6.13,0,10.83-1.33,14.2-4,5.78-4.56,5.77-11.38,5.76-14.65V74.72C1239.25,71.61,1239.26,65.1,1233.75,60.76Zm-4.18,23.52v6.87h0v2.71c0,2.94-.14,5.5-2.08,7-1.78,1.4-7.87,3.2-20.69.59V68.3c14.61-3.28,19.52-1.09,21,0,1.68,1.33,1.81,3.56,1.8,6.36v2.7h0Z"/><path class="cls-2" d="M854.22,112.06l-38.37-8.35a8.13,8.13,0,0,1-6.28-7.57c0-.11,0-41.23,0-41.33a8.13,8.13,0,0,1,6.28-7.57l38.37-8.35,4.11-16.27H813.62A28.47,28.47,0,0,0,785.16,51v49a28.47,28.47,0,0,0,28.46,28.35h44.71Z"/><path class="cls-2" d="M886.86,112.06l38.36-8.35a8.13,8.13,0,0,0,6.29-7.57c0-.11,0-41.23,0-41.33a8.13,8.13,0,0,0-6.29-7.57l-38.36-8.35-4.11-16.27h44.7A28.46,28.46,0,0,1,955.91,51v49a28.46,28.46,0,0,1-28.46,28.35h-44.7Z"/><rect class="cls-2" x="854.22" y="73.44" width="32.65" height="4.07"/></g><path d="M699.5,146a2.25,2.25,0,0,1-2.25-2.25V4.25a2.25,2.25,0,0,1,4.5,0v139.5A2.25,2.25,0,0,1,699.5,146Z"/></svg>