<svg id="Layer_1" data-name="Layer 1" xmlns="http://www.w3.org/2000/svg" viewBox="0 0 388 80"><defs><style>.cls-1{fill:#fff;}</style></defs><title>RedHat-Logo-Wordmark-White</title><path class="cls-1" d="M354.56,61.19c0,11.89,7.15,17.67,20.19,17.67a52.59,52.59,0,0,0,11.89-1.68V63.4A24.84,24.84,0,0,1,379,64.56c-5.37,0-7.36-1.69-7.36-6.73V36.69h15.56V22.49H371.6v-18l-17,3.68v14.3H343.31v14.2h11.25Zm-52.94.32c0-3.68,3.68-5.47,9.25-5.47A42.6,42.6,0,0,1,321,57.3v7.15a21.51,21.51,0,0,1-10.63,2.63c-5.46,0-8.72-2.1-8.72-5.57m5.19,17.56c6,0,10.84-1.26,15.36-4.31v3.36H339V42.47c0-13.57-9.15-21-24.4-21-8.52,0-16.94,2-26,6.1l6.1,12.51c6.52-2.73,12-4.41,16.83-4.41,7,0,10.62,2.73,10.62,8.3v2.74a49.48,49.48,0,0,0-12.62-1.58c-14.3,0-22.93,6-22.93,16.72,0,9.78,7.78,17.25,20.19,17.25m-92.44-.95h18.09V49.31h30.29V78.12h18.09V4.51H262.75V32.8H232.46V4.51H214.37ZM145.44,50.25c0-8,6.31-14.09,14.62-14.09a17.26,17.26,0,0,1,11.78,4.31V59.93a16.4,16.4,0,0,1-11.78,4.42c-8.2,0-14.62-6.1-14.62-14.1m26.61,27.87h16.83V.82l-17,3.69V25.43a28.37,28.37,0,0,0-14.2-3.68c-16.19,0-28.92,12.52-28.92,28.5a28.26,28.26,0,0,0,28.4,28.61A25.06,25.06,0,0,0,172.05,74ZM94.86,35.43c5.36,0,9.88,3.47,11.67,8.83H83.29c1.68-5.57,5.89-8.83,11.57-8.83M66.15,50.36c0,16.19,13.25,28.82,30.29,28.82,9.36,0,16.19-2.53,23.24-8.42l-11.26-10C105.8,63.51,101.9,65,97.28,65A14.39,14.39,0,0,1,83.6,56.14h39.65v-4.2c0-17.67-11.88-30.4-28.08-30.4a28.57,28.57,0,0,0-29,28.82M36.81,20c6,0,9.36,3.78,9.36,8.3s-3.37,8.31-9.36,8.31H18.93V20ZM.84,78.12H18.93V51.31H32.7L46.59,78.12H66.78L50.58,48.68A22.29,22.29,0,0,0,64.47,28c0-13.25-10.42-23.45-26-23.45H.84Z"/></svg>