<svg id="Elements" xmlns="http://www.w3.org/2000/svg" viewBox="0 0 1582.5 148.1"><defs><style>.cls-1{fill:#fff;}.cls-2{fill:#e00;}.cls-3{fill:#f04c23;}.cls-4{fill:#0090d3;}.cls-5{fill:#20b356;}.cls-6{fill:#fdbb2d;}</style></defs><title>Logo-Red_Hat-Google_Cloud-A-Reverse-RGB</title><path id="Divider" class="cls-1" d="M699.51,146.3a2.25,2.25,0,0,1-2.25-2.25V4.05a2.25,2.25,0,1,1,4.5,0v140A2.25,2.25,0,0,1,699.51,146.3Z"/><g id="Red_Hat_logo" data-name="Red Hat logo"><g id="Hat_icon" data-name="Hat icon"><path class="cls-2" d="M161.52,73.62c1.73,8.19,1.73,9,1.73,10.13,0,14-15.74,21.77-36.43,21.77C80,105.52,39.08,78.15,39.08,60a18.45,18.45,0,0,1,1.51-7.33C23.77,53.57,2,56.59,2,75.77c0,31.48,74.59,70.28,133.66,70.28,45.27,0,56.69-20.48,56.69-36.65,0-12.72-11-27.16-30.83-35.78M129,85c12.51,0,30.61-2.58,30.61-17.46a14,14,0,0,0-.31-3.42L151.83,31.8c-1.73-7.12-3.24-10.35-15.74-16.6-9.7-5-30.83-13.15-37.08-13.15-5.82,0-7.54,7.54-14.44,7.54C77.88,9.59,72.93,4,66.67,4c-6,0-9.91,4.09-12.93,12.5,0,0-8.41,23.72-9.49,27.16a6.46,6.46,0,0,0-.22,2C44,54.81,80.33,85,129,85"/><path d="M161.52,73.62c1.73,8.19,1.73,9,1.73,10.13,0,14-15.74,21.77-36.43,21.77C80,105.52,39.08,78.15,39.08,60a18.45,18.45,0,0,1,1.51-7.33l3.66-9.06a6.46,6.46,0,0,0-.22,2C44,54.81,80.33,85,129,85c12.51,0,30.61-2.58,30.61-17.46a14,14,0,0,0-.31-3.42l2.25,9.46Z"/></g><path id="Wordmark" class="cls-1" d="M227.52,111.29h18.09V84.47h13.78l13.88,26.82h20.19l-16.2-29.45a22.28,22.28,0,0,0,13.89-20.72c0-13.25-10.42-23.45-26-23.45H227.52v73.62Zm36-58.16c6,0,9.36,3.78,9.36,8.31s-3.37,8.31-9.36,8.31H245.61V53.13Zm29.34,30.39c0,16.2,13.25,28.82,30.29,28.82,9.36,0,16.19-2.53,23.24-8.41l-11.25-10c-2.63,2.74-6.53,4.21-11.15,4.21a14.37,14.37,0,0,1-13.67-8.83h39.64V85.1c0-17.67-11.88-30.39-28.08-30.39a28.57,28.57,0,0,0-29,28.81m28.71-14.93c5.36,0,9.88,3.47,11.67,8.83H310c1.68-5.57,5.89-8.83,11.57-8.83m77.19,42.7h16.83V34l-17,3.68V58.6a28.27,28.27,0,0,0-14.2-3.68c-16.19,0-28.92,12.51-28.92,28.5A28.26,28.26,0,0,0,383.8,112a25.1,25.1,0,0,0,14.93-4.83v4.1ZM372.12,83.42c0-8,6.31-14.1,14.62-14.1a17.2,17.2,0,0,1,11.78,4.32V93.09a16.36,16.36,0,0,1-11.78,4.42c-8.2,0-14.62-6.1-14.62-14.09m68.93,27.87h18.09V82.47h30.29v28.82h18.09V37.67H489.43V66H459.14V37.67H441.05v73.62Zm92.44.94c6,0,10.84-1.26,15.36-4.31v3.37h16.83V75.63c0-13.56-9.15-21-24.4-21-8.52,0-16.93,2-26,6.1l6.1,12.52c6.52-2.74,12-4.42,16.83-4.42,7,0,10.62,2.73,10.62,8.31v2.73a49.48,49.48,0,0,0-12.62-1.58c-14.3,0-22.93,6-22.93,16.73,0,9.78,7.78,17.24,20.19,17.24M528.3,94.67c0-3.68,3.68-5.47,9.25-5.47a43.12,43.12,0,0,1,10.1,1.26v7.16A21.6,21.6,0,0,1,537,100.24c-5.47,0-8.73-2.1-8.73-5.57m52.94-.32c0,11.89,7.15,17.67,20.19,17.67a52,52,0,0,0,11.89-1.68V96.56a24.84,24.84,0,0,1-7.68,1.16c-5.36,0-7.36-1.68-7.36-6.73V69.85h15.56V55.65H598.28v-18l-17,3.68v14.3H570v14.2h11.25v24.5Z"/></g><g id="Cloud_icon" data-name="Cloud icon"><path class="cls-3" d="M879,45.93l4.71.09L896.52,33.2l.63-5.43a57.6,57.6,0,0,0-93.9,28c1.41-1,4.39-.24,4.39-.24l25.62-4.21s1.33-2.18,2-2A32,32,0,0,1,879,45.93Z"/><path class="cls-4" d="M914.52,55.79a57.6,57.6,0,0,0-17.39-28L879,45.92a32,32,0,0,1,11.94,24.91V74a16,16,0,0,1,0,32h-32l-3.2,3.22v19.21l3.2,3.19h32a41.61,41.61,0,0,0,23.61-75.89Z"/><path class="cls-5" d="M826.86,131.68h32V106.06h-32a15.87,15.87,0,0,1-6.6-1.44L815.65,106l-12.83,12.83-1.12,4.33A41.41,41.41,0,0,0,826.86,131.68Z"/><path class="cls-6" d="M826.86,48.42a41.61,41.61,0,0,0-25.14,74.78l18.57-18.57a16,16,0,1,1,21.15-21.16L860,64.9A41.57,41.57,0,0,0,826.86,48.42Z"/></g><g id="Google_Cloud_wordmark" data-name="Google Cloud wordmark"><path class="cls-1" d="M1018,113.8a40.93,40.93,0,0,1-29.67-12.2A39.59,39.59,0,0,1,975.9,72.28,39.61,39.61,0,0,1,988.36,43,41,41,0,0,1,1018,30.76a39.72,39.72,0,0,1,28.46,11.44l-8,8A28.84,28.84,0,0,0,1018,42.1a28.49,28.49,0,0,0-21.11,8.81,29.39,29.39,0,0,0-8.66,21.37,29.39,29.39,0,0,0,8.66,21.37,28.49,28.49,0,0,0,21.11,8.81q12.66,0,21-8.3,4.95-5,6.17-14.28H1018V68.54h38.18a36,36,0,0,1,.61,7.08q0,16.71-9.82,26.54Q1035.86,113.8,1018,113.8Zm88.72-7.64a27.55,27.55,0,0,1-38.08,0,25.64,25.64,0,0,1-7.8-19.09,25.64,25.64,0,0,1,7.8-19.09,27.52,27.52,0,0,1,38.08,0,25.64,25.64,0,0,1,7.8,19.09A25.64,25.64,0,0,1,1106.75,106.16Zm-29.67-7.5a14.56,14.56,0,0,0,21.26,0,16,16,0,0,0,4.46-11.59,16.06,16.06,0,0,0-4.41-11.65,14.8,14.8,0,0,0-21.37,0,16.1,16.1,0,0,0-4.4,11.65A16,16,0,0,0,1077.08,98.66Zm88.2,7.5a27.53,27.53,0,0,1-38.07,0,25.64,25.64,0,0,1-7.8-19.09,25.64,25.64,0,0,1,7.8-19.09,27.51,27.51,0,0,1,38.07,0,25.64,25.64,0,0,1,7.8,19.09A25.64,25.64,0,0,1,1165.28,106.16Zm-29.67-7.5a14.57,14.57,0,0,0,21.27,0,16,16,0,0,0,4.45-11.59,16.1,16.1,0,0,0-4.4-11.65,14.8,14.8,0,0,0-21.37,0,16.06,16.06,0,0,0-4.41,11.65A16,16,0,0,0,1135.61,98.66Zm68.16,39.14q-8.91,0-15-4.76a27.51,27.51,0,0,1-8.71-11l10.23-4.26a17.31,17.31,0,0,0,5.06,6.69,12.8,12.8,0,0,0,8.41,2.83q6.68,0,10.48-4t3.8-11.65v-3.84h-.41q-5,6.08-14.08,6.07a24.37,24.37,0,0,1-17.92-7.8,25.81,25.81,0,0,1-7.7-18.83,26.13,26.13,0,0,1,7.7-19q7.69-7.85,17.92-7.85a19.47,19.47,0,0,1,8.26,1.72,16.66,16.66,0,0,1,5.82,4.26h.41V62h11.14v48q0,14-7.14,20.92T1203.77,137.8Zm.81-34.53a13,13,0,0,0,10.17-4.61,16.62,16.62,0,0,0,4.11-11.49,17,17,0,0,0-4.11-11.65,13,13,0,0,0-10.17-4.66A13.94,13.94,0,0,0,1194,75.52a16.42,16.42,0,0,0-4.35,11.65A16.08,16.08,0,0,0,1194,98.66,14,14,0,0,0,1204.58,103.27ZM1249,33.6v78.58h-11.75V33.6Zm32.2,80.2a25.54,25.54,0,0,1-18.94-7.69,26.05,26.05,0,0,1-7.59-19q0-11.75,7.34-19.24a24.06,24.06,0,0,1,17.87-7.5,22.79,22.79,0,0,1,9,1.77,21.24,21.24,0,0,1,6.88,4.56,30.91,30.91,0,0,1,4.36,5.42,32.68,32.68,0,0,1,2.63,5.26l1.22,3-35.75,14.79q4.14,8.1,13,8.1,8.1,0,13.16-7.39l9.12,6.07a29.7,29.7,0,0,1-8.61,8.21A24.43,24.43,0,0,1,1281.24,113.8Zm-14.89-27.54,23.9-9.93a8.28,8.28,0,0,0-3.74-4.1,12.29,12.29,0,0,0-6.18-1.57,13.92,13.92,0,0,0-9.67,4.25Q1266.15,79.17,1266.35,86.26Z"/><path class="cls-1" d="M1365.7,113.8q-16,0-26.84-10.83t-10.83-27q0-16.2,10.83-27t26.84-10.84q16.41,0,26.64,11.85l-6.49,6.28Q1378.46,47,1365.7,47a27.46,27.46,0,0,0-20,8q-8.16,8-8.15,21t8.15,21a27.46,27.46,0,0,0,20,8q13.07,0,22.28-10.53l6.48,6.48a35.31,35.31,0,0,1-12.45,9.47A38.14,38.14,0,0,1,1365.7,113.8Z"/><path class="cls-1" d="M1412.08,112.18h-9.32V39.67h9.32Z"/><path class="cls-1" d="M1427.27,68.48q7.2-7.55,18.33-7.54t18.33,7.54q7.2,7.55,7.19,18.89t-7.19,18.89q-7.18,7.55-18.33,7.54t-18.33-7.54q-7.18-7.55-7.19-18.89T1427.27,68.48Zm6.94,31.9a15.66,15.66,0,0,0,22.79,0q4.8-4.91,4.81-13t-4.81-13a15.68,15.68,0,0,0-22.79,0q-4.82,4.9-4.81,13T1434.21,100.38Z"/><path class="cls-1" d="M1522.67,112.18h-8.91V105.3h-.4a17.27,17.27,0,0,1-6.49,6,18.25,18.25,0,0,1-9.21,2.48q-9.32,0-14.13-5.67t-4.81-15.19V62.56H1488V91.42q0,13.88,12.25,13.88a11.44,11.44,0,0,0,9.42-4.66,17,17,0,0,0,3.65-10.74V62.56h9.31Z"/><path class="cls-1" d="M1554.27,113.8q-9.63,0-16.61-7.59t-7-18.84q0-11.24,7-18.83t16.61-7.6a21.13,21.13,0,0,1,10.18,2.43,17.12,17.12,0,0,1,6.73,6.08h.41l-.41-6.89V39.67h9.32v72.51h-8.91V105.3h-.41a17.17,17.17,0,0,1-6.73,6.07A21.13,21.13,0,0,1,1554.27,113.8Zm1.52-8.5a14.85,14.85,0,0,0,11.19-4.87q4.61-4.86,4.61-13.06T1567,74.31a15.2,15.2,0,0,0-22.33,0q-4.67,4.9-4.66,13t4.66,13A14.8,14.8,0,0,0,1555.79,105.3Z"/></g></svg>