<svg id="Elements" xmlns="http://www.w3.org/2000/svg" viewBox="0 0 1398.16 148"><defs><style>.cls-1{fill:#fff;}</style></defs><title>Logo-Red_Hat-Google_Cloud-A-White-RGB</title><g id="Red_Hat_logo_one_color" data-name="Red Hat logo one color"><path id="Hat_icon" data-name="Hat icon" class="cls-1" d="M161.52,73.57c1.73,8.19,1.73,9.05,1.73,10.13,0,14-15.74,21.77-36.43,21.77C80,105.47,39.08,78.1,39.08,60a18.45,18.45,0,0,1,1.51-7.33C23.77,53.52,2,56.54,2,75.72,2,107.2,76.59,146,135.65,146c45.28,0,56.7-20.48,56.7-36.65,0-12.72-11-27.16-30.83-35.78M129,85c12.51,0,30.61-2.58,30.61-17.46a14,14,0,0,0-.31-3.42l-7.45-32.36c-1.72-7.12-3.23-10.35-15.73-16.6C126.38,10.19,105.26,2,99,2c-5.82,0-7.55,7.54-14.45,7.54-6.68,0-11.64-5.6-17.89-5.6-6,0-9.91,4.09-12.93,12.5,0,0-8.41,23.72-9.49,27.16A6.43,6.43,0,0,0,44,45.54C44,54.76,80.33,85,129,85"/><path id="Wordmark" class="cls-1" d="M227.52,111.24h18.09V84.42h13.77l13.89,26.82h20.19l-16.2-29.45a22.27,22.27,0,0,0,13.88-20.72c0-13.25-10.41-23.45-26-23.45H227.52v73.62Zm36-58.16c6,0,9.36,3.78,9.36,8.31s-3.36,8.31-9.36,8.31H245.61V53.08Zm29.35,30.39c0,16.2,13.25,28.82,30.28,28.82,9.36,0,16.2-2.53,23.25-8.41l-11.26-10c-2.63,2.74-6.52,4.21-11.14,4.21a14.39,14.39,0,0,1-13.68-8.83h39.65V85.05c0-17.67-11.88-30.39-28.08-30.39a28.57,28.57,0,0,0-29,28.81m28.71-14.93c5.36,0,9.88,3.47,11.67,8.83H310c1.68-5.57,5.89-8.83,11.57-8.83m77.19,42.7h16.83V33.94l-17,3.68V58.55a28.3,28.3,0,0,0-14.2-3.68c-16.2,0-28.92,12.51-28.92,28.5A28.25,28.25,0,0,0,383.79,112a25.13,25.13,0,0,0,14.94-4.83v4.1ZM372.12,83.37c0-8,6.31-14.1,14.62-14.1a17.22,17.22,0,0,1,11.78,4.32V93a16.36,16.36,0,0,1-11.78,4.42c-8.2,0-14.62-6.1-14.62-14.09m68.93,27.87h18.09V82.42h30.29v28.82h18.09V37.62H489.43V65.91H459.14V37.62H441.05v73.62Zm92.44.94c6,0,10.84-1.26,15.36-4.31v3.37h16.82V75.58c0-13.56-9.15-21-24.39-21-8.52,0-16.94,2-26,6.1l6.1,12.52c6.52-2.74,12-4.42,16.83-4.42,7,0,10.62,2.73,10.62,8.31v2.73a49.53,49.53,0,0,0-12.62-1.58c-14.31,0-22.93,6-22.93,16.73,0,9.78,7.78,17.24,20.19,17.24m-5.2-17.56c0-3.68,3.69-5.47,9.26-5.47a43.12,43.12,0,0,1,10.1,1.26v7.15A21.51,21.51,0,0,1,537,100.19c-5.47,0-8.73-2.1-8.73-5.57m53-.32c0,11.89,7.15,17.67,20.19,17.67a52.11,52.11,0,0,0,11.89-1.68V96.51a24.84,24.84,0,0,1-7.68,1.16c-5.37,0-7.36-1.68-7.36-6.73V69.8h15.56V55.6H598.28v-18l-17,3.68V55.6H570V69.8h11.26V94.3Z"/></g><g id="Google_Cloud_One_Color" data-name="Google Cloud One Color"><path class="cls-1" d="M827.74,112.84a41.39,41.39,0,0,1-30-12.33,40,40,0,0,1-12.59-29.63,40,40,0,0,1,12.59-29.63,41.39,41.39,0,0,1,30-12.33A40.15,40.15,0,0,1,856.5,40.48l-8.09,8.09a29.13,29.13,0,0,0-20.67-8.19,28.77,28.77,0,0,0-21.34,8.91,29.66,29.66,0,0,0-8.75,21.59,29.7,29.7,0,0,0,8.75,21.6,28.8,28.8,0,0,0,21.34,8.9q12.79,0,21.18-8.39,5-5,6.25-14.43H827.74V67.09h38.58a36.89,36.89,0,0,1,.62,7.17q0,16.89-9.93,26.81Q845.75,112.85,827.74,112.84Zm89.65-7.73a27.81,27.81,0,0,1-38.48,0A25.92,25.92,0,0,1,871,85.82a25.92,25.92,0,0,1,7.88-19.29,27.81,27.81,0,0,1,38.48,0,25.88,25.88,0,0,1,7.88,19.29A25.88,25.88,0,0,1,917.39,105.11Zm-30-7.57a14.72,14.72,0,0,0,21.49,0,16.18,16.18,0,0,0,4.5-11.72A16.24,16.24,0,0,0,909,74.05a15,15,0,0,0-21.6,0,16.28,16.28,0,0,0-4.45,11.77A16.14,16.14,0,0,0,887.41,97.54Zm89.14,7.57a27.81,27.81,0,0,1-38.48,0,25.88,25.88,0,0,1-7.88-19.29,25.88,25.88,0,0,1,7.88-19.29,27.81,27.81,0,0,1,38.48,0,25.92,25.92,0,0,1,7.88,19.29A25.92,25.92,0,0,1,976.55,105.11Zm-30-7.57a14.72,14.72,0,0,0,21.49,0,16.14,16.14,0,0,0,4.51-11.72,16.24,16.24,0,0,0-4.46-11.77,15,15,0,0,0-21.59,0,16.24,16.24,0,0,0-4.45,11.77A16.18,16.18,0,0,0,946.56,97.54Zm68.88,39.56a23.86,23.86,0,0,1-15.15-4.81,27.87,27.87,0,0,1-8.8-11.16l10.34-4.3a17.39,17.39,0,0,0,5.11,6.76,12.94,12.94,0,0,0,8.5,2.86q6.75,0,10.59-4.09t3.84-11.77V106.7h-.41q-5,6.14-14.23,6.14A24.64,24.64,0,0,1,997.12,105a26.09,26.09,0,0,1-7.78-19,26.36,26.36,0,0,1,7.78-19.18q7.77-7.93,18.11-7.94a19.74,19.74,0,0,1,8.35,1.74,17,17,0,0,1,5.88,4.3h.41v-4.4h11.26V109q0,14.13-7.22,21.14T1015.44,137.1Zm.82-34.9a13.19,13.19,0,0,0,10.28-4.66,16.8,16.8,0,0,0,4.15-11.62,17.13,17.13,0,0,0-4.15-11.76,13.14,13.14,0,0,0-10.28-4.71,14.06,14.06,0,0,0-10.65,4.71,16.58,16.58,0,0,0-4.4,11.76,16.27,16.27,0,0,0,4.4,11.62A14.12,14.12,0,0,0,1016.26,102.2Zm44.93-70.41V111.2h-11.88V31.79Zm32.54,81.05a25.79,25.79,0,0,1-19.14-7.78,26.33,26.33,0,0,1-7.67-19.24q0-11.86,7.42-19.44a24.33,24.33,0,0,1,18.06-7.58,22.86,22.86,0,0,1,9.11,1.8,21.33,21.33,0,0,1,7,4.6,30.54,30.54,0,0,1,7.06,10.8l1.23,3.07L1080.63,94q4.2,8.19,13.1,8.19,8.19,0,13.31-7.47l9.21,6.14a30,30,0,0,1-8.7,8.29A24.74,24.74,0,0,1,1093.73,112.84Zm-15-27.84,24.15-10a8.32,8.32,0,0,0-3.79-4.15,12.27,12.27,0,0,0-6.24-1.59q-5.22,0-9.77,4.3T1078.69,85Z"/><path class="cls-1" d="M1179.09,112.84q-16.17,0-27.12-11t-11-27.33q0-16.37,11-27.32t27.12-11q16.58,0,26.91,12l-6.55,6.35q-7.47-9.31-20.36-9.32a27.77,27.77,0,0,0-20.22,8.09q-8.23,8.09-8.23,21.18t8.23,21.19a27.77,27.77,0,0,0,20.22,8.09q13.2,0,22.51-10.65l6.55,6.55a35.58,35.58,0,0,1-12.59,9.57A38.41,38.41,0,0,1,1179.09,112.84Z"/><path class="cls-1" d="M1226,111.2h-9.42V37.93H1226Z"/><path class="cls-1" d="M1241.31,67q7.28-7.62,18.53-7.62T1278.36,67q7.26,7.63,7.27,19.09t-7.27,19.09q-7.26,7.62-18.52,7.62t-18.53-7.62q-7.26-7.64-7.26-19.09T1241.31,67Zm7,32.24a15.85,15.85,0,0,0,23,0q4.86-5,4.86-13.15T1271.35,73a15.82,15.82,0,0,0-23,0q-4.86,5-4.86,13.15T1248.32,99.28Z"/><path class="cls-1" d="M1337.72,111.2h-9v-7h-.4a17.54,17.54,0,0,1-6.55,6.09,18.47,18.47,0,0,1-9.32,2.51q-9.42,0-14.27-5.73t-4.87-15.35V61.05h9.42V90.22q0,14,12.38,14a11.54,11.54,0,0,0,9.52-4.7,17.11,17.11,0,0,0,3.69-10.85V61.05h9.41Z"/><path class="cls-1" d="M1369.65,112.84q-9.72,0-16.78-7.67t-7.06-19q0-11.35,7.06-19t16.78-7.67a21.43,21.43,0,0,1,10.29,2.45,17.47,17.47,0,0,1,6.8,6.14h.41l-.41-7V37.93h9.42V111.2h-9v-7h-.41a17.41,17.41,0,0,1-6.8,6.15A21.43,21.43,0,0,1,1369.65,112.84Zm1.54-8.6a15,15,0,0,0,11.31-4.91q4.65-4.9,4.65-13.2t-4.65-13.2a15.35,15.35,0,0,0-22.57,0q-4.71,5-4.71,13.15t4.71,13.15A15,15,0,0,0,1371.19,104.24Z"/></g><path id="Divider" class="cls-1" d="M699.5,146.25a2.25,2.25,0,0,1-2.25-2.25V4a2.25,2.25,0,0,1,4.5,0V144A2.25,2.25,0,0,1,699.5,146.25Z"/></svg>