<svg id="Art" xmlns="http://www.w3.org/2000/svg" viewBox="0 0 984.75 269.92"><defs><style>.cls-1{fill:#fff;}.cls-2{fill:#ea4335;}.cls-3{fill:#4285f4;}.cls-4{fill:#34a853;}.cls-5{fill:#fbbc05;}.cls-6{fill:#e00;}</style></defs><title>Logo-Red_Hat-Google_Cloud-C-Reverse-RGB</title><path class="cls-1" d="M589.61,251.15a28.65,28.65,0,0,1-20.74-8.53,28.47,28.47,0,0,1,0-41,28.65,28.65,0,0,1,20.74-8.53,27.78,27.78,0,0,1,19.89,8l-5.59,5.59a20.18,20.18,0,0,0-14.3-5.66,19.91,19.91,0,0,0-14.76,6.16,21.46,21.46,0,0,0,0,29.87,21.06,21.06,0,0,0,29.41.35q3.48-3.47,4.32-10h-19v-7.92H616.3a25.68,25.68,0,0,1,.42,5q0,11.68-6.86,18.55Q602.06,251.14,589.61,251.15Zm62-5.35a19.23,19.23,0,0,1-26.62,0,19.05,19.05,0,0,1,0-26.68,19.23,19.23,0,0,1,26.62,0,19.05,19.05,0,0,1,0,26.68Zm-20.74-5.24a10.18,10.18,0,0,0,14.86,0,12.18,12.18,0,0,0,0-16.24,10.34,10.34,0,0,0-14.94,0,12.18,12.18,0,0,0,0,16.24Zm61.65,5.24a19.22,19.22,0,0,1-26.61,0,19.05,19.05,0,0,1,0-26.68,19.22,19.22,0,0,1,26.61,0,19.05,19.05,0,0,1,0,26.68Zm-20.74-5.24a10.19,10.19,0,0,0,14.87,0,12.2,12.2,0,0,0,0-16.24,10.33,10.33,0,0,0-14.93,0,12.2,12.2,0,0,0,0,16.24Zm47.64,27.36A16.54,16.54,0,0,1,709,264.6a19.19,19.19,0,0,1-6.08-7.72l7.15-3a12.06,12.06,0,0,0,3.53,4.67,9,9,0,0,0,5.88,2,9.56,9.56,0,0,0,7.33-2.83q2.65-2.84,2.65-8.14V246.9h-.28c-2.32,2.83-5.59,4.25-9.84,4.25a17.09,17.09,0,0,1-12.53-5.45,18.93,18.93,0,0,1,0-26.44,17,17,0,0,1,12.53-5.49,13.43,13.43,0,0,1,5.77,1.21,11.58,11.58,0,0,1,4.07,3h.28v-3h7.79v33.56q0,9.77-5,14.61A17.56,17.56,0,0,1,719.43,267.92Zm.57-24.14a9.12,9.12,0,0,0,7.11-3.22,11.62,11.62,0,0,0,2.87-8,11.87,11.87,0,0,0-2.87-8.14,9.1,9.1,0,0,0-7.11-3.26,9.73,9.73,0,0,0-7.37,3.26,11.49,11.49,0,0,0-3,8.14,11.25,11.25,0,0,0,3,8A9.76,9.76,0,0,0,720,243.78Zm31.07-48.69V250h-8.21V195.09Zm22.51,56.06a17.87,17.87,0,0,1-13.24-5.38A18.2,18.2,0,0,1,755,232.46,18.39,18.39,0,0,1,760.17,219a16.83,16.83,0,0,1,12.49-5.24A16,16,0,0,1,779,215a14.8,14.8,0,0,1,4.81,3.19,21.79,21.79,0,0,1,3.05,3.78,23.84,23.84,0,0,1,1.84,3.68l.85,2.13-25,10.33a9.54,9.54,0,0,0,9.06,5.66q5.65,0,9.2-5.16l6.37,4.24a20.61,20.61,0,0,1-6,5.74A17.11,17.11,0,0,1,773.58,251.15Zm-10.41-19.26L779.88,225a5.74,5.74,0,0,0-2.62-2.87,8.51,8.51,0,0,0-4.32-1.1,9.71,9.71,0,0,0-6.76,3A10,10,0,0,0,763.17,231.89Z"/><path class="cls-1" d="M832.61,251.15a26.48,26.48,0,1,1,0-53q11.48,0,18.62,8.28l-4.53,4.39q-5.16-6.44-14.09-6.44a19.19,19.19,0,0,0-14,5.59q-5.68,5.59-5.69,14.65t5.69,14.66a19.23,19.23,0,0,0,14,5.59q9.14,0,15.58-7.36l4.53,4.53A24.73,24.73,0,0,1,844,248.7,26.61,26.61,0,0,1,832.61,251.15Z"/><path class="cls-1" d="M865,250h-6.51V199.33H865Z"/><path class="cls-1" d="M875.65,219.47a18.2,18.2,0,0,1,25.62,0,19.84,19.84,0,0,1,0,26.4,18.18,18.18,0,0,1-25.62,0,19.86,19.86,0,0,1,0-26.4Zm4.85,22.3a11,11,0,0,0,15.93,0,14,14,0,0,0,0-18.19,10.94,10.94,0,0,0-15.93,0,14,14,0,0,0,0,18.19Z"/><path class="cls-1" d="M942.33,250H936.1V245.2h-.28a12,12,0,0,1-4.53,4.21,12.79,12.79,0,0,1-6.44,1.74q-6.52,0-9.88-4t-3.36-10.62V215.33h6.51V235.5q0,9.7,8.57,9.7a8,8,0,0,0,6.58-3.26,11.82,11.82,0,0,0,2.55-7.5V215.33h6.51Z"/><path class="cls-1" d="M964.41,251.15a15.24,15.24,0,0,1-11.6-5.31,20.17,20.17,0,0,1,0-26.33,15.24,15.24,0,0,1,11.6-5.31,14.67,14.67,0,0,1,7.12,1.7,12,12,0,0,1,4.71,4.24h.28l-.28-4.81v-16h6.51V250h-6.23V245.2h-.28a12.1,12.1,0,0,1-4.71,4.25A14.78,14.78,0,0,1,964.41,251.15Zm1.07-6a10.37,10.37,0,0,0,7.82-3.4q3.23-3.39,3.22-9.13t-3.22-9.13a10.62,10.62,0,0,0-15.61,0,14.32,14.32,0,0,0,0,18.19A10.36,10.36,0,0,0,965.48,245.2Z"/><path class="cls-2" d="M792.27,36l4.88.09,13.27-13.27.64-5.62a59.61,59.61,0,0,0-97.19,29c1.45-1,4.54-.25,4.54-.25l26.53-4.36s1.37-2.26,2-2.12A33.08,33.08,0,0,1,792.27,36Z"/><path class="cls-3" d="M829.05,46.23a59.75,59.75,0,0,0-18-29L792.25,36A33.09,33.09,0,0,1,804.61,61.8v3.31a16.58,16.58,0,0,1,0,33.15H771.46l-3.32,3.34v19.89l3.32,3.29h33.15a43.07,43.07,0,0,0,24.44-78.55Z"/><path class="cls-4" d="M738.31,124.78h33.12V98.26H738.31a16.43,16.43,0,0,1-6.83-1.49l-4.78,1.46-13.27,13.28L712.26,116A42.88,42.88,0,0,0,738.31,124.78Z"/><path class="cls-5" d="M738.31,38.59a43.08,43.08,0,0,0-26,77.42L731.5,96.79a16.57,16.57,0,1,1,21.9-21.9l19.23-19.23A43.06,43.06,0,0,0,738.31,38.59Z"/><path d="M257.25,64.15a14,14,0,0,1,.32,3.42c0,14.88-18.1,17.48-30.61,17.49-48.66,0-85-30.16-85-39.38a6.39,6.39,0,0,1,.22-1.94l-3.66,9.06a18.49,18.49,0,0,0-1.5,7.33c0,18.11,41,45.46,87.81,45.42,20.69,0,36.43-7.8,36.42-21.81,0-1.08,0-1.94-1.74-10.14Z"/><path class="cls-6" d="M227,85.06c12.51,0,30.62-2.61,30.61-17.49a14,14,0,0,0-.32-3.42l-7.48-32.37C248,24.67,246.53,21.43,234,15.19c-9.71-4.95-30.85-13.12-37.11-13.12-5.82,0-7.53,7.56-14.44,7.56-6.68,0-11.64-5.59-17.9-5.59-6,0-9.91,4.11-12.92,12.52,0,0-8.39,23.73-9.47,27.18a6.39,6.39,0,0,0-.22,1.94c0,9.22,36.34,39.43,85,39.38M259.51,73.6c1.74,8.2,1.74,9.06,1.74,10.14,0,14-15.73,21.79-36.42,21.81C178,105.59,137,78.25,137,60.13a18.49,18.49,0,0,1,1.5-7.33c-16.81.88-38.59,3.92-38.57,23.11,0,31.48,74.67,70.22,133.75,70.17,45.29,0,56.69-20.54,56.68-36.71,0-12.72-11-27.16-30.87-35.77"/><path class="cls-1" d="M355.72,233.09c0,11.88,7.16,17.67,20.19,17.67a52.59,52.59,0,0,0,11.89-1.68V235.3a24.8,24.8,0,0,1-7.68,1.16c-5.36,0-7.36-1.69-7.36-6.74V208.59h15.56v-14.2H372.76v-18l-17,3.69v14.3H344.47v14.2h11.25Zm-52.94.32c0-3.69,3.68-5.47,9.25-5.47a42.6,42.6,0,0,1,10.1,1.26v7.15A21.47,21.47,0,0,1,311.51,239c-5.47,0-8.73-2.1-8.73-5.57M308,251c6,0,10.83-1.26,15.35-4.31V250h16.83V214.37c0-13.57-9.15-21-24.4-21-8.52,0-16.93,2-26,6.1l6.1,12.51c6.52-2.73,12-4.42,16.83-4.42,7.05,0,10.62,2.74,10.62,8.31v2.74A49,49,0,0,0,310.71,217c-14.3,0-22.92,6-22.92,16.72,0,9.78,7.78,17.25,20.19,17.25M215.53,250h18.09V221.21h30.29V250H282V176.4H263.91v28.29H233.62V176.4H215.53Zm-68.92-27.87c0-8,6.31-14.09,14.61-14.09A17.25,17.25,0,0,1,173,212.37v19.46a16.37,16.37,0,0,1-11.78,4.41c-8.2,0-14.61-6.09-14.61-14.09M173.21,250H190v-77.3l-17,3.68v20.93a28.23,28.23,0,0,0-14.19-3.68c-16.2,0-28.93,12.52-28.93,28.5a28.26,28.26,0,0,0,28.4,28.61,25,25,0,0,0,14.93-4.84ZM96,207.32c5.36,0,9.89,3.47,11.67,8.84H84.45c1.69-5.58,5.89-8.84,11.57-8.84M67.31,222.26c0,16.19,13.25,28.81,30.29,28.81,9.36,0,16.19-2.52,23.24-8.41l-11.25-10c-2.63,2.73-6.52,4.21-11.15,4.21A14.37,14.37,0,0,1,84.77,228h39.65v-4.2c0-17.67-11.89-30.4-28.08-30.4a28.58,28.58,0,0,0-29,28.82M38,191.86c6,0,9.36,3.79,9.36,8.31S44,208.48,38,208.48H20.09V191.86ZM2,250H20.09V223.2H33.87L47.75,250H67.94L51.75,220.57a22.26,22.26,0,0,0,13.88-20.71c0-13.25-10.41-23.46-26-23.46H2Z"/><path class="cls-1" d="M474,250a2.25,2.25,0,0,1-2.25-2.25V4.32a2.25,2.25,0,1,1,4.5,0V247.77A2.25,2.25,0,0,1,474,250Z"/></svg>