<svg xmlns="http://www.w3.org/2000/svg" viewBox="0 0 615.84 439.82"><defs><style>.cls-1{fill:#e00;}.cls-2{fill:#0066a1;}</style></defs><title>Logo-Red_Hat-Atos-B-Standard-RGB</title><g id="Lockup_A" data-name="Lockup A"><path id="Divider" d="M2,232a2.25,2.25,0,0,1,2.25-2.25H611.59a2.25,2.25,0,0,1,0,4.5H4.25A2.25,2.25,0,0,1,2,232Z"/><g id="Red_Hat_Logo" data-name="Red Hat Logo"><path class="cls-1" d="M129,85c12.51,0,30.61-2.59,30.61-17.47a14,14,0,0,0-.31-3.42l-7.45-32.36c-1.72-7.11-3.23-10.35-15.73-16.6C126.39,10.19,105.26,2,99,2c-5.82,0-7.55,7.54-14.45,7.54-6.68,0-11.64-5.6-17.89-5.6-6,0-9.91,4.1-12.93,12.5,0,0-8.41,23.72-9.49,27.16A6.46,6.46,0,0,0,44,45.55C44,54.76,80.33,85,129,85m32.55-11.43c1.73,8.19,1.73,9.05,1.73,10.13,0,14-15.74,21.77-36.43,21.77C80,105.47,39.08,78.1,39.08,60a18.45,18.45,0,0,1,1.51-7.33C23.77,53.52,2,56.54,2,75.72,2,107.2,76.59,146,135.65,146c45.28,0,56.7-20.48,56.7-36.64,0-12.73-11-27.17-30.83-35.79"/><path d="M161.52,73.57c1.73,8.19,1.73,9.05,1.73,10.13,0,14-15.74,21.77-36.43,21.77C80,105.47,39.08,78.1,39.08,60a18.45,18.45,0,0,1,1.51-7.33l3.66-9.06A6.46,6.46,0,0,0,44,45.55C44,54.76,80.33,85,129,85c12.51,0,30.61-2.59,30.61-17.47a14,14,0,0,0-.31-3.42Z"/><path d="M581.24,94.31c0,11.88,7.15,17.66,20.19,17.66a52.11,52.11,0,0,0,11.89-1.68V96.51a24.55,24.55,0,0,1-7.68,1.16c-5.37,0-7.36-1.68-7.36-6.73V69.8h15.56V55.6H598.28v-18l-17,3.68V55.6H570V69.8h11.25Zm-53,.31c0-3.68,3.69-5.47,9.26-5.47a43.12,43.12,0,0,1,10.1,1.26v7.16A21.61,21.61,0,0,1,537,100.19c-5.47,0-8.73-2.1-8.73-5.57m5.2,17.56c6,0,10.84-1.26,15.36-4.31v3.37h16.82V75.59c0-13.57-9.15-21-24.39-21-8.52,0-16.94,2-26,6.1l6.1,12.52c6.52-2.74,12-4.42,16.83-4.42,7,0,10.62,2.73,10.62,8.31v2.73a49.53,49.53,0,0,0-12.62-1.58c-14.31,0-22.93,6-22.93,16.73,0,9.78,7.78,17.24,20.19,17.24m-92.44-.94h18.09V82.42h30.29v28.82h18.09V37.62H489.43V65.91H459.14V37.62H441.05ZM372.12,83.37c0-8,6.31-14.09,14.62-14.09a17.22,17.22,0,0,1,11.78,4.31V93a16.36,16.36,0,0,1-11.78,4.42c-8.2,0-14.62-6.1-14.62-14.09m26.61,27.87h16.83V33.94l-17,3.68V58.55a28.3,28.3,0,0,0-14.2-3.68c-16.2,0-28.92,12.51-28.92,28.5A28.25,28.25,0,0,0,383.79,112a25.13,25.13,0,0,0,14.94-4.83Zm-77.19-42.7c5.36,0,9.88,3.47,11.67,8.83H310c1.68-5.57,5.89-8.83,11.57-8.83M292.83,83.47c0,16.2,13.25,28.82,30.28,28.82,9.36,0,16.2-2.53,23.25-8.41l-11.26-10c-2.63,2.74-6.52,4.21-11.14,4.21a14.39,14.39,0,0,1-13.68-8.83h39.65V85.05c0-17.67-11.88-30.39-28.08-30.39a28.57,28.57,0,0,0-29,28.81M263.48,53.08c6,0,9.36,3.79,9.36,8.31s-3.36,8.31-9.36,8.31H245.61V53.08Zm-36,58.16h18.09V84.42h13.77l13.89,26.82h20.19l-16.2-29.45a22.27,22.27,0,0,0,13.88-20.72c0-13.25-10.41-23.45-26-23.45H227.52Z"/></g><path class="cls-2" d="M461.61,407.52c0,20.1-18.17,30.25-39.58,30.25-14,0-26.52-3.14-37-8.89a129.68,129.68,0,0,0,8.75-15c7.07,2.94,18.58,6.46,29,6.46,10.14,0,18.06-4.23,18.06-9.91,0-4.94-1.69-8.8-17.82-13.82-20.88-6.5-32.68-13-32.68-30.53,0-18.45,17-28.65,38.49-28.65,9.29,0,20.41,2.07,27.65,3.81l-1.08,26.86-15.31-.28.07-13.36a46.92,46.92,0,0,0-10-.91c-11.64,0-19.64,4-19.64,10.77,0,4.79,4.59,9.31,20.83,14.53C452.23,385.58,461.61,391.9,461.61,407.52ZM250.15,423.78h7.79V436H220.59V423.78h7.68l-4.76-13.4H185.68l-4.74,13.4h8.2V436H154.23V423.78h8.32l26-73.51H178.13v-12.2h41.61Zm-32-28.53L204.58,357,191,395.25Zm170.13-.59a43.16,43.16,0,0,1-73.06,31.12c-5.3,6.41-14.87,11.94-26.62,11.94-14,0-28.46-6.81-28.46-27.54V369.83H245.47V354.54h14.66V338h20v16.51h22.24v15.29H280.11v38.38c0,8.37,5.13,14,12.25,14a21,21,0,0,0,14.88-6.76,43.17,43.17,0,0,1,24.49-61.79c-3.6,5.36-6,17.6-6,24.34a27.57,27.57,0,0,0-5.54,16.7c0,14.67,11.16,26.58,24.91,26.58a23.62,23.62,0,0,0,13.54-4.3,43.15,43.15,0,0,1-18.07-65.22,45.35,45.35,0,0,1,4.53-.23,42.85,42.85,0,0,1,16.79,3.39h0A43.16,43.16,0,0,1,388.27,394.66Zm-18.25,0c0-12.24-7.76-22.51-18.3-25.61a28.17,28.17,0,0,0-1.19,8.12c0,12.23,7.75,22.51,18.29,25.6A27.82,27.82,0,0,0,370,394.66Z"/></g></svg>