<svg xmlns="http://www.w3.org/2000/svg" viewBox="0 0 1078.66 148"><defs><style>.cls-1{fill:#e00;}.cls-2{fill:#0066a1;}</style></defs><title>Logo-Red_Hat-Atos-A-Standard-RGB</title><g id="Lockup_A" data-name="Lockup A"><path id="Divider" d="M699.84,146a2.25,2.25,0,0,1-2.25-2.25V4.25a2.25,2.25,0,0,1,4.5,0v139.5A2.25,2.25,0,0,1,699.84,146Z"/><g id="Red_Hat_Logo" data-name="Red Hat Logo"><path class="cls-1" d="M129,85c12.51,0,30.61-2.58,30.61-17.46a14,14,0,0,0-.31-3.42l-7.44-32.36c-1.73-7.12-3.24-10.35-15.74-16.6C126.39,10.19,105.26,2,99,2c-5.82,0-7.54,7.54-14.44,7.54-6.69,0-11.64-5.6-17.9-5.6-6,0-9.91,4.09-12.93,12.5,0,0-8.41,23.72-9.49,27.16A6.43,6.43,0,0,0,44,45.54C44,54.76,80.33,85,129,85m32.55-11.42c1.73,8.19,1.73,9.05,1.73,10.13,0,14-15.74,21.77-36.43,21.77C80,105.47,39.08,78.1,39.08,60a18.45,18.45,0,0,1,1.51-7.33C23.77,53.52,2,56.54,2,75.72,2,107.2,76.59,146,135.66,146c45.27,0,56.69-20.48,56.69-36.65,0-12.72-11-27.16-30.83-35.78"/><path d="M161.52,73.57c1.73,8.19,1.73,9.05,1.73,10.13,0,14-15.74,21.77-36.43,21.77C80,105.47,39.08,78.1,39.08,60a18.45,18.45,0,0,1,1.51-7.33l3.66-9.06A6.43,6.43,0,0,0,44,45.54C44,54.76,80.33,85,129,85c12.51,0,30.61-2.58,30.61-17.46a14,14,0,0,0-.31-3.42Z"/><path d="M581.24,94.3c0,11.89,7.15,17.67,20.19,17.67a52,52,0,0,0,11.89-1.68V96.51a24.84,24.84,0,0,1-7.68,1.16c-5.37,0-7.36-1.68-7.36-6.73V69.8h15.56V55.6H598.28v-18l-17,3.68V55.6H570V69.8h11.25Zm-52.94.32c0-3.68,3.68-5.47,9.25-5.47a43.12,43.12,0,0,1,10.1,1.26v7.15A21.51,21.51,0,0,1,537,100.19c-5.46,0-8.72-2.1-8.72-5.57m5.19,17.56c6,0,10.84-1.26,15.36-4.31v3.37h16.83V75.58c0-13.56-9.15-21-24.4-21-8.52,0-16.94,2-26,6.1l6.1,12.52c6.52-2.74,12-4.42,16.83-4.42,7,0,10.62,2.73,10.62,8.31v2.73a49.48,49.48,0,0,0-12.62-1.58c-14.3,0-22.93,6-22.93,16.73,0,9.78,7.78,17.24,20.19,17.24m-92.44-.94h18.09V82.42h30.29v28.82h18.09V37.62H489.43V65.91H459.14V37.62H441.05ZM372.12,83.37c0-8,6.31-14.1,14.62-14.1a17.22,17.22,0,0,1,11.78,4.32V93a16.36,16.36,0,0,1-11.78,4.42c-8.2,0-14.62-6.1-14.62-14.09m26.61,27.87h16.83V33.94l-17,3.68V58.55a28.3,28.3,0,0,0-14.2-3.68c-16.19,0-28.92,12.51-28.92,28.5A28.26,28.26,0,0,0,383.8,112a25.12,25.12,0,0,0,14.93-4.83Zm-77.19-42.7c5.36,0,9.88,3.47,11.67,8.83H310c1.68-5.57,5.89-8.83,11.57-8.83M292.83,83.47c0,16.2,13.25,28.82,30.29,28.82,9.36,0,16.19-2.53,23.24-8.42l-11.26-10c-2.62,2.74-6.52,4.21-11.14,4.21a14.39,14.39,0,0,1-13.68-8.83h39.65V85.05c0-17.67-11.88-30.39-28.08-30.39a28.57,28.57,0,0,0-29,28.81M263.49,53.08c6,0,9.36,3.78,9.36,8.31s-3.37,8.31-9.36,8.31H245.61V53.08Zm-36,58.16h18.09V84.42h13.77l13.89,26.82h20.19l-16.2-29.45a22.28,22.28,0,0,0,13.89-20.72c0-13.25-10.42-23.45-26-23.45H227.52Z"/></g><path class="cls-2" d="M1076.66,92.82c0,19-17.19,28.61-37.45,28.61-13.27,0-25.09-3-35-8.41a125.13,125.13,0,0,0,8.28-14.17c6.69,2.77,17.57,6.1,27.39,6.1,9.6,0,17.09-4,17.09-9.37,0-4.67-1.6-8.32-16.86-13.08-19.76-6.14-30.92-12.28-30.92-28.88,0-17.45,16.07-27.1,36.42-27.1,8.79,0,19.31,1.95,26.15,3.59l-1,25.42-14.48-.26.07-12.64a44.46,44.46,0,0,0-9.47-.87c-11,0-18.59,3.8-18.59,10.2,0,4.53,4.35,8.8,19.72,13.74C1067.78,72.06,1076.66,78,1076.66,92.82ZM876.59,108.2H884v11.56H848.63V108.2h7.26l-4.5-12.68H815.6l-4.49,12.68h7.76v11.56h-33V108.2h7.87l24.62-69.54h-9.88V27.11h39.37Zm-30.28-27L833.47,45,820.66,81.21Zm161-.56a40.83,40.83,0,0,1-69.12,29.44A33,33,0,0,1,913,121.39C899.7,121.39,886,115,886,95.33V57.16H872.16V42.7H886V27.08h18.89V42.7H926V57.16H904.93V93.47c0,7.92,4.86,13.21,11.6,13.21a19.87,19.87,0,0,0,14.08-6.4,40.83,40.83,0,0,1,23.17-58.46c-3.4,5.08-5.67,16.65-5.68,23a26.14,26.14,0,0,0-5.24,15.8c0,13.88,10.56,25.15,23.57,25.15a22.4,22.4,0,0,0,12.81-4.07A40.83,40.83,0,0,1,962.14,40c1.42-.14,2.84-.23,4.29-.23A40.63,40.63,0,0,1,982.32,43v0A40.83,40.83,0,0,1,1007.27,80.65Zm-17.27,0c0-11.58-7.33-21.3-17.31-24.23a26.56,26.56,0,0,0-1.13,7.68c0,11.58,7.34,21.3,17.31,24.22A26.55,26.55,0,0,0,990,80.65Z"/></g></svg>