<svg id="Layer_1" data-name="Layer 1" xmlns="http://www.w3.org/2000/svg" viewBox="0 0 916.16 253"><defs><style>.cls-1{fill:#fff;}</style></defs><title>Logo-Red_Hat-Intel-C-White-RGB</title><path class="cls-1" d="M728.05,217C658,223.48,585,213.3,574.79,158.55c-5-27,7.27-55.6,23.59-73.38v-9.5C569,101.44,553.06,134,562.23,172.54c11.74,49.39,74.39,77.36,170,68.07,37.84-3.66,87.36-15.85,121.8-34.76V179C822.8,197.62,771.13,213,728.05,217ZM912.59,75C896-6.1,738.45-11.24,636.93,50.56v6.82C738.35,5.24,882.16,5.56,895.29,80.28c4.39,24.75-9.53,50.5-34.41,65.29V165C890.81,154,921.52,118.5,912.59,75Z"/><path class="cls-1" d="M848.4,63.22H830V145c0,9.62,4.65,18,18.36,19.28Z"/><path class="cls-1" d="M629.69,93.08H611.31v53.44c0,9.6,4.64,17.94,18.38,19.27Z"/><rect class="cls-1" x="611.31" y="65.7" width="18.34" height="17.4"/><path class="cls-1" d="M739.69,164.94c-14.84,0-21.14-10.34-21.14-20.55V73.45h18.19V93.08h13.71v14.7H736.74v35.5c0,4.17,2,6.47,6.32,6.47h7.39v15.19H739.69"/><path class="cls-1" d="M773.2,134.68c0,9.32,5.83,16.18,16.14,16.18,8.09,0,12.07-2.25,16.74-6.86l11.2,10.75c-7.15,7.1-14.74,11.42-28.07,11.42-17.44,0-34.15-9.52-34.15-37.23,0-23.69,14.58-37.08,33.73-37.08,19.44,0,30.61,15.68,30.61,36.25v6.57H773.2M788,106.92c-6.21,0-11,3.21-13,7.54a18.42,18.42,0,0,0-1.78,7.81h28.06C800.9,114.45,797.35,106.92,788,106.92Z"/><path class="cls-1" d="M679.16,107.78c5.33,0,7.56,2.65,7.56,6.91V165h18.22V114.62c0-10.23-5.47-21.51-21.45-21.51l-37.62,0v72h18.22V107.78Z"/><path class="cls-1" d="M864.53,70.52a3.65,3.65,0,1,1,3.66-3.65A3.64,3.64,0,0,1,864.53,70.52Zm0-6.69a3,3,0,1,0,3,3A3,3,0,0,0,864.53,63.83Zm1.62,5.23h-.68a.18.18,0,0,1-.15-.1l-.93-1.57a.23.23,0,0,0-.13-.06h-.41v1.56a.17.17,0,0,1-.16.17h-.61a.17.17,0,0,1-.16-.17v-4c0-.23.08-.32.29-.35s.79,0,1.12,0c1.13,0,1.81.34,1.81,1.39V66a1.14,1.14,0,0,1-.83,1.17l1,1.63a.31.31,0,0,1,0,.11A.13.13,0,0,1,866.15,69.06Zm-.91-3.13c0-.44-.24-.6-.85-.6h-.57v1.28h.57c.61,0,.85-.2.85-.61Z"/><path class="cls-1" d="M227,85c12.51,0,30.62-2.62,30.6-17.5a14,14,0,0,0-.31-3.42l-7.48-32.36C248,24.59,246.53,21.36,234,15.12,224.3,10.17,203.17,2,196.91,2c-5.82,0-7.54,7.55-14.44,7.56-6.68,0-11.65-5.6-17.9-5.59-6,0-9.92,4.11-12.93,12.52,0,0-8.38,23.72-9.46,27.17a6.46,6.46,0,0,0-.22,2C142,54.83,178.3,85,227,85m32.55-11.46c1.73,8.19,1.73,9.06,1.74,10.13,0,14-15.73,21.8-36.43,21.82C178,105.52,137,78.17,137,60.06a18.46,18.46,0,0,1,1.5-7.33c-16.82.87-38.59,3.91-38.57,23.1,0,31.48,74.67,70.23,133.75,70.18,45.28,0,56.69-20.54,56.68-36.71,0-12.73-11-27.16-30.87-35.77"/><path class="cls-1" d="M355.72,233c0,11.88,7.15,17.66,20.19,17.66A52,52,0,0,0,387.8,249V235.22a24.5,24.5,0,0,1-7.68,1.16c-5.36,0-7.36-1.68-7.36-6.73V208.51h15.56v-14.2H372.76v-18l-17,3.68v14.3H344.47v14.2h11.25Zm-52.94.31c0-3.68,3.68-5.47,9.25-5.47a43.12,43.12,0,0,1,10.1,1.26v7.16a21.61,21.61,0,0,1-10.62,2.63c-5.47,0-8.73-2.11-8.73-5.58m5.2,17.56c6,0,10.83-1.26,15.35-4.31V250h16.83V214.3c0-13.57-9.15-21-24.4-21-8.52,0-16.93,2-26,6.1l6.1,12.52c6.52-2.74,12-4.42,16.83-4.42,7,0,10.62,2.73,10.62,8.31v2.73a49.48,49.48,0,0,0-12.62-1.57c-14.3,0-22.93,6-22.93,16.72,0,9.78,7.79,17.24,20.2,17.24M215.53,250h18.09V221.13h30.29V250H282V176.33H263.91v28.29H233.62V176.33H215.53ZM146.6,222.08c0-8,6.31-14.09,14.62-14.09A17.2,17.2,0,0,1,173,212.3v19.45a16.36,16.36,0,0,1-11.78,4.42c-8.2,0-14.62-6.1-14.62-14.09M173.21,250H190v-77.3l-17,3.68v20.93a28.27,28.27,0,0,0-14.2-3.68c-16.19,0-28.92,12.51-28.92,28.5a28.26,28.26,0,0,0,28.4,28.6,25.1,25.1,0,0,0,14.93-4.83ZM96,207.25c5.36,0,9.88,3.47,11.67,8.83H84.45c1.68-5.57,5.89-8.83,11.57-8.83M67.31,222.18c0,16.2,13.25,28.82,30.29,28.82,9.36,0,16.19-2.52,23.24-8.41l-11.25-10c-2.63,2.73-6.52,4.2-11.15,4.2A14.37,14.37,0,0,1,84.77,228h39.64v-4.21c0-17.67-11.88-30.39-28.08-30.39a28.57,28.57,0,0,0-29,28.81M38,191.79c6,0,9.36,3.79,9.36,8.31S44,208.41,38,208.41H20.09V191.79ZM2,250H20.09V223.13H33.87L47.75,250H67.94L51.74,220.5a22.27,22.27,0,0,0,13.89-20.72c0-13.25-10.41-23.45-26-23.45H2Z"/><path class="cls-1" d="M474,251a2.25,2.25,0,0,1-2.25-2.25V4.25a2.25,2.25,0,0,1,4.5,0v244.5A2.25,2.25,0,0,1,474,251Z"/></svg>