<svg id="Layer_1" data-name="Layer 1" xmlns="http://www.w3.org/2000/svg" viewBox="0 0 615.84 605"><defs><style>.cls-1{fill:#fff;}.cls-2{fill:#e00;}.cls-3{fill:#00b388;}</style></defs><title>Logo-Red_Hat-HPE-B-Reverse-RGB</title><path class="cls-1" d="M611.59,234.43H4.25a2.25,2.25,0,0,1,0-4.5H611.59a2.25,2.25,0,0,1,0,4.5Z"/><path class="cls-2" d="M161.52,73.57c1.73,8.19,1.73,9.05,1.73,10.13,0,14-15.74,21.77-36.43,21.77C80,105.47,39.08,78.1,39.08,60a18.45,18.45,0,0,1,1.51-7.33C23.77,53.52,2,56.54,2,75.72,2,107.2,76.59,146,135.65,146c45.28,0,56.7-20.48,56.7-36.65,0-12.72-11-27.16-30.83-35.78M129,85c12.51,0,30.61-2.58,30.61-17.46a14,14,0,0,0-.31-3.42l-7.45-32.36c-1.72-7.12-3.23-10.35-15.73-16.6C126.38,10.19,105.26,2,99,2c-5.82,0-7.55,7.54-14.45,7.54-6.68,0-11.64-5.6-17.89-5.6-6,0-9.91,4.09-12.93,12.5,0,0-8.41,23.72-9.49,27.16A6.43,6.43,0,0,0,44,45.54C44,54.76,80.33,85,129,85"/><path d="M161.52,73.57c1.73,8.19,1.73,9.05,1.73,10.13,0,14-15.74,21.77-36.43,21.77C80,105.47,39.08,78.1,39.08,60a18.45,18.45,0,0,1,1.51-7.33l3.66-9.06A6.43,6.43,0,0,0,44,45.54C44,54.76,80.33,85,129,85c12.51,0,30.61-2.58,30.61-17.46a14,14,0,0,0-.31-3.42l2.25,9.46Z"/><path class="cls-1" d="M227.52,111.24h18.09V84.42h13.77l13.89,26.82h20.19l-16.2-29.45a22.27,22.27,0,0,0,13.88-20.72c0-13.25-10.41-23.45-26-23.45H227.52v73.62Zm36-58.16c6,0,9.36,3.78,9.36,8.31s-3.36,8.31-9.36,8.31H245.61V53.08Zm29.35,30.39c0,16.2,13.25,28.82,30.28,28.82,9.36,0,16.2-2.53,23.25-8.42l-11.26-10c-2.63,2.74-6.52,4.21-11.14,4.21a14.39,14.39,0,0,1-13.68-8.83h39.65V85.05c0-17.67-11.88-30.39-28.08-30.39a28.57,28.57,0,0,0-29,28.81m28.71-14.93c5.36,0,9.88,3.47,11.67,8.83H310c1.68-5.57,5.89-8.83,11.57-8.83m77.19,42.7h16.83V33.94l-17,3.68V58.55a28.3,28.3,0,0,0-14.2-3.68c-16.2,0-28.92,12.51-28.92,28.5A28.25,28.25,0,0,0,383.79,112a25.13,25.13,0,0,0,14.94-4.83v4.1ZM372.12,83.37c0-8,6.31-14.1,14.62-14.1a17.22,17.22,0,0,1,11.78,4.32V93a16.36,16.36,0,0,1-11.78,4.42c-8.2,0-14.62-6.1-14.62-14.09m68.93,27.87h18.09V82.42h30.29v28.82h18.09V37.62H489.43V65.91H459.14V37.62H441.05v73.62Zm92.44.94c6,0,10.84-1.26,15.36-4.31v3.37h16.82V75.58c0-13.56-9.15-21-24.39-21-8.52,0-16.94,2-26,6.1l6.1,12.52c6.52-2.74,12-4.42,16.83-4.42,7,0,10.62,2.73,10.62,8.31v2.73a49.53,49.53,0,0,0-12.62-1.58c-14.31,0-22.93,6-22.93,16.73,0,9.78,7.78,17.24,20.19,17.24m-5.2-17.56c0-3.68,3.69-5.47,9.26-5.47a43.12,43.12,0,0,1,10.1,1.26v7.15A21.51,21.51,0,0,1,537,100.19c-5.47,0-8.73-2.1-8.73-5.57m53-.32c0,11.89,7.15,17.67,20.19,17.67a52.11,52.11,0,0,0,11.89-1.68V96.51a24.84,24.84,0,0,1-7.68,1.16c-5.37,0-7.36-1.68-7.36-6.73V69.8h15.56V55.6H598.28v-18l-17,3.68V55.6H570V69.8h11.26V94.3Z"/><path id="element" class="cls-3" d="M203.24,347.44v60.14H412.6V347.44Zm196.28,47.05H216.32v-34h183.2v34Z"/><path class="cls-1" d="M15.09,507H2V446.83H15.09V470.6H38.47V446.83H51.55V507H38.47V482.05H15.09Zm66.2,1C68,507.93,59,499.56,59,485.8c0-13.37,8.85-22.61,20.59-22.61,12.79,0,19.14,8.56,19.14,21.36v4.81H71.38c1.54,6.64,6.74,8.37,11.93,8.37a20.45,20.45,0,0,0,11.83-3.46h.48v9.91C92.16,506.68,87.26,507.93,81.29,507.93ZM71.38,480.6H87c-.29-4.42-2.12-7.5-7.22-7.5C75.9,473.1,72.53,474.74,71.38,480.6Zm61.48,1.16L126.13,507H114.68l-13.09-42.34v-.48H114.1l7.12,25.31L128,464.15h10.19L145,489.46l7.21-25.31h12v.48L151.14,507H139.69Zm52.63,26.17c-10.39,0-14.62-4.14-14.62-13.85V446.83h12.7v46.38c0,3,1.15,4,3.65,4a9.57,9.57,0,0,0,2.89-.57h.19v10.48A15,15,0,0,1,185.49,507.93Zm30.7,0c-13.28,0-22.33-8.37-22.33-22.13,0-13.37,8.85-22.61,20.59-22.61,12.8,0,19.15,8.56,19.15,21.36v4.81H206.27c1.54,6.64,6.74,8.37,11.94,8.37A20.45,20.45,0,0,0,230,494.27h.48v9.91C227.06,506.68,222.15,507.93,216.19,507.93Zm-9.92-27.33h15.59c-.29-4.42-2.11-7.5-7.22-7.5C210.8,473.1,207.43,474.74,206.27,480.6Zm79.48-16.45h9.43v10.2h-9.43v17.42c0,3.75,1.44,5.48,5.29,5.48a12.08,12.08,0,0,0,3.85-.58h.29v10a23,23,0,0,1-7.79,1.25c-10.3,0-14.34-4.71-14.34-15.59v-18H256.79v17.42c0,3.75,1.44,5.48,5.29,5.48a12.08,12.08,0,0,0,3.85-.58h.29v10a23,23,0,0,1-7.8,1.25c-10.29,0-14.33-4.71-14.33-15.59v-18h-6.55v-10.2h6.55V452.41h12.7v11.74h16.26V452.41h12.7v11.74Zm75.32,3.08c0,13.09-8.76,20.21-22,20.21H329.7V507H316.62V446.83H339C352.31,446.83,361.07,454,361.07,467.23ZM338,476.37c6.64,0,9.81-3.75,9.81-9.14,0-5.58-3.17-9.33-9.81-9.33H329.7v18.47Zm51.38,26.37a14.44,14.44,0,0,1-11.36,5c-8.37,0-15.2-5.1-15.2-14.14,0-8.38,6.83-14,16.65-14a33.73,33.73,0,0,1,9.52,1.45v-.77c0-4.62-2.59-6.64-9.43-6.64a24.41,24.41,0,0,0-12,3.27H367v-10.2a31.65,31.65,0,0,1,14.72-3.56c12.9,0,19.92,6.16,19.92,16.94V507H389.35v-4.23ZM389,493.5v-3.66a14.78,14.78,0,0,0-7-1.44c-4.14,0-6.64,1.54-6.64,5s2.5,5.1,6.25,5.1A7.43,7.43,0,0,0,389,493.5Zm19.15-7.89c0-13.76,9.72-22.42,22.42-22.42,4.52,0,8.76,1,11.93,3.27v10.88H442a15.92,15.92,0,0,0-9.82-3.37c-6.34,0-11.15,4.33-11.15,11.64s4.81,11.55,11.15,11.55a16,16,0,0,0,9.82-3.37h.48v10.87c-3.17,2.31-7.41,3.27-11.93,3.27C417.84,507.93,408.12,499.37,408.12,485.61Zm55,1.92V507H450.45V446.83h12.71v34.26L476,464.15h14.44v.48L475,484.07l15.4,22.42V507H475.86Zm56.09,15.21a14.44,14.44,0,0,1-11.35,5c-8.37,0-15.21-5.1-15.21-14.14,0-8.38,6.84-14,16.65-14a33.68,33.68,0,0,1,9.52,1.45v-.77c0-4.62-2.59-6.64-9.42-6.64a24.48,24.48,0,0,0-12,3.27h-.48v-10.2a31.61,31.61,0,0,1,14.72-3.56c12.89,0,19.92,6.16,19.92,16.94V507H519.25v-4.23Zm-.38-9.24v-3.66a14.8,14.8,0,0,0-7-1.44c-4.13,0-6.64,1.54-6.64,5s2.51,5.1,6.26,5.1A7.45,7.45,0,0,0,518.87,493.5Zm34.06-22.42c2.31-4.71,5.68-7.41,10.39-7.41a10.09,10.09,0,0,1,4.14.77v12.12H567a14.76,14.76,0,0,0-5.59-1c-3.94,0-7,2.31-8.08,6.74V507h-12.7V464.15h12.32v6.93Zm48.59,31.47c-2.69,3.46-6.93,5.38-12.7,5.38-11,0-18-10-18-22.32s7-22.42,18-22.42c5.58,0,9.62,1.73,12.32,4.91V446.83h12.69V507H601.52Zm-.38-10.11V478.68a9.41,9.41,0,0,0-8.09-4.42c-5.58,0-9.33,4-9.33,11.35s3.75,11.26,9.33,11.26A9.43,9.43,0,0,0,601.14,492.44ZM123.66,526.61H160.8v7.31H132V552.3h26.08v7.12H132v20H160.8v7.31H123.66Zm67.84,16.93c9.52,0,14.81,6.26,14.81,16.55v26.65h-8V560.28c0-5.48-2.79-9.43-8.85-9.43a11.14,11.14,0,0,0-10.69,7.7v28.19h-8V544.41h8v6.15A14.64,14.64,0,0,1,191.5,543.54Zm36.27.87h10.87v6.83H227.77V574c0,4.81,2.5,6.45,7,6.45a10.11,10.11,0,0,0,3.56-.58h.29v6.83a13,13,0,0,1-5,.87c-9.91,0-13.86-4.53-13.86-12.8V551.24h-7.31v-6.83h7.31V533.15h8v11.26Zm36.85,43.2c-12.41,0-20.88-8.28-20.88-21.56s7.89-22.51,19.34-22.51c11.64,0,17.71,8.37,17.71,20.79V568H251.73c.87,8.56,6.35,12.7,14,12.7a18.07,18.07,0,0,0,11.84-3.85h.29v7C274.34,586.55,269.82,587.61,264.62,587.61ZM252,561.44h21.07c-.29-6.26-3.37-11.07-9.91-11.07C257.12,550.37,253.17,554.89,252,561.44ZM298.2,551a11.18,11.18,0,0,1,10.49-7.22,10,10,0,0,1,4.14.68v7.89h-.29a12.28,12.28,0,0,0-5-.87c-4.33,0-8,2.89-9.33,7.7v27.61h-8V544.41h8V551ZM340,543.54c12.6,0,19.34,10.3,19.34,22s-6.74,22-19.34,22A15.33,15.33,0,0,1,328.13,582v21h-8V544.41h8v4.81A15.08,15.08,0,0,1,340,543.54Zm-1.35,36.86c7.89,0,12.51-6.26,12.51-14.83s-4.62-14.81-12.51-14.81a12,12,0,0,0-10.49,6.73v16.26A11.86,11.86,0,0,0,338.61,580.4ZM376.72,551a11.16,11.16,0,0,1,10.48-7.22,10,10,0,0,1,4.14.68v7.89h-.29a12.22,12.22,0,0,0-5-.87c-4.33,0-8,2.89-9.33,7.7v27.61h-8V544.41h8V551Zm26.16-23.67a5,5,0,1,1,0,10,5,5,0,1,1,0-10Zm-3.94,17.13h8v42.33h-8ZM435.41,562c6.06,1.92,12.8,4.42,12.8,12.5,0,8.66-7.12,13.09-16.26,13.09-5.59,0-11.16-1.35-14.34-3.85v-7.6H418c3.56,3.27,8.86,4.72,13.86,4.72,4.52,0,8.56-1.74,8.56-5.39s-3.37-4.62-10-6.83c-6-1.93-12.61-4.14-12.61-12.13,0-8.17,6.74-13,15.3-13,5,0,9.43,1.06,13,3.47v7.69h-.29a19.22,19.22,0,0,0-12.51-4.42c-5,0-7.79,2.21-7.79,5.19C425.5,558.84,428.58,559.8,435.41,562ZM476,587.61c-12.41,0-20.88-8.28-20.88-21.56s7.89-22.51,19.34-22.51c11.65,0,17.7,8.37,17.7,20.79V568H463.12c.86,8.56,6.35,12.7,13.95,12.7a18.07,18.07,0,0,0,11.84-3.85h.28v7C485.73,586.55,481.21,587.61,476,587.61Zm-12.6-26.17h21.07c-.29-6.26-3.37-11.07-9.91-11.07C468.51,550.37,464.56,554.89,463.41,561.44Z"/></svg>