<svg id="Layer_1" data-name="Layer 1" xmlns="http://www.w3.org/2000/svg" viewBox="0 0 1657.57 148"><title>Logo-Red_Hat-Google_HPE-A-Black-RGB</title><path d="M699.5,146.07a2.25,2.25,0,0,1-2.25-2.25V4.18a2.25,2.25,0,1,1,4.5,0V143.82A2.25,2.25,0,0,1,699.5,146.07Z"/><path d="M161.52,73.57c1.73,8.19,1.73,9.05,1.73,10.13,0,14-15.74,21.77-36.43,21.77C80,105.47,39.08,78.1,39.08,60a18.45,18.45,0,0,1,1.51-7.33C23.77,53.52,2,56.54,2,75.72,2,107.2,76.59,146,135.65,146c45.28,0,56.7-20.48,56.7-36.65,0-12.72-11-27.16-30.83-35.78M129,85c12.51,0,30.61-2.58,30.61-17.46a14,14,0,0,0-.31-3.42l-7.45-32.36c-1.72-7.12-3.23-10.35-15.73-16.6C126.38,10.19,105.26,2,99,2c-5.82,0-7.55,7.54-14.45,7.54-6.68,0-11.64-5.6-17.89-5.6-6,0-9.91,4.09-12.93,12.5,0,0-8.41,23.72-9.49,27.16A6.43,6.43,0,0,0,44,45.54C44,54.76,80.33,85,129,85"/><path d="M227.52,111.24h18.09V84.42h13.77l13.89,26.82h20.19l-16.2-29.45a22.27,22.27,0,0,0,13.88-20.72c0-13.25-10.41-23.45-26-23.45H227.52v73.62Zm36-58.16c6,0,9.36,3.78,9.36,8.31s-3.36,8.31-9.36,8.31H245.61V53.08Zm29.35,30.39c0,16.2,13.25,28.82,30.28,28.82,9.36,0,16.2-2.53,23.25-8.41l-11.26-10c-2.63,2.74-6.52,4.21-11.14,4.21a14.39,14.39,0,0,1-13.68-8.83h39.65V85.05c0-17.67-11.88-30.39-28.08-30.39a28.57,28.57,0,0,0-29,28.81m28.71-14.93c5.36,0,9.88,3.47,11.67,8.83H310c1.68-5.57,5.89-8.83,11.57-8.83m77.19,42.7h16.83V33.94l-17,3.68V58.55a28.3,28.3,0,0,0-14.2-3.68c-16.2,0-28.92,12.51-28.92,28.5A28.25,28.25,0,0,0,383.79,112a25.13,25.13,0,0,0,14.94-4.83v4.1ZM372.12,83.37c0-8,6.31-14.1,14.62-14.1a17.22,17.22,0,0,1,11.78,4.32V93a16.36,16.36,0,0,1-11.78,4.42c-8.2,0-14.62-6.1-14.62-14.09m68.93,27.87h18.09V82.42h30.29v28.82h18.09V37.62H489.43V65.91H459.14V37.62H441.05v73.62Zm92.44.94c6,0,10.84-1.26,15.36-4.31v3.37h16.82V75.58c0-13.56-9.15-21-24.39-21-8.52,0-16.94,2-26,6.1l6.1,12.52c6.52-2.74,12-4.42,16.83-4.42,7,0,10.62,2.73,10.62,8.31v2.73a49.53,49.53,0,0,0-12.62-1.58c-14.31,0-22.93,6-22.93,16.73,0,9.78,7.78,17.24,20.19,17.24m-5.2-17.56c0-3.68,3.69-5.47,9.26-5.47a43.12,43.12,0,0,1,10.1,1.26v7.15A21.51,21.51,0,0,1,537,100.19c-5.47,0-8.73-2.1-8.73-5.57m53-.32c0,11.89,7.15,17.67,20.19,17.67a52.11,52.11,0,0,0,11.89-1.68V96.51a24.84,24.84,0,0,1-7.68,1.16c-5.37,0-7.36-1.68-7.36-6.73V69.8h15.56V55.6H598.28v-18l-17,3.68V55.6H570V69.8h11.26V94.3Z"/><path id="element" d="M783.78,22.34v103.5h360.3V22.34Zm337.79,81H806.31V44.87h315.26Z"/><path d="M1204.89,83.18v5.18H1183.8v13H1203v5H1183.8v14.19h21.09v5.19h-27V83.18Zm14.67,42.64h-5.8V94.43h5.46v5.87c2.25-4,5.86-6.55,10.5-6.55,7.3,0,11.6,4.78,11.6,12v20.12h-5.8v-20c0-4.17-2.18-6.62-7-6.62a9.5,9.5,0,0,0-9,6.55v20.06Zm45.5.68c-7.84,0-11-3.41-11-9.62V99.55h-6.62V94.43h6.62V86.31h5.8v8.12h8.94v5.12h-8.94v16.79c0,3.75,2.11,4.77,5.73,4.77a8.92,8.92,0,0,0,2.73-.41h.48v5.12A10.3,10.3,0,0,1,1265.06,126.5Zm25.52,0c-10.44,0-17.06-6.14-17.06-16s6.14-16.72,15.15-16.72c9.28,0,14,6.21,14,15.42v3.07h-23.14c.82,6.14,5.19,9,11.13,9,3.68,0,6.48-.62,9.21-2.6h.61v5A16.34,16.34,0,0,1,1290.58,126.5Zm-11-18.83H1297c-.21-5.73-3.21-8.8-8.26-8.8S1280.34,102.55,1279.59,107.67Zm48.44-7.3a7.82,7.82,0,0,0-3.34-.68c-3.69,0-6.62,2.59-7.85,6.82v19.31H1311V94.43h5.46v6.76c1.84-5.11,5.19-7.23,8.94-7.23a7.8,7.8,0,0,1,3.07.47v5.94Zm12.08,20.33v16.65h-5.81V94.43h5.47v5.39a11.85,11.85,0,0,1,10.29-6.07c9.49,0,14.47,7.51,14.47,16,0,8.74-5,16.38-14.47,16.38A11.75,11.75,0,0,1,1340.11,120.7Zm18.49-10.92c0-6.34-3.55-10.57-9.9-10.57a9.51,9.51,0,0,0-8.59,5.39v10.78a9.64,9.64,0,0,0,8.59,5.39C1355.05,120.77,1358.6,116.4,1358.6,109.78Zm31.66-9.41a7.87,7.87,0,0,0-3.35-.68c-3.69,0-6.62,2.59-7.85,6.82v19.31h-5.8V94.43h5.46v6.76c1.84-5.11,5.18-7.23,8.94-7.23a7.76,7.76,0,0,1,3.07.47v5.94Zm9.88-9.07a4.22,4.22,0,0,1-4.16-4.1,4.14,4.14,0,0,1,4.16-4,4.1,4.1,0,0,1,4.17,4A4.17,4.17,0,0,1,1400.14,91.3Zm2.87,34.52h-5.8V94.43h5.8Zm9.41-7.44h.55a16.27,16.27,0,0,0,10,3.21c3.41,0,6.41-1.3,6.41-4.09s-2.52-3.42-7.51-5c-4.43-1.51-9.41-3.07-9.41-9,0-6.21,5-9.69,11.53-9.69a16.94,16.94,0,0,1,9.69,2.59v5.32h-.61a14.6,14.6,0,0,0-9-3c-3.68,0-5.73,1.64-5.73,4,0,2.59,2.18,3.28,7.3,4.84,4.57,1.51,9.62,3.28,9.62,9.22,0,6.48-5.32,9.82-12.21,9.82-4.16,0-8.32-1-10.65-2.86v-5.26Zm46.46,8.12c-10.44,0-17.05-6.14-17.05-16S1448,93.75,1457,93.75c9.28,0,14,6.21,14,15.42v3.07h-23.14c.82,6.14,5.19,9,11.13,9,3.68,0,6.48-.62,9.21-2.6h.61v5A16.35,16.35,0,0,1,1458.88,126.5Zm-11-18.83h17.4c-.2-5.73-3.2-8.8-8.25-8.8S1448.65,102.55,1447.9,107.67ZM1213.69,22.34V65h-9.28V47.31h-17.26V65h-9.28V22.34h9.28V39.19h17.26V22.34Zm25.18,43.39c-11.74,0-18-6.34-18-16.58s6.55-17,16-17c10.23,0,15.35,6.42,15.35,16v3.62H1230.4c.69,5.25,4.85,6.61,8.95,6.61a18.68,18.68,0,0,0,9.55-2.11h1V63C1247.19,65,1242.82,65.73,1238.87,65.73Zm-8.54-19.79h12.76c-.27-4.77-2.31-6.89-6.07-6.89C1233.82,39.05,1231,40.55,1230.33,45.94Zm32.82,19-6.69-31V32.91h8.6l3.62,19.52.89,6.28,1.22-6.28,4.37-19.52h9.75l4.31,19.52,1.29,6.28,1-6.28,3.61-19.52h8.19V34l-6.76,31h-11.87l-3.82-17.13-1.1-6.41-1.09,6.41L1275,65Zm56.56.75c-6.82,0-10.23-3.14-10.23-10.44V22.34h9.28V54.68c0,2.25,1,3,3.13,3a10.46,10.46,0,0,0,2.46-.41h.14V65A17.09,17.09,0,0,1,1319.71,65.73Zm25.51,0c-11.73,0-18-6.34-18-16.58s6.55-17,16-17c10.23,0,15.35,6.42,15.35,16v3.62h-21.84c.69,5.25,4.84,6.61,8.94,6.61a18.66,18.66,0,0,0,9.55-2.11h1V63C1353.55,65,1349.18,65.73,1345.22,65.73Zm-8.52-19.79h12.76c-.28-4.77-2.32-6.89-6.07-6.89C1340.17,39.05,1337.31,40.55,1336.7,45.94Zm53.35,7.37V40.55h-13.58V52.9c0,3.28,1.1,4.78,4.17,4.78a7.8,7.8,0,0,0,2.66-.54h.88v7.64a17.29,17.29,0,0,1-5.8,1c-7.85,0-11.19-3.75-11.19-12.42V40.55h-5.53V32.91h5.53V25.13h9.28v7.78h13.58V25.13h9.28v7.78H1407v7.64h-7.71V52.9c0,3.28,1.09,4.78,4.16,4.78a7.81,7.81,0,0,0,2.67-.54h.88v7.64a17.29,17.29,0,0,1-5.8,1C1393.39,65.73,1390.05,62,1390.05,53.31Zm44.27-1.5V65h-9.21V22.34h16.58c9.42,0,15.63,5.18,15.63,14.8s-6.21,14.67-15.63,14.67Zm6.62-21.63h-6.62V44h6.62c4.71,0,7-2.79,7-6.82S1445.65,30.18,1440.94,30.18Zm40,30c-1.91,3.54-5.39,5.11-9.69,5.11-5.93,0-10.84-3.41-10.84-9.76s4.29-10,12.41-10a42.29,42.29,0,0,1,7.85.75V44.44c0-3.41-2.39-4.91-7.17-4.91a19.64,19.64,0,0,0-8.94,2h-1v-7a26,26,0,0,1,11.06-2.39c10,0,15.21,4.57,15.21,12.49V65h-8.87Zm-.27-5.26v-4.1a19.74,19.74,0,0,0-5.25-.61c-3.76,0-5.67,1.43-5.67,4.37s1.91,4.09,4.71,4.09S1479.76,57.34,1480.65,55Zm16-5.94c0-10.37,7.3-16.85,16.79-16.85a16.13,16.13,0,0,1,8.93,2.25v8.05h-.95a10.9,10.9,0,0,0-7-2.18c-4.57,0-8.26,3.21-8.26,8.73s3.69,8.6,8.26,8.6a10.9,10.9,0,0,0,7-2.18h.95v8a16,16,0,0,1-8.93,2.25C1503.91,65.73,1496.61,59.32,1496.61,49Zm42.16.42V65h-9.28V22.34h9.28V46.62l2.19-3.27,8.52-10.44h9.83V34l-11.87,13.44,11.87,16.45V65h-10.44L1541,53.24ZM1582,60.21c-1.91,3.54-5.39,5.11-9.69,5.11-5.94,0-10.85-3.41-10.85-9.76s4.3-10,12.42-10a42.19,42.19,0,0,1,7.84.75V44.44c0-3.41-2.38-4.91-7.16-4.91a19.64,19.64,0,0,0-8.94,2h-1v-7a25.94,25.94,0,0,1,11-2.39c10,0,15.22,4.57,15.22,12.49V65H1582V60.21Zm-.28-5.26v-4.1a19.69,19.69,0,0,0-5.25-.61c-3.75,0-5.67,1.43-5.67,4.37s1.92,4.09,4.71,4.09S1580.87,57.34,1581.75,55Zm26.48-15.56c1.7-4.77,5.32-6.82,9-6.82a6.4,6.4,0,0,1,2.66.55v8.8h-1a6.73,6.73,0,0,0-3.21-.75c-3.68,0-6.34,1.71-7.1,5.32V65h-9.28V32.91h8.88Zm38.47,21.09a11,11,0,0,1-9.62,5.25c-8.73,0-14.12-7-14.12-16.72s5.39-16.85,14.12-16.85a11,11,0,0,1,9.22,4.64V22.34h9.27V65h-8.87v-4.5Zm-.4-5.94V43.35a7.87,7.87,0,0,0-6.69-3.61c-4.23,0-7.1,3.27-7.1,9.27s2.87,9.15,7.1,9.15A7.86,7.86,0,0,0,1646.3,54.54Z"/></svg>