<svg id="Layer_1" data-name="Layer 1" xmlns="http://www.w3.org/2000/svg" viewBox="0 0 1163.92 263.1"><defs><style>.cls-1{fill:#e00;}.cls-2{fill:#00b388;}</style></defs><title>Logo-Red_Hat-HPE-C-Standard-RGB</title><path d="M473.76,261.1a2.25,2.25,0,0,1-2.25-2.25V4.25a2.25,2.25,0,0,1,4.5,0v254.6A2.25,2.25,0,0,1,473.76,261.1Z"/><path d="M257.13,64a14.14,14.14,0,0,1,.31,3.43c0,14.87-18.08,17.47-30.59,17.48-48.63,0-84.95-30.15-85-39.36a6.36,6.36,0,0,1,.22-1.94l-3.65,9.05A18.32,18.32,0,0,0,137,60c0,18.11,41,45.44,87.76,45.4,20.69,0,36.42-7.79,36.4-21.8,0-1.08,0-1.94-1.73-10.13L257.13,64Z"/><path class="cls-1" d="M259.39,73.5c1.73,8.19,1.73,9,1.73,10.13,0,14-15.71,21.78-36.4,21.8C178,105.47,137,78.14,137,60a18.32,18.32,0,0,1,1.5-7.33c-16.81.88-38.58,3.92-38.56,23.1,0,31.47,74.64,70.19,133.69,70.14,45.26,0,56.67-20.53,56.65-36.69,0-12.72-11-27.15-30.85-35.75M226.85,85c12.51,0,30.61-2.61,30.59-17.48a14.14,14.14,0,0,0-.31-3.43L249.65,31.7c-1.73-7.12-3.24-10.35-15.75-16.59C224.2,10.17,203.07,2,196.82,2c-5.82,0-7.54,7.55-14.43,7.56-6.68,0-11.65-5.59-17.9-5.59-6,0-9.91,4.1-12.92,12.51,0,0-8.38,23.72-9.46,27.17a6.36,6.36,0,0,0-.22,1.94c0,9.21,36.33,39.41,85,39.36"/><path d="M2,249.83H20.08V223H33.85l13.88,26.8H67.91L51.72,220.4A22.26,22.26,0,0,0,65.6,199.69c0-13.24-10.41-23.44-26-23.44H2v73.58ZM38,191.7c6,0,9.36,3.79,9.36,8.31s-3.37,8.3-9.36,8.3H20.08V191.7Zm29.33,30.38c0,16.19,13.24,28.8,30.27,28.8,9.36,0,16.19-2.52,23.23-8.4l-11.25-10c-2.62,2.73-6.51,4.2-11.14,4.2a14.34,14.34,0,0,1-13.66-8.83h39.63v-4.2c0-17.66-11.88-30.38-28.07-30.38a28.56,28.56,0,0,0-29,28.8M96,207.16A12.29,12.29,0,0,1,107.64,216H84.41c1.68-5.58,5.89-8.83,11.56-8.83m77.16,42.67H190V172.57l-17,3.68v20.92a28.23,28.23,0,0,0-14.19-3.68c-16.19,0-28.91,12.51-28.91,28.49a28.25,28.25,0,0,0,28.38,28.59,25,25,0,0,0,14.93-4.84v4.1ZM146.53,222c0-8,6.31-14.09,14.62-14.09a17.24,17.24,0,0,1,11.77,4.31v19.45a16.37,16.37,0,0,1-11.77,4.41c-8.2,0-14.62-6.09-14.62-14.08m68.9,27.85h18.08V221h30.28v28.8h18.08V176.25H263.79v28.28H233.51V176.25H215.43v73.58Zm92.4.95c6,0,10.83-1.26,15.35-4.31v3.36H340V214.2c0-13.56-9.15-21-24.39-21-8.51,0-16.92,2-26,6.1l6.09,12.51c6.52-2.73,12-4.41,16.82-4.41,7,0,10.62,2.73,10.62,8.3v2.73a49.48,49.48,0,0,0-12.62-1.57c-14.29,0-22.91,6-22.91,16.71,0,9.78,7.78,17.24,20.18,17.24m-5.19-17.55c0-3.69,3.67-5.47,9.25-5.47A42.51,42.51,0,0,1,322,229v7.15a21.61,21.61,0,0,1-10.62,2.63c-5.47,0-8.72-2.11-8.72-5.57m52.91-.32c0,11.88,7.15,17.66,20.19,17.66a52.58,52.58,0,0,0,11.88-1.68V235.12a24.78,24.78,0,0,1-7.68,1.15c-5.36,0-7.36-1.68-7.36-6.73V208.42h15.56V194.23H372.58v-18l-17,3.68v14.3H344.31v14.19h11.24v24.49Z"/><path id="element" class="cls-2" d="M559.38,9.42V68.64H765.57V9.42Zm193.3,46.33H572.27V22.3H752.68V55.75Z"/><path d="M572.27,166.52H559.38V107.3h12.89v23.4h23V107.3h12.88v59.22H595.3V142h-23Zm65.19.95c-13.07,0-22-8.24-22-21.79,0-13.18,8.72-22.27,20.28-22.27,12.6,0,18.85,8.43,18.85,21v4.74H627.7c1.52,6.54,6.63,8.24,11.75,8.24A20.09,20.09,0,0,0,651.1,154h.48v9.76C648.17,166.24,643.34,167.47,637.46,167.47Zm-9.76-26.91h15.35c-.28-4.36-2.08-7.39-7.11-7.39C632.16,133.17,628.84,134.78,627.7,140.56Zm60.55,1.14-6.63,24.82H670.34l-12.89-41.69v-.47h12.32l7,24.92,6.63-24.92h10l6.73,24.92,7.11-24.92h11.84v.47l-12.88,41.69H695Zm51.83,25.77c-10.23,0-14.4-4.08-14.4-13.65V107.3h12.51V153c0,2.94,1.13,4,3.6,4a9.32,9.32,0,0,0,2.84-.57h.19v10.33A14.89,14.89,0,0,1,740.08,167.47Zm30.23,0c-13.07,0-22-8.24-22-21.79,0-13.18,8.71-22.27,20.27-22.27,12.61,0,18.86,8.43,18.86,21v4.74H760.55c1.51,6.54,6.63,8.24,11.75,8.24A20.14,20.14,0,0,0,784,154h.47v9.76C781,166.24,776.19,167.47,770.31,167.47Zm-9.76-26.91H775.9c-.28-4.36-2.08-7.39-7.11-7.39C765,133.17,761.69,134.78,760.55,140.56Zm78.27-16.21h9.29V134.4h-9.29v17.15c0,3.7,1.42,5.4,5.21,5.4a11.7,11.7,0,0,0,3.79-.57h.29v9.86a22.45,22.45,0,0,1-7.68,1.23c-10.14,0-14.12-4.64-14.12-15.35V134.4h-16v17.15c0,3.7,1.42,5.4,5.21,5.4a11.7,11.7,0,0,0,3.79-.57h.28v9.86a22.34,22.34,0,0,1-7.67,1.23c-10.14,0-14.12-4.64-14.12-15.35V134.4h-6.45v-10h6.45V112.8H810.3v11.56h16V112.8h12.51v11.55Zm74.18,3c0,12.89-8.63,19.9-21.71,19.9H882.1v19.23H869.22V107.3h22.07C904.37,107.3,913,114.31,913,127.39Zm-22.75,9c6.54,0,9.67-3.7,9.67-9,0-5.5-3.13-9.19-9.67-9.19H882.1v18.19Zm50.6,26a14.19,14.19,0,0,1-11.18,4.93c-8.24,0-15-5-15-13.93,0-8.24,6.73-13.74,16.39-13.74a33.44,33.44,0,0,1,9.38,1.42v-.75c0-4.55-2.55-6.54-9.28-6.54A24.11,24.11,0,0,0,919.34,137h-.47V126.91a31.16,31.16,0,0,1,14.49-3.5c12.7,0,19.62,6.06,19.62,16.68v26.43H940.85v-4.17Zm-.38-9.1v-3.6a14.56,14.56,0,0,0-6.91-1.42c-4.08,0-6.54,1.52-6.54,4.93s2.46,5,6.16,5A7.32,7.32,0,0,0,940.47,153.25Zm18.86-7.76c0-13.55,9.57-22.08,22.08-22.08,4.46,0,8.62,1,11.75,3.22v10.71h-.48A15.64,15.64,0,0,0,983,134c-6.25,0-11,4.27-11,11.47s4.74,11.37,11,11.37a15.7,15.7,0,0,0,9.66-3.32h.48v10.7c-3.13,2.28-7.3,3.23-11.75,3.23C968.9,167.47,959.33,159,959.33,145.49Zm54.2,1.89v19.14H1001V107.3h12.51V141l12.61-16.68h14.21v.48L1025.19,144l15.16,22.08v.47H1026Zm55.25,15a14.21,14.21,0,0,1-11.19,4.93c-8.24,0-15-5-15-13.93,0-8.24,6.73-13.74,16.4-13.74a33.44,33.44,0,0,1,9.38,1.42v-.75c0-4.55-2.56-6.54-9.29-6.54a24.14,24.14,0,0,0-11.85,3.22h-.47V126.91a31.17,31.17,0,0,1,14.5-3.5c12.7,0,19.61,6.06,19.61,16.68v26.43h-12.13v-4.17Zm-.38-9.1v-3.6a14.63,14.63,0,0,0-6.92-1.42c-4.08,0-6.54,1.52-6.54,4.93s2.46,5,6.16,5A7.33,7.33,0,0,0,1068.4,153.25Zm33.54-22.07c2.27-4.65,5.59-7.3,10.24-7.3a9.93,9.93,0,0,1,4.07.76v11.94h-.48a14.26,14.26,0,0,0-5.49-1c-3.89,0-6.92,2.27-8,6.63v24.26h-12.51V124.35h12.13v6.83Zm47.85,31c-2.65,3.41-6.82,5.31-12.51,5.31-10.8,0-17.72-9.85-17.72-22s6.92-22.08,17.72-22.08c5.5,0,9.48,1.7,12.13,4.83V107.3h12.51v59.22h-12.13v-4.36Zm-.38-9.95V138.66a9.26,9.26,0,0,0-8-4.36c-5.49,0-9.19,4-9.19,11.19s3.7,11.08,9.19,11.08A9.24,9.24,0,0,0,1149.41,152.21Zm-590,33.65H596v7.2H567.62v18.1H593.3v7H567.62v19.71H596v7.2H559.38Zm66.8,16.68c9.39,0,14.6,6.16,14.6,16.29v26.25h-7.87V219c0-5.41-2.74-9.29-8.71-9.29a10.94,10.94,0,0,0-10.52,7.58v27.76h-7.87V203.39h7.87v6.06A14.38,14.38,0,0,1,626.18,202.54Zm35.73.85h10.7v6.73h-10.7v22.46c0,4.73,2.46,6.34,6.91,6.34a10.06,10.06,0,0,0,3.51-.56h.28v6.72a12.59,12.59,0,0,1-4.92.86c-9.76,0-13.65-4.46-13.65-12.61V210.12h-7.2v-6.73H654V192.31h7.87Zm36.29,42.55c-12.22,0-20.56-8.15-20.56-21.23s7.77-22.17,19-22.17c11.47,0,17.44,8.24,17.44,20.46v3.6H685.5c.86,8.44,6.26,12.51,13.74,12.51a17.77,17.77,0,0,0,11.66-3.79h.28v6.93C707.77,244.9,703.32,245.94,698.2,245.94Zm-12.41-25.78h20.75c-.28-6.16-3.32-10.89-9.76-10.89C690.81,209.27,686.92,213.72,685.79,220.16Zm45.48-10.33a11,11,0,0,1,10.33-7.1,9.89,9.89,0,0,1,4.07.66v7.77h-.28a12.09,12.09,0,0,0-4.93-.85c-4.26,0-7.86,2.84-9.19,7.58v27.19H723.4V203.39h7.87v6.44Zm41.12-7.29c12.42,0,19.05,10.14,19.05,21.7s-6.63,21.7-19.05,21.7a15.11,15.11,0,0,1-11.65-5.5V261.1h-7.86V203.39h7.86v4.73A14.88,14.88,0,0,1,772.39,202.54Zm-1.32,36.29c7.77,0,12.32-6.16,12.32-14.59s-4.55-14.59-12.32-14.59a11.74,11.74,0,0,0-10.33,6.63v16A11.67,11.67,0,0,0,771.07,238.83Zm37.52-29a11,11,0,0,1,10.33-7.1,10,10,0,0,1,4.08.66v7.77h-.29a12.09,12.09,0,0,0-4.93-.85c-4.26,0-7.86,2.84-9.19,7.58v27.19h-7.86V203.39h7.86v6.44Zm25.78-23.3a4.93,4.93,0,1,1,0,9.85,4.93,4.93,0,1,1,0-9.85Zm-3.89,16.86h7.87v41.69h-7.87Zm35.91,17.34c6,1.89,12.61,4.36,12.61,12.32,0,8.53-7,12.89-16,12.89-5.5,0-11-1.33-14.12-3.79v-7.49h.37c3.51,3.23,8.72,4.65,13.65,4.65,4.45,0,8.43-1.71,8.43-5.31s-3.31-4.55-9.85-6.73c-5.88-1.89-12.42-4.07-12.42-11.94,0-8.05,6.64-12.79,15.07-12.79,4.93,0,9.28,1,12.79,3.41v7.58h-.28a18.93,18.93,0,0,0-12.32-4.36c-4.93,0-7.68,2.18-7.68,5.12C856.63,217.6,859.66,218.55,866.39,220.73Zm40,25.21c-12.22,0-20.56-8.15-20.56-21.23s7.77-22.17,19-22.17c11.47,0,17.44,8.24,17.44,20.46v3.6H893.68c.85,8.44,6.26,12.51,13.74,12.51a17.77,17.77,0,0,0,11.66-3.79h.28v6.93C916,244.9,911.5,245.94,906.38,245.94ZM894,220.16h20.75c-.28-6.16-3.32-10.89-9.76-10.89C899,209.27,895.1,213.72,894,220.16Z"/></svg>